AnekMalayalam-Medium.ufo
<glyph name="one" format="2">
  <advance width="685"/>
  <unicode hex="0031"/>
  <outline>
    <contour>
      <point x="546" y="0" type="line"/>
      <point x="546" y="1278" type="line"/>
      <point x="354" y="1278" type="line"/>
      <point x="50" y="1104" type="line"/>
      <point x="45" y="910" type="line"/>
      <point x="332" y="1071" type="line"/>
      <point x="346" y="1071" type="line"/>
      <point x="346" y="0" type="line"/>
    </contour>
  </outline>
</glyph>
<glyph name="two" format="2">
  <advance width="950"/>
  <unicode hex="0032"/>
  <outline>
    <contour>
      <point x="878" y="0" type="line"/>
      <point x="878" y="170" type="line"/>
      <point x="234" y="170" type="line"/>
      <point x="316" y="136" type="line"/>
      <point x="316" y="179" type="line"/>
      <point x="561" y="415" type="line" smooth="yes"/>
      <point x="754" y="601"/>
      <point x="860" y="728"/>
      <point x="860" y="926" type="curve" smooth="yes"/>
      <point x="860" y="940" type="line" smooth="yes"/>
      <point x="860" y="1170"/>
      <point x="723" y="1301"/>
      <point x="449" y="1301" type="curve" smooth="yes"/>
      <point x="287" y="1301"/>
      <point x="168" y="1252"/>
      <point x="90" y="1205" type="curve"/>
      <point x="72" y="1026" type="line"/>
      <point x="160" y="1079"/>
      <point x="277" y="1128"/>
      <point x="408" y="1128" type="curve" smooth="yes"/>
      <point x="581" y="1128"/>
      <point x="656" y="1049"/>
      <point x="656" y="915" type="curve" smooth="yes"/>
      <point x="656" y="905" type="line" smooth="yes"/>
      <point x="656" y="762"/>
      <point x="558" y="658"/>
      <point x="383" y="491" type="curve" smooth="yes"/>
      <point x="65" y="187" type="line"/>
      <point x="65" y="0" type="line"/>
    </contour>
  </outline>
</glyph>
<glyph name="H" format="2">
  <advance width="1254"/>
  <unicode hex="0048"/>
  <anchor x="627" y="0" name="bottom"/>
  <anchor x="627" y="639" name="center"/>
  <anchor x="627" y="1278" name="top"/>
  <anchor x="20" y="1278" name="topleft"/>
  <outline>
    <contour>
      <point x="343" y="1278" type="line"/>
      <point x="142" y="1278" type="line"/>
      <point x="142" y="0" type="line"/>
      <point x="343" y="0" type="line"/>
    </contour>
    <contour>
      <point x="1112" y="1278" type="line"/>
      <point x="911" y="1278" type="line"/>
      <point x="911" y="0" type="line"/>
      <point x="1112" y="0" type="line"/>
    </contour>
    <contour>
      <point x="257" y="574" type="line"/>
      <point x="989" y="574" type="line"/>
      <point x="989" y="742" type="line"/>
      <point x="257" y="742" type="line"/>
    </contour>
  </outline>
</glyph>
<glyph name="grave" format="2">
  <advance width="595"/>
  <unicode hex="0060"/>
  <anchor x="413" y="1333" name="top"/>
  <outline>
    <contour>
      <point x="501" y="1096" type="line"/>
      <point x="501" y="1093" type="line"/>
      <point x="329" y="1093" type="line"/>
      <point x="96" y="1365" type="line"/>
      <point x="96" y="1368" type="line"/>
      <point x="312" y="1368" type="line"/>
    </contour>
  </outline>
</glyph>
<glyph name="b" format="2">
  <advance width="1086"/>
  <unicode hex="0062"/>
  <anchor x="551" y="0" name="bottom"/>
  <anchor x="551" y="1324" name="top"/>
  <outline>
    <contour>
      <point x="633" y="-22" type="curve" smooth="yes"/>
      <point x="873" y="-22"/>
      <point x="999" y="130"/>
      <point x="999" y="414" type="curve" smooth="yes"/>
      <point x="999" y="569" type="line" smooth="yes"/>
      <point x="999" y="850"/>
      <point x="874" y="1000"/>
      <point x="641" y="1000" type="curve" smooth="yes"/>
      <point x="445" y="1000"/>
      <point x="358" y="900"/>
      <point x="325" y="777" type="curve"/>
      <point x="269" y="777" type="line"/>
      <point x="312" y="643" type="line"/>
      <point x="339" y="756"/>
      <point x="432" y="841"/>
      <point x="570" y="841" type="curve" smooth="yes"/>
      <point x="721" y="841"/>
      <point x="802" y="753"/>
      <point x="802" y="585" type="curve" smooth="yes"/>
      <point x="802" y="402" type="line" smooth="yes"/>
      <point x="802" y="229"/>
      <point x="721" y="141"/>
      <point x="572" y="141" type="curve" smooth="yes"/>
      <point x="425" y="141"/>
      <point x="322" y="222"/>
      <point x="315" y="386" type="curve"/>
      <point x="258" y="201" type="line"/>
      <point x="323" y="201" type="line"/>
      <point x="358" y="66"/>
      <point x="458" y="-22"/>
    </contour>
    <contour>
      <point x="320" y="0" type="line"/>
      <point x="312" y="229" type="line"/>
      <point x="315" y="291" type="line"/>
      <point x="315" y="697" type="line"/>
      <point x="314" y="731" type="line"/>
      <point x="319" y="1012" type="line"/>
      <point x="319" y="1324" type="line"/>
      <point x="124" y="1324" type="line"/>
      <point x="124" y="0" type="line"/>
    </contour>
  </outline>
</glyph>
<glyph name="k" format="2">
  <advance width="1012"/>
  <unicode hex="006B"/>
  <anchor x="516" y="0" name="bottom"/>
  <anchor x="511" y="1324" name="top"/>
  <outline>
    <contour>
      <point x="990" y="0" type="line"/>
      <point x="545" y="546" type="line"/>
      <point x="545" y="503" type="line"/>
      <point x="973" y="978" type="line"/>
      <point x="744" y="978" type="line"/>
      <point x="400" y="593" type="line"/>
      <point x="302" y="593" type="line"/>
      <point x="302" y="441" type="line"/>
      <point x="399" y="441" type="line"/>
      <point x="758" y="0" type="line"/>
    </contour>
    <contour>
      <point x="319" y="0" type="line"/>
      <point x="319" y="1324" type="line"/>
      <point x="124" y="1324" type="line"/>
      <point x="124" y="0" type="line"/>
    </contour>
  </outline>
</glyph>
<glyph name="m" format="2">
  <advance width="1647"/>
  <unicode hex="006D"/>
  <anchor x="823" y="0" name="bottom"/>
  <anchor x="823" y="978" name="top"/>
  <outline>
    <contour>
      <point x="1535" y="0" type="line"/>
      <point x="1535" y="631" type="line" smooth="yes"/>
      <point x="1535" y="869"/>
      <point x="1446" y="1000"/>
      <point x="1231" y="1000" type="curve" smooth="yes"/>
      <point x="1039" y="1000"/>
      <point x="953" y="895"/>
      <point x="917" y="777" type="curve"/>
      <point x="894" y="777" type="line"/>
      <point x="920" y="641" type="line"/>
      <point x="945" y="752"/>
      <point x="1022" y="837"/>
      <point x="1154" y="837" type="curve" smooth="yes"/>
      <point x="1292" y="837"/>
      <point x="1339" y="747"/>
      <point x="1339" y="609" type="curve" smooth="yes"/>
      <point x="1339" y="0" type="line"/>
    </contour>
    <contour>
      <point x="320" y="0" type="line"/>
      <point x="320" y="737" type="line"/>
      <point x="312" y="749" type="line"/>
      <point x="320" y="978" type="line"/>
      <point x="124" y="978" type="line"/>
      <point x="124" y="0" type="line"/>
    </contour>
    <contour>
      <point x="927" y="0" type="line"/>
      <point x="927" y="636" type="line" smooth="yes"/>
      <point x="927" y="666"/>
      <point x="923" y="701"/>
      <point x="917" y="726" type="curve"/>
      <point x="893" y="905"/>
      <point x="804" y="1000"/>
      <point x="623" y="1000" type="curve" smooth="yes"/>
      <point x="444" y="1000"/>
      <point x="355" y="900"/>
      <point x="323" y="777" type="curve"/>
      <point x="281" y="777" type="line"/>
      <point x="313" y="641" type="line"/>
      <point x="338" y="752"/>
      <point x="415" y="837"/>
      <point x="547" y="837" type="curve" smooth="yes"/>
      <point x="685" y="837"/>
      <point x="732" y="747"/>
      <point x="732" y="609" type="curve" smooth="yes"/>
      <point x="732" y="0" type="line"/>
    </contour>
  </outline>
</glyph>
<glyph name="t" format="2">
  <advance width="791"/>
  <unicode hex="0074"/>
  <anchor x="450" y="0" name="bottom"/>
  <anchor x="400" y="490" name="center"/>
  <anchor x="267" y="1209" name="top"/>
  <anchor x="569" y="1418" name="topright"/>
  <outline>
    <contour>
      <point x="488" y="-20" type="curve" smooth="yes"/>
      <point x="579" y="-20"/>
      <point x="666" y="-2"/>
      <point x="730" y="30" type="curve"/>
      <point x="747" y="196" type="line"/>
      <point x="687" y="167"/>
      <point x="615" y="150"/>
      <point x="538" y="150" type="curve" smooth="yes"/>
      <point x="408" y="150"/>
      <point x="359" y="204"/>
      <point x="359" y="324" type="curve" smooth="yes"/>
      <point x="359" y="899" type="line"/>
      <point x="165" y="899" type="line"/>
      <point x="165" y="301" type="line" smooth="yes"/>
      <point x="165" y="87"/>
      <point x="254" y="-20"/>
    </contour>
    <contour>
      <point x="721" y="810" type="line"/>
      <point x="738" y="966" type="line"/>
      <point x="12" y="966" type="line"/>
      <point x="12" y="810" type="line"/>
    </contour>
    <contour>
      <point x="354" y="949" type="line"/>
      <point x="362" y="1241" type="line"/>
      <point x="166" y="1218" type="line"/>
      <point x="167" y="949" type="line"/>
    </contour>
  </outline>
</glyph>
<glyph name="y" format="2">
  <advance width="1002"/>
  <unicode hex="0079"/>
  <anchor x="696" y="-88" name="bottom"/>
  <anchor x="502" y="978" name="top"/>
  <outline>
    <contour>
      <point x="484" y="173" type="line"/>
      <point x="240" y="978" type="line"/>
      <point x="37" y="978" type="line"/>
      <point x="344" y="41" type="line"/>
      <point x="565" y="41" type="line"/>
      <point x="477" y="115" type="line"/>
      <point x="322" y="-344" type="line"/>
      <point x="520" y="-344" type="line"/>
      <point x="965" y="978" type="line"/>
      <point x="764" y="978" type="line"/>
      <point x="489" y="128" type="line"/>
      <point x="593" y="173" type="line"/>
    </contour>
  </outline>
</glyph>
<glyph name="uni0D04" format="2">
  <advance width="1225"/>
  <unicode hex="0D04"/>
  <outline>
    <contour>
      <point x="613" y="989" type="curve" smooth="yes"/>
      <point x="552" y="989"/>
      <point x="520" y="951"/>
      <point x="520" y="875" type="curve" smooth="yes"/>
      <point x="520" y="674" type="line" smooth="yes"/>
      <point x="520" y="600"/>
      <point x="552" y="561"/>
      <point x="613" y="561" type="curve" smooth="yes"/>
      <point x="675" y="561"/>
      <point x="705" y="600"/>
      <point x="705" y="674" type="curve" smooth="yes"/>
      <point x="705" y="875" type="line" smooth="yes"/>
      <point x="705" y="951"/>
      <point x="675" y="989"/>
    </contour>
    <contour>
      <point x="613" y="156" type="curve" smooth="yes"/>
      <point x="951" y="156"/>
      <point x="1120" y="331.314"/>
      <point x="1120" y="685" type="curve" smooth="yes"/>
      <point x="1120" y="819" type="line"/>
      <point x="945" y="819" type="line"/>
      <point x="945" y="700" type="line" smooth="yes"/>
      <point x="945" y="444.306"/>
      <point x="839" y="318"/>
      <point x="613" y="318" type="curve" smooth="yes"/>
      <point x="388" y="318"/>
      <point x="280" y="444.306"/>
      <point x="280" y="700" type="curve" smooth="yes"/>
      <point x="280" y="819" type="line"/>
      <point x="105" y="819" type="line"/>
      <point x="105" y="685" type="line" smooth="yes"/>
      <point x="105" y="331.314"/>
      <point x="275" y="156"/>
    </contour>
  </outline>
</glyph>
<glyph name="vowelAa.mlm" format="2">
  <advance width="3295"/>
  <unicode hex="0D06"/>
  <outline>
    <contour>
      <point x="2697" y="705" type="line"/>
      <point x="2907" y="687.547"/>
      <point x="3011" y="555.107"/>
      <point x="3011" y="320" type="curve" smooth="yes"/>
      <point x="3011" y="258" type="line" smooth="yes"/>
      <point x="3011" y="-42.6667"/>
      <point x="2863" y="-193"/>
      <point x="2540" y="-193" type="curve" smooth="yes"/>
      <point x="2395" y="-193"/>
      <point x="2274" y="-174"/>
      <point x="2158" y="-132" type="curve"/>
      <point x="2193" y="-295" type="line"/>
      <point x="2301" y="-332"/>
      <point x="2422" y="-349"/>
      <point x="2553" y="-349" type="curve" smooth="yes"/>
      <point x="2984" y="-349"/>
      <point x="3194" y="-148.661"/>
      <point x="3194" y="251" type="curve" smooth="yes"/>
      <point x="3194" y="316" type="line" smooth="yes"/>
      <point x="3194" y="645.06"/>
      <point x="3025" y="838.625"/>
      <point x="2693" y="859" type="curve"/>
    </contour>
    <contour>
      <point x="2200" y="1026" type="curve" smooth="yes"/>
      <point x="2384" y="1026"/>
      <point x="2506" y="954.223"/>
      <point x="2560" y="824" type="curve"/>
      <point x="2572" y="755" type="line"/>
      <point x="2581" y="706.831"/>
      <point x="2587" y="660.803"/>
      <point x="2587" y="603" type="curve" smooth="yes"/>
      <point x="2587" y="412" type="line" smooth="yes"/>
      <point x="2587" y="250.55"/>
      <point x="2529" y="178"/>
      <point x="2415" y="178" type="curve" smooth="yes"/>
      <point x="2302" y="178"/>
      <point x="2243" y="247.717"/>
      <point x="2243" y="381" type="curve" smooth="yes"/>
      <point x="2243" y="419" type="line" smooth="yes"/>
      <point x="2243" y="608.24"/>
      <point x="2344" y="711"/>
      <point x="2556" y="711" type="curve" smooth="yes"/>
      <point x="2589" y="711"/>
      <point x="2620" y="711"/>
      <point x="2652" y="708" type="curve"/>
      <point x="2657" y="856" type="line"/>
      <point x="2629" y="860"/>
      <point x="2580" y="864"/>
      <point x="2538" y="864" type="curve" smooth="yes"/>
      <point x="2231" y="864"/>
      <point x="2060" y="708.27"/>
      <point x="2060" y="414" type="curve" smooth="yes"/>
      <point x="2060" y="378" type="line" smooth="yes"/>
      <point x="2060" y="144.724"/>
      <point x="2183" y="22"/>
      <point x="2413" y="22" type="curve" smooth="yes"/>
      <point x="2650" y="22"/>
      <point x="2769" y="155.692"/>
      <point x="2769" y="417" type="curve" smooth="yes"/>
      <point x="2769" y="600" type="line" smooth="yes"/>
      <point x="2769" y="656.706"/>
      <point x="2761.69" y="704.634"/>
      <point x="2754" y="753" type="curve" smooth="yes"/>
      <point x="2747" y="797" type="line"/>
      <point x="2693" y="1048.2"/>
      <point x="2516" y="1189"/>
      <point x="2208" y="1189" type="curve" smooth="yes"/>
      <point x="1929" y="1189"/>
      <point x="1766" y="1087"/>
      <point x="1724" y="899" type="curve"/>
      <point x="1691" y="899" type="line"/>
      <point x="1698" y="578" type="line"/>
      <point x="1815" y="562" type="line"/>
      <point x="1815" y="684" type="line" smooth="yes"/>
      <point x="1815" y="910"/>
      <point x="1946" y="1026"/>
    </contour>
    <contour>
      <point x="1628" y="5" type="line"/>
      <point x="1815" y="5" type="line"/>
      <point x="1815" y="666" type="line"/>
      <point x="1628" y="642" type="line"/>
    </contour>
    <contour>
      <point x="1719" y="899" type="line"/>
      <point x="1682" y="1082"/>
      <point x="1533" y="1188"/>
      <point x="1269" y="1188" type="curve" smooth="yes"/>
      <point x="1144" y="1188"/>
      <point x="1043" y="1157"/>
      <point x="976" y="1114" type="curve"/>
      <point x="1070" y="1017" type="line"/>
      <point x="1124" y="1034"/>
      <point x="1189" y="1040"/>
      <point x="1259" y="1040" type="curve" smooth="yes"/>
      <point x="1504" y="1040"/>
      <point x="1628" y="918"/>
      <point x="1628" y="678" type="curve" smooth="yes"/>
      <point x="1628" y="561" type="line"/>
      <point x="1723" y="561" type="line"/>
    </contour>
    <contour>
      <point x="303" y="588" type="line" smooth="yes"/>
      <point x="303" y="888.355"/>
      <point x="448.38" y="1036"/>
      <point x="743" y="1036" type="curve" smooth="yes"/>
      <point x="804" y="1036"/>
      <point x="862" y="1029"/>
      <point x="919" y="1015" type="curve"/>
      <point x="934" y="1011"/>
      <point x="963" y="1001"/>
      <point x="974" y="997" type="curve"/>
      <point x="1101" y="964"/>
      <point x="1179" y="901"/>
      <point x="1179" y="789" type="curve" smooth="yes"/>
      <point x="1179" y="779" type="line" smooth="yes"/>
      <point x="1179" y="686"/>
      <point x="1127" y="641"/>
      <point x="1021" y="636" type="curve" smooth="yes"/>
      <point x="952" y="633" type="line"/>
      <point x="952" y="480" type="line"/>
      <point x="1032" y="477" type="line" smooth="yes"/>
      <point x="1146" y="473"/>
      <point x="1198" y="423"/>
      <point x="1198" y="320" type="curve" smooth="yes"/>
      <point x="1198" y="309" type="line" smooth="yes"/>
      <point x="1198" y="196"/>
      <point x="1137" y="131"/>
      <point x="1007" y="131" type="curve" smooth="yes"/>
      <point x="856" y="131"/>
      <point x="782" y="218.231"/>
      <point x="782" y="401" type="curve" smooth="yes"/>
      <point x="782" y="576" type="line" smooth="yes"/>
      <point x="782" y="786.975"/>
      <point x="857" y="934.973"/>
      <point x="1015" y="999" type="curve"/>
      <point x="870" y="1057" type="line"/>
      <point x="688" y="984.009"/>
      <point x="598" y="817.171"/>
      <point x="598" y="569" type="curve" smooth="yes"/>
      <point x="598" y="395" type="line" smooth="yes"/>
      <point x="598" y="116.366"/>
      <point x="734" y="-25"/>
      <point x="1007" y="-25" type="curve" smooth="yes"/>
      <point x="1258" y="-25"/>
      <point x="1384" y="87"/>
      <point x="1384" y="296" type="curve" smooth="yes"/>
      <point x="1384" y="308" type="line" smooth="yes"/>
      <point x="1384" y="455"/>
      <point x="1315" y="541"/>
      <point x="1165" y="558" type="curve"/>
      <point x="1165" y="563" type="line"/>
      <point x="1300" y="582"/>
      <point x="1364" y="653"/>
      <point x="1364" y="774" type="curve" smooth="yes"/>
      <point x="1364" y="784" type="line" smooth="yes"/>
      <point x="1364" y="912"/>
      <point x="1281" y="1010"/>
      <point x="1127" y="1056" type="curve"/>
      <point x="1065" y="1104" type="line"/>
      <point x="988" y="1152"/>
      <point x="869" y="1188"/>
      <point x="720" y="1188" type="curve" smooth="yes"/>
      <point x="315.604" y="1188"/>
      <point x="115" y="988.723"/>
      <point x="115" y="587" type="curve" smooth="yes"/>
      <point x="115" y="449" type="line" smooth="yes"/>
      <point x="115" y="267.968"/>
      <point x="153" y="107.392"/>
      <point x="228" y="0" type="curve"/>
      <point x="423" y="0" type="line"/>
      <point x="346" y="119.671"/>
      <point x="303" y="269.005"/>
      <point x="303" y="448" type="curve" smooth="yes"/>
    </contour>
  </outline>
</glyph>
<glyph name="vowelI.mlm" format="2">
  <advance width="1908"/>
  <unicode hex="0D07"/>
  <outline>
    <contour>
      <point x="632" y="1189" type="curve" smooth="yes"/>
      <point x="288" y="1189"/>
      <point x="110" y="1013.27"/>
      <point x="110" y="682" type="curve" smooth="yes"/>
      <point x="110" y="567" type="line" smooth="yes"/>
      <point x="110" y="340.711"/>
      <point x="218" y="223"/>
      <point x="440" y="223" type="curve" smooth="yes"/>
      <point x="660" y="223"/>
      <point x="762" y="329.78"/>
      <point x="762" y="523" type="curve" smooth="yes"/>
      <point x="762" y="582" type="line" smooth="yes"/>
      <point x="762" y="770.246"/>
      <point x="677" y="872"/>
      <point x="512" y="872" type="curve" smooth="yes"/>
      <point x="381" y="872"/>
      <point x="298" y="807"/>
      <point x="275" y="681" type="curve"/>
      <point x="283" y="617" type="line"/>
      <point x="310" y="687"/>
      <point x="368" y="729"/>
      <point x="446" y="729" type="curve" smooth="yes"/>
      <point x="537" y="729"/>
      <point x="586" y="672.237"/>
      <point x="586" y="568" type="curve" smooth="yes"/>
      <point x="586" y="528" type="line" smooth="yes"/>
      <point x="586" y="422.752"/>
      <point x="536" y="366"/>
      <point x="441" y="366" type="curve" smooth="yes"/>
      <point x="338" y="366"/>
      <point x="285" y="427.639"/>
      <point x="285" y="554" type="curve" smooth="yes"/>
      <point x="285" y="656" type="line"/>
      <point x="299" y="730" type="line"/>
      <point x="282" y="730" type="line"/>
      <point x="282" y="730" type="line"/>
      <point x="282" y="896"/>
      <point x="395" y="1031"/>
      <point x="633" y="1031" type="curve" smooth="yes"/>
      <point x="862" y="1031"/>
      <point x="977" y="928"/>
      <point x="978" y="731" type="curve" smooth="yes"/>
      <point x="981" y="313" type="line"/>
      <point x="1159" y="313" type="line"/>
      <point x="1163" y="773" type="line" smooth="yes"/>
      <point x="1164" y="940"/>
      <point x="1231" y="1023"/>
      <point x="1380" y="1023" type="curve" smooth="yes"/>
      <point x="1532" y="1023"/>
      <point x="1604" y="930.752"/>
      <point x="1604" y="739" type="curve" smooth="yes"/>
      <point x="1604" y="505" type="line" smooth="yes"/>
      <point x="1604" y="264.276"/>
      <point x="1501" y="147"/>
      <point x="1287" y="147" type="curve" smooth="yes"/>
      <point x="402" y="147" type="line" smooth="yes"/>
      <point x="206" y="147"/>
      <point x="107" y="60"/>
      <point x="107" y="-106" type="curve" smooth="yes"/>
      <point x="107" y="-273"/>
      <point x="206" y="-361"/>
      <point x="402" y="-361" type="curve" smooth="yes"/>
      <point x="1757" y="-361" type="line"/>
      <point x="1782" y="-213" type="line"/>
      <point x="420" y="-213" type="line" smooth="yes"/>
      <point x="337" y="-213"/>
      <point x="294" y="-178"/>
      <point x="294" y="-106" type="curve" smooth="yes"/>
      <point x="294" y="-35"/>
      <point x="337" y="0"/>
      <point x="420" y="0" type="curve" smooth="yes"/>
      <point x="1326" y="0" type="line" smooth="yes"/>
      <point x="1637" y="0"/>
      <point x="1791" y="169.34"/>
      <point x="1791" y="507" type="curve" smooth="yes"/>
      <point x="1791" y="740" type="line" smooth="yes"/>
      <point x="1791" y="1039.67"/>
      <point x="1662" y="1189"/>
      <point x="1402" y="1189" type="curve" smooth="yes"/>
      <point x="1207" y="1189"/>
      <point x="1092" y="1104"/>
      <point x="1068" y="933" type="curve"/>
      <point x="1063" y="933" type="line"/>
      <point x="1027" y="1098"/>
      <point x="878" y="1189"/>
    </contour>
  </outline>
</glyph>
<glyph name="vowelRu.mlm" format="2">
  <advance width="1670"/>
  <unicode hex="0D0B"/>
  <outline>
    <contour>
      <point x="436" y="1189" type="curve" smooth="yes"/>
      <point x="207" y="1189"/>
      <point x="96" y="1059.21"/>
      <point x="96" y="827" type="curve" smooth="yes"/>
      <point x="96" y="717" type="line" smooth="yes"/>
      <point x="96" y="448.745"/>
      <point x="232.099" y="300.932"/>
      <point x="466" y="259" type="curve" smooth="yes"/>
      <point x="492.097" y="254.321"/>
      <point x="516" y="239.269"/>
      <point x="542" y="232" type="curve"/>
      <point x="773" y="343" type="line"/>
      <point x="432.307" y="343"/>
      <point x="264" y="459.493"/>
      <point x="264" y="682" type="curve"/>
      <point x="264" y="682" type="line"/>
      <point x="276" y="682" type="line"/>
      <point x="271" y="745" type="line"/>
      <point x="271" y="848" type="line" smooth="yes"/>
      <point x="271" y="970.646"/>
      <point x="324.994" y="1038"/>
      <point x="432" y="1038" type="curve" smooth="yes"/>
      <point x="530.065" y="1038"/>
      <point x="584" y="981.337"/>
      <point x="584" y="866" type="curve" smooth="yes"/>
      <point x="584" y="824" type="line" smooth="yes"/>
      <point x="584" y="724.942"/>
      <point x="533.808" y="671"/>
      <point x="441" y="671" type="curve" smooth="yes"/>
      <point x="358.035" y="671"/>
      <point x="299.353" y="708.798"/>
      <point x="269" y="774" type="curve"/>
      <point x="260" y="717" type="line"/>
      <point x="285" y="609"/>
      <point x="370" y="537"/>
      <point x="500" y="537" type="curve" smooth="yes"/>
      <point x="667" y="537"/>
      <point x="759" y="637.793"/>
      <point x="759" y="818" type="curve" smooth="yes"/>
      <point x="759" y="867" type="line" smooth="yes"/>
      <point x="759" y="1076.91"/>
      <point x="651" y="1189"/>
    </contour>
    <contour>
      <point x="943.876" y="-275" type="line" smooth="yes"/>
      <point x="1277.88" y="-275"/>
      <point x="1450.88" y="-180"/>
      <point x="1450.88" y="11" type="curve" smooth="yes"/>
      <point x="1450.88" y="145.554"/>
      <point x="1366.88" y="223.876"/>
      <point x="1204.88" y="254" type="curve"/>
      <point x="1204.88" y="271" type="line"/>
      <point x="958" y="343" type="line"/>
      <point x="712" y="343" type="line"/>
      <point x="466" y="271" type="line"/>
      <point x="466" y="254" type="line"/>
      <point x="304" y="223.876"/>
      <point x="220" y="145.554"/>
      <point x="220" y="11" type="curve" smooth="yes"/>
      <point x="220" y="-180"/>
      <point x="393" y="-275"/>
      <point x="727" y="-275" type="curve" smooth="yes"/>
    </contour>
    <contour>
      <point x="938.876" y="195" type="line" smooth="yes"/>
      <point x="1156.21" y="195"/>
      <point x="1265.88" y="146.302"/>
      <point x="1265.88" y="34" type="curve" smooth="yes"/>
      <point x="1265.88" y="-76.3148"/>
      <point x="1157.33" y="-127"/>
      <point x="939" y="-127" type="curve" smooth="yes"/>
      <point x="732" y="-127" type="line" smooth="yes"/>
      <point x="513.668" y="-127"/>
      <point x="405" y="-76.3148"/>
      <point x="405" y="34" type="curve" smooth="yes"/>
      <point x="405" y="146.302"/>
      <point x="514.665" y="195"/>
      <point x="732" y="195" type="curve" smooth="yes"/>
    </contour>
    <contour>
      <point x="1406.88" y="682" type="line"/>
      <point x="1406.88" y="459.493"/>
      <point x="1238.57" y="343"/>
      <point x="897.876" y="343" type="curve"/>
      <point x="1128.88" y="232" type="line"/>
      <point x="1154.88" y="239.269"/>
      <point x="1178.78" y="254.321"/>
      <point x="1204.88" y="259" type="curve" smooth="yes"/>
      <point x="1438.78" y="300.932"/>
      <point x="1574.88" y="448.744"/>
      <point x="1574.88" y="717" type="curve" smooth="yes"/>
      <point x="1574.88" y="827" type="line" smooth="yes"/>
      <point x="1574.88" y="1059.21"/>
      <point x="1463.88" y="1189"/>
      <point x="1234.88" y="1189" type="curve" smooth="yes"/>
      <point x="1019.88" y="1189"/>
      <point x="911.876" y="1076.91"/>
      <point x="911.876" y="867" type="curve" smooth="yes"/>
      <point x="911.876" y="818" type="line" smooth="yes"/>
      <point x="911.876" y="637.793"/>
      <point x="1003.88" y="537"/>
      <point x="1170.88" y="537" type="curve" smooth="yes"/>
      <point x="1300.88" y="537"/>
      <point x="1385.88" y="609"/>
      <point x="1410.88" y="717" type="curve"/>
      <point x="1401.88" y="774" type="line"/>
      <point x="1371.52" y="708.798"/>
      <point x="1312.84" y="671"/>
      <point x="1229.88" y="671" type="curve" smooth="yes"/>
      <point x="1137.07" y="671"/>
      <point x="1086.88" y="724.942"/>
      <point x="1086.88" y="824" type="curve" smooth="yes"/>
      <point x="1086.88" y="866" type="line" smooth="yes"/>
      <point x="1086.88" y="981.337"/>
      <point x="1140.81" y="1038"/>
      <point x="1238.88" y="1038" type="curve" smooth="yes"/>
      <point x="1345.88" y="1038"/>
      <point x="1399.88" y="970.646"/>
      <point x="1399.88" y="848" type="curve" smooth="yes"/>
      <point x="1399.88" y="745" type="line"/>
      <point x="1394.88" y="682" type="line"/>
      <point x="1406.88" y="682" type="line"/>
    </contour>
  </outline>
</glyph>
<glyph name="vowelLru.mlm" format="2">
  <advance width="2346"/>
  <unicode hex="0D0C"/>
  <outline>
    <contour>
      <point x="687" y="1189" type="curve" smooth="yes"/>
      <point x="304" y="1189"/>
      <point x="112" y="980"/>
      <point x="112" y="581" type="curve" smooth="yes"/>
      <point x="112" y="376" type="line" smooth="yes"/>
      <point x="112" y="107"/>
      <point x="237" y="-27"/>
      <point x="478" y="-27" type="curve" smooth="yes"/>
      <point x="712" y="-27"/>
      <point x="833" y="95"/>
      <point x="833" y="329" type="curve" smooth="yes"/>
      <point x="833" y="436" type="line" smooth="yes"/>
      <point x="833" y="655"/>
      <point x="736" y="763"/>
      <point x="562" y="763" type="curve" smooth="yes"/>
      <point x="406" y="763"/>
      <point x="311" y="685"/>
      <point x="283" y="542" type="curve"/>
      <point x="291" y="480" type="line"/>
      <point x="326.18" y="564.491"/>
      <point x="391.513" y="607"/>
      <point x="484" y="607" type="curve" smooth="yes"/>
      <point x="593" y="607"/>
      <point x="650" y="543"/>
      <point x="650" y="419" type="curve" smooth="yes"/>
      <point x="650" y="330" type="line" smooth="yes"/>
      <point x="650" y="195"/>
      <point x="591" y="129"/>
      <point x="478" y="129" type="curve" smooth="yes"/>
      <point x="356" y="129"/>
      <point x="295" y="200"/>
      <point x="295" y="363" type="curve" smooth="yes"/>
      <point x="295" y="513" type="line"/>
      <point x="309" y="589" type="line"/>
      <point x="289" y="589" type="line"/>
      <point x="289" y="591" type="line"/>
      <point x="289" y="882"/>
      <point x="426" y="1026"/>
      <point x="693" y="1026" type="curve" smooth="yes"/>
      <point x="949" y="1026"/>
      <point x="1078" y="911"/>
      <point x="1078" y="689" type="curve" smooth="yes"/>
      <point x="1078" y="579" type="line"/>
      <point x="1167" y="579" type="line"/>
      <point x="1169" y="899" type="line"/>
      <point x="1127" y="1087"/>
      <point x="963" y="1189"/>
    </contour>
    <contour>
      <point x="1078" y="5" type="line"/>
      <point x="1265" y="5" type="line"/>
      <point x="1265" y="669" type="line"/>
      <point x="1078" y="652" type="line"/>
    </contour>
    <contour>
      <point x="1660" y="1189" type="curve" smooth="yes"/>
      <point x="1379" y="1189"/>
      <point x="1216" y="1086"/>
      <point x="1174" y="899" type="curve"/>
      <point x="1140" y="899" type="line"/>
      <point x="1148" y="578" type="line"/>
      <point x="1265" y="562" type="line"/>
      <point x="1265" y="684" type="line" smooth="yes"/>
      <point x="1265" y="909"/>
      <point x="1394" y="1026"/>
      <point x="1649" y="1026" type="curve" smooth="yes"/>
      <point x="1919" y="1026"/>
      <point x="2054" y="876.063"/>
      <point x="2054" y="639" type="curve"/>
      <point x="2054" y="639" type="line"/>
      <point x="2032" y="639" type="line"/>
      <point x="2051" y="573" type="line"/>
      <point x="2051" y="366" type="line" smooth="yes"/>
      <point x="2051" y="202.552"/>
      <point x="1993" y="129"/>
      <point x="1875" y="129" type="curve" smooth="yes"/>
      <point x="1759" y="129"/>
      <point x="1696" y="198.709"/>
      <point x="1696" y="333" type="curve" smooth="yes"/>
      <point x="1696" y="428" type="line" smooth="yes"/>
      <point x="1696" y="566.358"/>
      <point x="1755" y="634"/>
      <point x="1873" y="634" type="curve" smooth="yes"/>
      <point x="1951" y="634"/>
      <point x="2012" y="602.125"/>
      <point x="2055" y="549" type="curve"/>
      <point x="2058" y="609" type="line"/>
      <point x="2025" y="720.121"/>
      <point x="1940" y="787"/>
      <point x="1804" y="787" type="curve" smooth="yes"/>
      <point x="1617" y="787"/>
      <point x="1513" y="667.29"/>
      <point x="1513" y="437" type="curve" smooth="yes"/>
      <point x="1513" y="332" type="line" smooth="yes"/>
      <point x="1513" y="96.7232"/>
      <point x="1639" y="-27"/>
      <point x="1874" y="-27" type="curve" smooth="yes"/>
      <point x="2112" y="-27"/>
      <point x="2234" y="106.667"/>
      <point x="2234" y="374" type="curve" smooth="yes"/>
      <point x="2234" y="607" type="line" smooth="yes"/>
      <point x="2234" y="990.293"/>
      <point x="2042" y="1189"/>
    </contour>
  </outline>
</glyph>
<glyph name="vowelshortE.mlm" format="2">
  <advance width="2559"/>
  <unicode hex="0D0E"/>
  <outline>
    <contour>
      <point x="499" y="781" type="curve" smooth="yes"/>
      <point x="236" y="781"/>
      <point x="103" y="643.948"/>
      <point x="103" y="371" type="curve" smooth="yes"/>
      <point x="103" y="304" type="line" smooth="yes"/>
      <point x="103" y="178.943"/>
      <point x="127" y="72.1873"/>
      <point x="176" y="0" type="curve"/>
      <point x="365" y="0" type="line"/>
      <point x="318" y="78.2876"/>
      <point x="289" y="178.943"/>
      <point x="289" y="304" type="curve" smooth="yes"/>
      <point x="289" y="368" type="line" smooth="yes"/>
      <point x="289" y="535.975"/>
      <point x="358" y="618"/>
      <point x="498" y="618" type="curve" smooth="yes"/>
      <point x="640" y="618"/>
      <point x="710" y="535.975"/>
      <point x="710" y="368" type="curve" smooth="yes"/>
      <point x="710" y="304" type="line" smooth="yes"/>
      <point x="710" y="184.969"/>
      <point x="680" y="87.3021"/>
      <point x="628" y="11" type="curve"/>
      <point x="628" y="0" type="line"/>
      <point x="771" y="0" type="line"/>
      <point x="852.693" y="77.2338"/>
      <point x="896" y="178.857"/>
      <point x="896" y="313" type="curve" smooth="yes"/>
      <point x="896" y="386" type="line" smooth="yes"/>
      <point x="896" y="648.946"/>
      <point x="764" y="781"/>
    </contour>
    <contour>
      <point x="801" y="148" type="line"/>
      <point x="633" y="0" type="line"/>
      <point x="1273" y="0" type="line"/>
      <point x="1309" y="2" type="line"/>
      <point x="1785" y="2" type="line"/>
      <point x="1793" y="148" type="line"/>
    </contour>
    <contour>
      <point x="1811" y="1192" type="curve" smooth="yes"/>
      <point x="1380" y="1192"/>
      <point x="1167" y="956.843"/>
      <point x="1167" y="508" type="curve" smooth="yes"/>
      <point x="1167" y="95" type="line" smooth="yes"/>
      <point x="1167" y="-242"/>
      <point x="1297" y="-409"/>
      <point x="1560" y="-409" type="curve" smooth="yes"/>
      <point x="1791" y="-409"/>
      <point x="1905" y="-281.658"/>
      <point x="1905" y="-28" type="curve" smooth="yes"/>
      <point x="1905" y="910" type="line"/>
      <point x="1727" y="910" type="line"/>
      <point x="1715" y="112" type="line"/>
      <point x="1720" y="43" type="line"/>
      <point x="1720" y="-39" type="line" smooth="yes"/>
      <point x="1720" y="-188.777"/>
      <point x="1670" y="-260"/>
      <point x="1560" y="-260" type="curve" smooth="yes"/>
      <point x="1415" y="-260"/>
      <point x="1363" y="-143"/>
      <point x="1358" y="39" type="curve"/>
      <point x="1356" y="68" type="line"/>
      <point x="1356" y="83" type="line"/>
      <point x="1356" y="100"/>
      <point x="1355" y="120"/>
      <point x="1355" y="137" type="curve" smooth="yes"/>
      <point x="1355" y="506" type="line" smooth="yes"/>
      <point x="1355" y="856.039"/>
      <point x="1504" y="1029"/>
      <point x="1810" y="1029" type="curve" smooth="yes"/>
      <point x="2107" y="1029"/>
      <point x="2256" y="856.039"/>
      <point x="2256" y="506" type="curve" smooth="yes"/>
      <point x="2256" y="240" type="line" smooth="yes"/>
      <point x="2256" y="-0.0411072"/>
      <point x="2201" y="-193.295"/>
      <point x="2089" y="-354" type="curve"/>
      <point x="2286" y="-354" type="line"/>
      <point x="2394" y="-211.603"/>
      <point x="2444" y="-9.19521"/>
      <point x="2444" y="240" type="curve" smooth="yes"/>
      <point x="2444" y="508" type="line" smooth="yes"/>
      <point x="2444" y="956.843"/>
      <point x="2228" y="1192"/>
    </contour>
  </outline>
</glyph>
<glyph name="Kha.mlm" format="2">
  <advance width="1982"/>
  <unicode hex="0D16"/>
  <outline>
    <contour>
      <point x="1649" y="1156" type="line"/>
      <point x="1649" y="0" type="line"/>
      <point x="1836" y="0" type="line"/>
      <point x="1836" y="1156" type="line"/>
    </contour>
    <contour>
      <point x="1195" y="149" type="line"/>
      <point x="1025" y="0" type="line"/>
      <point x="1807" y="0" type="line"/>
      <point x="1807" y="149" type="line"/>
    </contour>
    <contour>
      <point x="718" y="1192" type="curve" smooth="yes"/>
      <point x="314" y="1192"/>
      <point x="112" y="981.556"/>
      <point x="112" y="581" type="curve" smooth="yes"/>
      <point x="112" y="378" type="line" smooth="yes"/>
      <point x="112" y="107.663"/>
      <point x="238" y="-27"/>
      <point x="480" y="-27" type="curve" smooth="yes"/>
      <point x="716" y="-27"/>
      <point x="837" y="95.7139"/>
      <point x="837" y="331" type="curve" smooth="yes"/>
      <point x="837" y="434" type="line" smooth="yes"/>
      <point x="837" y="655.364"/>
      <point x="739" y="763"/>
      <point x="562" y="763" type="curve" smooth="yes"/>
      <point x="406" y="763"/>
      <point x="311" y="685"/>
      <point x="283" y="542" type="curve"/>
      <point x="291" y="480" type="line"/>
      <point x="326.544" y="564.491"/>
      <point x="392.555" y="607"/>
      <point x="486" y="607" type="curve" smooth="yes"/>
      <point x="596" y="607"/>
      <point x="654" y="542.297"/>
      <point x="654" y="417" type="curve" smooth="yes"/>
      <point x="654" y="332" type="line" smooth="yes"/>
      <point x="654" y="195.641"/>
      <point x="594" y="129"/>
      <point x="480" y="129" type="curve" smooth="yes"/>
      <point x="357" y="129"/>
      <point x="295" y="199.493"/>
      <point x="295" y="365" type="curve" smooth="yes"/>
      <point x="295" y="513" type="line"/>
      <point x="306" y="589" type="line"/>
      <point x="289" y="589" type="line"/>
      <point x="289" y="591" type="line"/>
      <point x="289" y="884"/>
      <point x="433" y="1029"/>
      <point x="714" y="1029" type="curve" smooth="yes"/>
      <point x="997" y="1029"/>
      <point x="1140" y="880.667"/>
      <point x="1140" y="584" type="curve" smooth="yes"/>
      <point x="1140" y="456" type="line" smooth="yes"/>
      <point x="1140" y="278"/>
      <point x="1099" y="128.644"/>
      <point x="1025" y="11" type="curve"/>
      <point x="1025" y="0" type="line"/>
      <point x="1190" y="0" type="line"/>
      <point x="1273.79" y="106.291"/>
      <point x="1328" y="256.529"/>
      <point x="1328" y="464" type="curve" smooth="yes"/>
      <point x="1328" y="596" type="line" smooth="yes"/>
      <point x="1328" y="987.57"/>
      <point x="1123" y="1192"/>
    </contour>
  </outline>
</glyph>
<glyph name="Ga.mlm" format="2">
  <advance width="1670"/>
  <unicode hex="0D17"/>
  <outline>
    <contour>
      <point x="1133" y="1189" type="curve" smooth="yes"/>
      <point x="867" y="1189"/>
      <point x="732" y="1050.67"/>
      <point x="732" y="773" type="curve" smooth="yes"/>
      <point x="732" y="646.65"/>
      <point x="744" y="518.4"/>
      <point x="744" y="393" type="curve" smooth="yes"/>
      <point x="744" y="222.306"/>
      <point x="674" y="138"/>
      <point x="534" y="138" type="curve" smooth="yes"/>
      <point x="379" y="138"/>
      <point x="304" y="235.275"/>
      <point x="304" y="435" type="curve" smooth="yes"/>
      <point x="304" y="665" type="line" smooth="yes"/>
      <point x="304" y="867.142"/>
      <point x="366.185" y="1029.47"/>
      <point x="456" y="1153" type="curve"/>
      <point x="265" y="1153" type="line"/>
      <point x="169.268" y="1035.61"/>
      <point x="116" y="867.179"/>
      <point x="116" y="662" type="curve" smooth="yes"/>
      <point x="116" y="434" type="line" smooth="yes"/>
      <point x="116" y="127.378"/>
      <point x="256" y="-29"/>
      <point x="534" y="-29" type="curve" smooth="yes"/>
      <point x="798" y="-29"/>
      <point x="931" y="112.407"/>
      <point x="931" y="386" type="curve" smooth="yes"/>
      <point x="931" y="512.35"/>
      <point x="919" y="640.6"/>
      <point x="919" y="766" type="curve" smooth="yes"/>
      <point x="919" y="939.761"/>
      <point x="990" y="1023"/>
      <point x="1133" y="1023" type="curve" smooth="yes"/>
      <point x="1289" y="1023"/>
      <point x="1366" y="924.758"/>
      <point x="1366" y="720" type="curve" smooth="yes"/>
      <point x="1366" y="487" type="line" smooth="yes"/>
      <point x="1366" y="286.891"/>
      <point x="1305.82" y="123.537"/>
      <point x="1220" y="0" type="curve"/>
      <point x="1417" y="0" type="line"/>
      <point x="1504.74" y="113.322"/>
      <point x="1554" y="285.858"/>
      <point x="1554" y="488" type="curve" smooth="yes"/>
      <point x="1554" y="722" type="line" smooth="yes"/>
      <point x="1554" y="1033.67"/>
      <point x="1413" y="1189"/>
    </contour>
  </outline>
</glyph>
<glyph name="Ca.mlm" format="2">
  <advance width="1659"/>
  <unicode hex="0D1A"/>
  <outline>
    <contour>
      <point x="41" y="150" type="line"/>
      <point x="65" y="0" type="line"/>
      <point x="1415" y="0" type="line"/>
      <point x="1419" y="150" type="line"/>
    </contour>
    <contour>
      <point x="607" y="143" type="curve"/>
      <point x="773" y="112" type="line"/>
      <point x="927" y="179.886"/>
      <point x="996" y="318.698"/>
      <point x="996" y="495" type="curve" smooth="yes"/>
      <point x="996" y="518" type="line" smooth="yes"/>
      <point x="996" y="761.279"/>
      <point x="869" y="889"/>
      <point x="613" y="889" type="curve" smooth="yes"/>
      <point x="362" y="889"/>
      <point x="238" y="767.251"/>
      <point x="238" y="541" type="curve" smooth="yes"/>
      <point x="238" y="527" type="line" smooth="yes"/>
      <point x="238" y="447.837"/>
      <point x="253" y="387.18"/>
      <point x="278" y="344" type="curve"/>
      <point x="455" y="344" type="line"/>
      <point x="436" y="390.316"/>
      <point x="421" y="447.953"/>
      <point x="421" y="520" type="curve" smooth="yes"/>
      <point x="421" y="534" type="line" smooth="yes"/>
      <point x="421" y="661.316"/>
      <point x="484" y="726"/>
      <point x="612" y="726" type="curve" smooth="yes"/>
      <point x="742" y="726"/>
      <point x="808" y="654.325"/>
      <point x="808" y="512" type="curve" smooth="yes"/>
      <point x="808" y="492" type="line" smooth="yes"/>
      <point x="808" y="333.733"/>
      <point x="739" y="208.945"/>
    </contour>
    <contour>
      <point x="1326" y="1156" type="line"/>
      <point x="1326" y="0" type="line"/>
      <point x="1513" y="0" type="line"/>
      <point x="1513" y="1156" type="line"/>
    </contour>
  </outline>
</glyph>
<glyph name="Ja.mlm" format="2">
  <advance width="1824"/>
  <unicode hex="0D1C"/>
  <outline>
    <contour>
      <point x="1082" y="14" type="line"/>
      <point x="1169" y="-31"/>
      <point x="1276" y="-58"/>
      <point x="1393" y="-58" type="curve" smooth="yes"/>
      <point x="1605" y="-58"/>
      <point x="1709" y="28"/>
      <point x="1709" y="191" type="curve" smooth="yes"/>
      <point x="1709" y="199" type="line" smooth="yes"/>
      <point x="1709" y="326"/>
      <point x="1645" y="404"/>
      <point x="1512" y="427" type="curve"/>
      <point x="1503" y="430"/>
      <point x="1483" y="441"/>
      <point x="1472" y="444" type="curve" smooth="yes"/>
      <point x="1450" y="450"/>
      <point x="1425" y="451"/>
      <point x="1398" y="451" type="curve" smooth="yes"/>
      <point x="1244" y="451"/>
      <point x="1135" y="401"/>
      <point x="1010" y="336" type="curve" smooth="yes"/>
      <point x="735" y="194" type="line" smooth="yes"/>
      <point x="610" y="129"/>
      <point x="535" y="96"/>
      <point x="437" y="96" type="curve" smooth="yes"/>
      <point x="346" y="96"/>
      <point x="299" y="132"/>
      <point x="299" y="205" type="curve" smooth="yes"/>
      <point x="299" y="209" type="line" smooth="yes"/>
      <point x="299" y="274"/>
      <point x="335" y="313"/>
      <point x="408" y="318" type="curve"/>
      <point x="256" y="372" type="line"/>
      <point x="256" y="354" type="line"/>
      <point x="167" y="333"/>
      <point x="115" y="273"/>
      <point x="115" y="170" type="curve" smooth="yes"/>
      <point x="115" y="165" type="line" smooth="yes"/>
      <point x="115" y="19"/>
      <point x="216" y="-62"/>
      <point x="410" y="-62" type="curve" smooth="yes"/>
      <point x="560" y="-62"/>
      <point x="680" y="-14"/>
      <point x="813" y="59" type="curve" smooth="yes"/>
      <point x="1084" y="207" type="line" smooth="yes"/>
      <point x="1205" y="273"/>
      <point x="1290" y="305"/>
      <point x="1390" y="305" type="curve" smooth="yes"/>
      <point x="1481" y="305"/>
      <point x="1527" y="272"/>
      <point x="1527" y="201" type="curve" smooth="yes"/>
      <point x="1527" y="195" type="line" smooth="yes"/>
      <point x="1527" y="126"/>
      <point x="1477" y="90"/>
      <point x="1372" y="90" type="curve" smooth="yes"/>
      <point x="1251" y="90"/>
      <point x="1146" y="126"/>
      <point x="1059" y="172" type="curve"/>
    </contour>
    <contour>
      <point x="114" y="725" type="curve" smooth="yes"/>
      <point x="114" y="631" type="line" smooth="yes"/>
      <point x="114" y="477.389"/>
      <point x="168" y="381.382"/>
      <point x="289" y="345" type="curve"/>
      <point x="300" y="341"/>
      <point x="314" y="327"/>
      <point x="324" y="322" type="curve"/>
      <point x="354" y="312"/>
      <point x="389" y="312"/>
      <point x="427" y="312" type="curve" smooth="yes"/>
      <point x="629" y="312"/>
      <point x="731" y="409.055"/>
      <point x="731" y="588" type="curve" smooth="yes"/>
      <point x="731" y="628" type="line" smooth="yes"/>
      <point x="731" y="798.958"/>
      <point x="653" y="890"/>
      <point x="503" y="890" type="curve" smooth="yes"/>
      <point x="379" y="890"/>
      <point x="302" y="828"/>
      <point x="276" y="717" type="curve"/>
      <point x="285" y="666" type="line"/>
      <point x="310" y="719"/>
      <point x="361" y="749"/>
      <point x="434" y="749" type="curve" smooth="yes"/>
      <point x="513" y="749"/>
      <point x="557" y="700.932"/>
      <point x="557" y="614" type="curve" smooth="yes"/>
      <point x="557" y="587" type="line" smooth="yes"/>
      <point x="557" y="497.044"/>
      <point x="513" y="449"/>
      <point x="428" y="449" type="curve" smooth="yes"/>
      <point x="334" y="449"/>
      <point x="287" y="500.981"/>
      <point x="287" y="608" type="curve" smooth="yes"/>
      <point x="287" y="698" type="line"/>
      <point x="302" y="750" type="line"/>
      <point x="280" y="750" type="line"/>
      <point x="280" y="750" type="line" smooth="yes"/>
      <point x="280" y="939"/>
      <point x="391" y="1034"/>
      <point x="613" y="1034" type="curve" smooth="yes"/>
      <point x="826" y="1034"/>
      <point x="931" y="941"/>
      <point x="933" y="762" type="curve" smooth="yes"/>
      <point x="937" y="474" type="line"/>
      <point x="1113" y="493" type="line"/>
      <point x="1118" y="809" type="line" smooth="yes"/>
      <point x="1120" y="950"/>
      <point x="1179" y="1025"/>
      <point x="1317" y="1025" type="curve" smooth="yes"/>
      <point x="1454" y="1025"/>
      <point x="1518" y="949.697"/>
      <point x="1518" y="797" type="curve" smooth="yes"/>
      <point x="1518" y="702" type="line" smooth="yes"/>
      <point x="1518" y="551.13"/>
      <point x="1464" y="471.012"/>
      <point x="1355" y="445" type="curve"/>
      <point x="1550" y="404" type="line"/>
      <point x="1550" y="425" type="line"/>
      <point x="1664" y="467.419"/>
      <point x="1705" y="573.983"/>
      <point x="1705" y="724" type="curve" smooth="yes"/>
      <point x="1705" y="817" type="line" smooth="yes"/>
      <point x="1705" y="1061.57"/>
      <point x="1585" y="1189"/>
      <point x="1345" y="1189" type="curve" smooth="yes"/>
      <point x="1158" y="1189"/>
      <point x="1048" y="1111"/>
      <point x="1024" y="956" type="curve"/>
      <point x="1019" y="956" type="line"/>
      <point x="983" y="1107"/>
      <point x="839" y="1189"/>
      <point x="604" y="1189" type="curve" smooth="yes"/>
      <point x="277" y="1189"/>
      <point x="114" y="1031.98"/>
    </contour>
  </outline>
</glyph>
<glyph name="Nya.mlm" format="2">
  <advance width="2889"/>
  <unicode hex="0D1E"/>
  <outline>
    <contour>
      <point x="687" y="1189" type="curve" smooth="yes"/>
      <point x="304" y="1189"/>
      <point x="112" y="980"/>
      <point x="112" y="581" type="curve" smooth="yes"/>
      <point x="112" y="376" type="line" smooth="yes"/>
      <point x="112" y="107"/>
      <point x="237" y="-27"/>
      <point x="478" y="-27" type="curve" smooth="yes"/>
      <point x="712" y="-27"/>
      <point x="833" y="95"/>
      <point x="833" y="329" type="curve" smooth="yes"/>
      <point x="833" y="436" type="line" smooth="yes"/>
      <point x="833" y="655"/>
      <point x="736" y="763"/>
      <point x="562" y="763" type="curve" smooth="yes"/>
      <point x="406" y="763"/>
      <point x="311" y="685"/>
      <point x="283" y="542" type="curve"/>
      <point x="291" y="480" type="line"/>
      <point x="326.18" y="564.491"/>
      <point x="391.513" y="607"/>
      <point x="484" y="607" type="curve" smooth="yes"/>
      <point x="593" y="607"/>
      <point x="650" y="543"/>
      <point x="650" y="419" type="curve" smooth="yes"/>
      <point x="650" y="330" type="line" smooth="yes"/>
      <point x="650" y="195"/>
      <point x="591" y="129"/>
      <point x="478" y="129" type="curve" smooth="yes"/>
      <point x="356" y="129"/>
      <point x="295" y="200"/>
      <point x="295" y="363" type="curve" smooth="yes"/>
      <point x="295" y="513" type="line"/>
      <point x="309" y="589" type="line"/>
      <point x="289" y="589" type="line"/>
      <point x="289" y="591" type="line"/>
      <point x="289" y="882"/>
      <point x="426" y="1026"/>
      <point x="693" y="1026" type="curve" smooth="yes"/>
      <point x="949" y="1026"/>
      <point x="1078" y="911"/>
      <point x="1078" y="689" type="curve" smooth="yes"/>
      <point x="1078" y="579" type="line"/>
      <point x="1167" y="579" type="line"/>
      <point x="1169" y="899" type="line"/>
      <point x="1127" y="1087"/>
      <point x="963" y="1189"/>
    </contour>
    <contour>
      <point x="1078" y="5" type="line"/>
      <point x="1265" y="5" type="line"/>
      <point x="1265" y="669" type="line"/>
      <point x="1078" y="652" type="line"/>
    </contour>
    <contour>
      <point x="1612" y="1188" type="curve" smooth="yes"/>
      <point x="1360" y="1188"/>
      <point x="1213" y="1086"/>
      <point x="1174" y="899" type="curve"/>
      <point x="1140" y="899" type="line"/>
      <point x="1146" y="578" type="line"/>
      <point x="1265" y="562" type="line"/>
      <point x="1265" y="684" type="line" smooth="yes"/>
      <point x="1265" y="917"/>
      <point x="1388" y="1035"/>
      <point x="1628" y="1035" type="curve" smooth="yes"/>
      <point x="1701" y="1035"/>
      <point x="1765" y="1022"/>
      <point x="1818" y="997" type="curve"/>
      <point x="1821.1" y="995.79"/>
      <point x="1879.56" y="972.953"/>
      <point x="1882" y="972" type="curve"/>
      <point x="2023" y="896.492"/>
      <point x="2090" y="757.316"/>
      <point x="2090" y="547" type="curve" smooth="yes"/>
      <point x="2090" y="376" type="line" smooth="yes"/>
      <point x="2090" y="210.234"/>
      <point x="2030" y="131"/>
      <point x="1909" y="131" type="curve" smooth="yes"/>
      <point x="1788" y="131"/>
      <point x="1727" y="210.234"/>
      <point x="1727" y="376" type="curve" smooth="yes"/>
      <point x="1727" y="547" type="line" smooth="yes"/>
      <point x="1727" y="757.316"/>
      <point x="1794" y="896.492"/>
      <point x="1935" y="972" type="curve"/>
      <point x="1937.44" y="972.953"/>
      <point x="1995.9" y="995.79"/>
      <point x="1999" y="997" type="curve"/>
      <point x="2055" y="1022"/>
      <point x="2119" y="1035"/>
      <point x="2194" y="1035" type="curve" smooth="yes"/>
      <point x="2459" y="1035"/>
      <point x="2587" y="892.722"/>
      <point x="2587" y="601" type="curve" smooth="yes"/>
      <point x="2587" y="453" type="line" smooth="yes"/>
      <point x="2587" y="272.005"/>
      <point x="2544" y="120.664"/>
      <point x="2464" y="0" type="curve"/>
      <point x="2661" y="0" type="line"/>
      <point x="2739" y="108.387"/>
      <point x="2775" y="271.991"/>
      <point x="2775" y="454" type="curve" smooth="yes"/>
      <point x="2775" y="600" type="line" smooth="yes"/>
      <point x="2775" y="990.644"/>
      <point x="2594" y="1188"/>
      <point x="2223" y="1188" type="curve" smooth="yes"/>
      <point x="2060" y="1188"/>
      <point x="1937" y="1142"/>
      <point x="1861" y="1078" type="curve"/>
      <point x="1795" y="1039" type="line"/>
      <point x="1624" y="945.236"/>
      <point x="1541" y="786.13"/>
      <point x="1541" y="547" type="curve" smooth="yes"/>
      <point x="1541" y="371" type="line" smooth="yes"/>
      <point x="1541" y="109.428"/>
      <point x="1664" y="-27"/>
      <point x="1909" y="-27" type="curve" smooth="yes"/>
      <point x="2153" y="-27"/>
      <point x="2276" y="109.428"/>
      <point x="2276" y="371" type="curve" smooth="yes"/>
      <point x="2276" y="547" type="line" smooth="yes"/>
      <point x="2276" y="786.13"/>
      <point x="2193" y="945.236"/>
      <point x="2022" y="1039" type="curve"/>
      <point x="1954" y="1078" type="line"/>
      <point x="1883" y="1142"/>
      <point x="1769" y="1188"/>
    </contour>
  </outline>
</glyph>
<glyph name="Ttha.mlm" format="2">
  <advance width="1234"/>
  <unicode hex="0D20"/>
  <outline>
    <contour>
      <point x="618" y="135" type="curve" smooth="yes"/>
      <point x="404" y="135"/>
      <point x="297" y="257.071"/>
      <point x="297" y="502" type="curve" smooth="yes"/>
      <point x="297" y="653" type="line" smooth="yes"/>
      <point x="297" y="902.958"/>
      <point x="404" y="1025"/>
      <point x="618" y="1025" type="curve" smooth="yes"/>
      <point x="832" y="1025"/>
      <point x="937" y="902.958"/>
      <point x="937" y="653" type="curve" smooth="yes"/>
      <point x="937" y="502" type="line" smooth="yes"/>
      <point x="937" y="257.071"/>
      <point x="832" y="135"/>
    </contour>
    <contour>
      <point x="618" y="-32" type="curve" smooth="yes"/>
      <point x="955" y="-32"/>
      <point x="1125" y="147.106"/>
      <point x="1125" y="500" type="curve" smooth="yes"/>
      <point x="1125" y="654" type="line" smooth="yes"/>
      <point x="1125" y="1013.95"/>
      <point x="955" y="1192"/>
      <point x="618" y="1192" type="curve" smooth="yes"/>
      <point x="281" y="1192"/>
      <point x="109" y="1013.95"/>
      <point x="109" y="654" type="curve" smooth="yes"/>
      <point x="109" y="500" type="line" smooth="yes"/>
      <point x="109" y="147.106"/>
      <point x="281" y="-32"/>
    </contour>
  </outline>
</glyph>
<glyph name="Dda.mlm" format="2">
  <advance width="2296"/>
  <unicode hex="0D21"/>
  <outline>
    <contour>
      <point x="1529" y="485" type="line"/>
      <point x="1529" y="1146" type="line"/>
      <point x="1342" y="1146" type="line"/>
      <point x="1342" y="482" type="line"/>
    </contour>
    <contour>
      <point x="1106" y="-28" type="curve" smooth="yes"/>
      <point x="1301" y="-28"/>
      <point x="1410" y="67"/>
      <point x="1433" y="225" type="curve"/>
      <point x="1483" y="225" type="line"/>
      <point x="1487" y="589" type="line"/>
      <point x="1342" y="610" type="line"/>
      <point x="1342" y="403" type="line" smooth="yes"/>
      <point x="1342" y="229"/>
      <point x="1274" y="143"/>
      <point x="1134" y="143" type="curve" smooth="yes"/>
      <point x="995" y="143"/>
      <point x="925" y="226.265"/>
      <point x="925" y="398" type="curve" smooth="yes"/>
      <point x="925" y="521.35"/>
      <point x="936" y="645.65"/>
      <point x="936" y="769" type="curve" smooth="yes"/>
      <point x="936" y="1048.66"/>
      <point x="802" y="1189"/>
      <point x="537" y="1189" type="curve" smooth="yes"/>
      <point x="256" y="1189"/>
      <point x="116" y="1034.7"/>
      <point x="116" y="722" type="curve" smooth="yes"/>
      <point x="116" y="488" type="line" smooth="yes"/>
      <point x="116" y="286.879"/>
      <point x="166.239" y="113.322"/>
      <point x="254" y="0" type="curve"/>
      <point x="451" y="0" type="line"/>
      <point x="364.191" y="123.537"/>
      <point x="304" y="287.912"/>
      <point x="304" y="487" type="curve" smooth="yes"/>
      <point x="304" y="720" type="line" smooth="yes"/>
      <point x="304" y="924.758"/>
      <point x="381" y="1023"/>
      <point x="537" y="1023" type="curve" smooth="yes"/>
      <point x="680" y="1023"/>
      <point x="749" y="936.732"/>
      <point x="749" y="759" type="curve" smooth="yes"/>
      <point x="749" y="634.599"/>
      <point x="738" y="507.35"/>
      <point x="738" y="382" type="curve" smooth="yes"/>
      <point x="738" y="110.375"/>
      <point x="863" y="-28"/>
    </contour>
    <contour>
      <point x="1438" y="225" type="line"/>
      <point x="1464" y="66"/>
      <point x="1578" y="-28"/>
      <point x="1780" y="-28" type="curve" smooth="yes"/>
      <point x="2049" y="-28"/>
      <point x="2180" y="131.333"/>
      <point x="2180" y="450" type="curve" smooth="yes"/>
      <point x="2180" y="669" type="line" smooth="yes"/>
      <point x="2180" y="870.156"/>
      <point x="2129.75" y="1036.59"/>
      <point x="2041" y="1153" type="curve"/>
      <point x="1850" y="1153" type="line"/>
      <point x="1932.84" y="1031.47"/>
      <point x="1992" y="869.098"/>
      <point x="1992" y="672" type="curve" smooth="yes"/>
      <point x="1992" y="452" type="line" smooth="yes"/>
      <point x="1992" y="244.278"/>
      <point x="1916" y="143"/>
      <point x="1753" y="143" type="curve" smooth="yes"/>
      <point x="1602" y="143"/>
      <point x="1529" y="231"/>
      <point x="1529" y="413" type="curve" smooth="yes"/>
      <point x="1529" y="608" type="line"/>
      <point x="1435" y="608" type="line"/>
    </contour>
  </outline>
</glyph>
<glyph name="Tha.mlm" format="2">
  <advance width="1680"/>
  <unicode hex="0D25"/>
  <outline>
    <contour>
      <point x="333" y="0" type="line"/>
      <point x="333" y="1156" type="line"/>
      <point x="146" y="1156" type="line"/>
      <point x="146" y="0" type="line"/>
    </contour>
    <contour>
      <point x="262" y="150" type="line"/>
      <point x="262" y="0" type="line"/>
      <point x="805" y="0" type="line"/>
      <point x="805" y="150" type="line"/>
    </contour>
    <contour>
      <point x="815" y="150" type="line"/>
      <point x="758" y="0" type="line"/>
      <point x="1544" y="0" type="line"/>
      <point x="1544" y="748" type="line" smooth="yes"/>
      <point x="1544" y="1044.39"/>
      <point x="1406" y="1190"/>
      <point x="1127" y="1190" type="curve" smooth="yes"/>
      <point x="849" y="1190"/>
      <point x="708" y="1043.36"/>
      <point x="708" y="748" type="curve" smooth="yes"/>
      <point x="708" y="0" type="line"/>
      <point x="895" y="0" type="line"/>
      <point x="895" y="749" type="line" smooth="yes"/>
      <point x="895" y="934.441"/>
      <point x="970" y="1024"/>
      <point x="1126" y="1024" type="curve" smooth="yes"/>
      <point x="1282" y="1024"/>
      <point x="1357" y="934.441"/>
      <point x="1357" y="749" type="curve" smooth="yes"/>
      <point x="1357" y="150" type="line"/>
    </contour>
  </outline>
</glyph>
<glyph name="Nnna.mlm" format="2">
  <advance width="2058"/>
  <unicode hex="0D29"/>
  <outline>
    <contour>
      <point x="1078" y="5" type="line"/>
      <point x="1265" y="5" type="line"/>
      <point x="1265" y="683" type="line"/>
      <point x="1078" y="648" type="line"/>
    </contour>
    <contour>
      <point x="686" y="1189" type="curve" smooth="yes"/>
      <point x="303" y="1189"/>
      <point x="112" y="979.487"/>
      <point x="112" y="581" type="curve" smooth="yes"/>
      <point x="112" y="381" type="line" smooth="yes"/>
      <point x="112" y="108.317"/>
      <point x="237" y="-27"/>
      <point x="478" y="-27" type="curve" smooth="yes"/>
      <point x="712" y="-27"/>
      <point x="833" y="96.4188"/>
      <point x="833" y="334" type="curve" smooth="yes"/>
      <point x="833" y="431" type="line" smooth="yes"/>
      <point x="833" y="653.708"/>
      <point x="736" y="763"/>
      <point x="562" y="763" type="curve" smooth="yes"/>
      <point x="406" y="763"/>
      <point x="311" y="685"/>
      <point x="283" y="542" type="curve"/>
      <point x="291" y="480" type="line"/>
      <point x="326.18" y="564.491"/>
      <point x="391.513" y="607"/>
      <point x="484" y="607" type="curve" smooth="yes"/>
      <point x="593" y="607"/>
      <point x="650" y="541.612"/>
      <point x="650" y="414" type="curve" smooth="yes"/>
      <point x="650" y="335" type="line" smooth="yes"/>
      <point x="650" y="196.265"/>
      <point x="591" y="129"/>
      <point x="478" y="129" type="curve" smooth="yes"/>
      <point x="356" y="129"/>
      <point x="295" y="201.013"/>
      <point x="295" y="368" type="curve" smooth="yes"/>
      <point x="295" y="513" type="line"/>
      <point x="309" y="589" type="line"/>
      <point x="289" y="589" type="line"/>
      <point x="289" y="591" type="line"/>
      <point x="289" y="882.014"/>
      <point x="426" y="1026"/>
      <point x="695" y="1026" type="curve" smooth="yes"/>
      <point x="950" y="1026"/>
      <point x="1078" y="913"/>
      <point x="1078" y="696" type="curve" smooth="yes"/>
      <point x="1078" y="581" type="line"/>
      <point x="1167" y="581" type="line"/>
      <point x="1166" y="916" type="line"/>
      <point x="1122" y="1092"/>
      <point x="960" y="1189"/>
    </contour>
    <contour>
      <point x="1501" y="1019" type="curve" smooth="yes"/>
      <point x="1673" y="1019"/>
      <point x="1754" y="914.699"/>
      <point x="1754" y="703" type="curve" smooth="yes"/>
      <point x="1754" y="480" type="line" smooth="yes"/>
      <point x="1754" y="283.915"/>
      <point x="1697.78" y="121.532"/>
      <point x="1616" y="0" type="curve"/>
      <point x="1812" y="0" type="line"/>
      <point x="1896.7" y="113.357"/>
      <point x="1942" y="281.86"/>
      <point x="1942" y="481" type="curve" smooth="yes"/>
      <point x="1942" y="703" type="line" smooth="yes"/>
      <point x="1942" y="1026.66"/>
      <point x="1805" y="1189"/>
      <point x="1526" y="1189" type="curve" smooth="yes"/>
      <point x="1317" y="1189"/>
      <point x="1196" y="1095"/>
      <point x="1171" y="916" type="curve"/>
      <point x="1122" y="916" type="line"/>
      <point x="1122" y="560" type="line"/>
      <point x="1265" y="555" type="line"/>
      <point x="1265" y="744" type="line" smooth="yes"/>
      <point x="1265" y="928"/>
      <point x="1343" y="1019"/>
    </contour>
  </outline>
</glyph>
<glyph name="Ba.mlm" format="2">
  <advance width="2614"/>
  <unicode hex="0D2C"/>
  <outline>
    <contour>
      <point x="1078" y="5" type="line"/>
      <point x="1265" y="5" type="line"/>
      <point x="1265" y="683" type="line"/>
      <point x="1078" y="648" type="line"/>
    </contour>
    <contour>
      <point x="686" y="1189" type="curve" smooth="yes"/>
      <point x="303" y="1189"/>
      <point x="112" y="979.487"/>
      <point x="112" y="581" type="curve" smooth="yes"/>
      <point x="112" y="381" type="line" smooth="yes"/>
      <point x="112" y="108.317"/>
      <point x="237" y="-27"/>
      <point x="478" y="-27" type="curve" smooth="yes"/>
      <point x="712" y="-27"/>
      <point x="833" y="96.4188"/>
      <point x="833" y="334" type="curve" smooth="yes"/>
      <point x="833" y="431" type="line" smooth="yes"/>
      <point x="833" y="653.708"/>
      <point x="736" y="763"/>
      <point x="562" y="763" type="curve" smooth="yes"/>
      <point x="406" y="763"/>
      <point x="311" y="685"/>
      <point x="283" y="542" type="curve"/>
      <point x="291" y="480" type="line"/>
      <point x="326.18" y="564.491"/>
      <point x="391.513" y="607"/>
      <point x="484" y="607" type="curve" smooth="yes"/>
      <point x="593" y="607"/>
      <point x="650" y="541.612"/>
      <point x="650" y="414" type="curve" smooth="yes"/>
      <point x="650" y="335" type="line" smooth="yes"/>
      <point x="650" y="196.265"/>
      <point x="591" y="129"/>
      <point x="478" y="129" type="curve" smooth="yes"/>
      <point x="356" y="129"/>
      <point x="295" y="201.013"/>
      <point x="295" y="368" type="curve" smooth="yes"/>
      <point x="295" y="513" type="line"/>
      <point x="309" y="589" type="line"/>
      <point x="289" y="589" type="line"/>
      <point x="289" y="591" type="line"/>
      <point x="289" y="882.014"/>
      <point x="426" y="1026"/>
      <point x="695" y="1026" type="curve" smooth="yes"/>
      <point x="950" y="1026"/>
      <point x="1078" y="913"/>
      <point x="1078" y="696" type="curve" smooth="yes"/>
      <point x="1078" y="581" type="line"/>
      <point x="1167" y="581" type="line"/>
      <point x="1166" y="916" type="line"/>
      <point x="1122" y="1092"/>
      <point x="960" y="1189"/>
    </contour>
    <contour>
      <point x="1501" y="1019" type="curve" smooth="yes"/>
      <point x="1674" y="1019"/>
      <point x="1756" y="915.711"/>
      <point x="1756" y="705" type="curve" smooth="yes"/>
      <point x="1756" y="482" type="line" smooth="yes"/>
      <point x="1756" y="290.944"/>
      <point x="1700.8" y="131.56"/>
      <point x="1622" y="11" type="curve"/>
      <point x="1622" y="0" type="line"/>
      <point x="1785" y="0" type="line"/>
      <point x="1898.98" y="121.505"/>
      <point x="1944" y="279.768"/>
      <point x="1944" y="485" type="curve" smooth="yes"/>
      <point x="1944" y="718" type="line" smooth="yes"/>
      <point x="1944" y="1032.68"/>
      <point x="1807" y="1189"/>
      <point x="1525" y="1189" type="curve" smooth="yes"/>
      <point x="1318" y="1189"/>
      <point x="1197" y="1096"/>
      <point x="1171" y="916" type="curve"/>
      <point x="1122" y="916" type="line"/>
      <point x="1122" y="560" type="line"/>
      <point x="1265" y="555" type="line"/>
      <point x="1265" y="744" type="line" smooth="yes"/>
      <point x="1265" y="928"/>
      <point x="1342" y="1019"/>
    </contour>
    <contour>
      <point x="2281" y="1156" type="line"/>
      <point x="2281" y="0" type="line"/>
      <point x="2468" y="0" type="line"/>
      <point x="2468" y="1156" type="line"/>
    </contour>
    <contour>
      <point x="1787" y="148" type="line"/>
      <point x="1623" y="0" type="line"/>
      <point x="2438" y="0" type="line"/>
      <point x="2438" y="148" type="line"/>
    </contour>
  </outline>
</glyph>
<glyph name="Ma.mlm" format="2">
  <advance width="1414"/>
  <unicode hex="0D2E"/>
  <outline>
    <contour>
      <point x="228" y="145" type="line"/>
      <point x="156" y="0" type="line"/>
      <point x="1254" y="0" type="line"/>
      <point x="1220" y="145" type="line"/>
    </contour>
    <contour>
      <point x="708" y="1035" type="curve" smooth="yes"/>
      <point x="967" y="1035"/>
      <point x="1096" y="904.88"/>
      <point x="1096" y="618" type="curve" smooth="yes"/>
      <point x="1096" y="0" type="line"/>
      <point x="1278" y="0" type="line"/>
      <point x="1278" y="617" type="line" smooth="yes"/>
      <point x="1278" y="997.619"/>
      <point x="1091" y="1192"/>
      <point x="708" y="1192" type="curve" smooth="yes"/>
      <point x="326" y="1192"/>
      <point x="137" y="997.613"/>
      <point x="137" y="618" type="curve" smooth="yes"/>
      <point x="137" y="0" type="line"/>
      <point x="318" y="0" type="line"/>
      <point x="318" y="618" type="line" smooth="yes"/>
      <point x="318" y="907.953"/>
      <point x="439" y="1035"/>
    </contour>
    <contour>
      <point x="846" y="652" type="line" smooth="yes"/>
      <point x="846" y="878"/>
      <point x="732.598" y="1005"/>
      <point x="525" y="1005" type="curve" smooth="yes"/>
      <point x="486.185" y="1005"/>
      <point x="439.284" y="1000"/>
      <point x="394" y="980" type="curve"/>
      <point x="345" y="868" type="line"/>
      <point x="383.246" y="888.6"/>
      <point x="423.231" y="895"/>
      <point x="458" y="895" type="curve" smooth="yes"/>
      <point x="594.13" y="895"/>
      <point x="660" y="805.741"/>
      <point x="660" y="654" type="curve" smooth="yes"/>
      <point x="660" y="631" type="line" smooth="yes"/>
      <point x="660" y="422"/>
      <point x="561" y="253"/>
      <point x="406" y="139" type="curve"/>
      <point x="571" y="106" type="line"/>
      <point x="742" y="215"/>
      <point x="846" y="402"/>
      <point x="846" y="628" type="curve" smooth="yes"/>
    </contour>
  </outline>
</glyph>
<glyph name="La.mlm" format="2">
  <advance width="1623"/>
  <unicode hex="0D32"/>
  <outline>
    <contour>
      <point x="804" y="564" type="line"/>
      <point x="322" y="564" type="line"/>
      <point x="322" y="757" type="line" smooth="yes"/>
      <point x="322" y="940.023"/>
      <point x="403" y="1031"/>
      <point x="564" y="1031" type="curve" smooth="yes"/>
      <point x="725" y="1031"/>
      <point x="804" y="940.023"/>
      <point x="804" y="757" type="curve" smooth="yes"/>
    </contour>
    <contour>
      <point x="137" y="0" type="line"/>
      <point x="1477" y="0" type="line"/>
      <point x="1477" y="1156" type="line"/>
      <point x="1290" y="1156" type="line"/>
      <point x="1290" y="148" type="line"/>
      <point x="322" y="148" type="line"/>
      <point x="322" y="417" type="line"/>
      <point x="988" y="417" type="line"/>
      <point x="988" y="754" type="line" smooth="yes"/>
      <point x="988" y="1041.89"/>
      <point x="845" y="1190"/>
      <point x="563" y="1190" type="curve" smooth="yes"/>
      <point x="281" y="1190"/>
      <point x="137" y="1041.89"/>
      <point x="137" y="754" type="curve" smooth="yes"/>
    </contour>
  </outline>
</glyph>
<glyph name="Sha.mlm" format="2">
  <advance width="1961"/>
  <unicode hex="0D36"/>
  <outline>
    <contour>
      <point x="1280" y="1029" type="curve" smooth="yes"/>
      <point x="1540" y="1029"/>
      <point x="1670" y="877.052"/>
      <point x="1670" y="639" type="curve"/>
      <point x="1670" y="639" type="line"/>
      <point x="1648" y="639" type="line"/>
      <point x="1667" y="573" type="line"/>
      <point x="1667" y="366" type="line" smooth="yes"/>
      <point x="1667" y="202.552"/>
      <point x="1608.33" y="129"/>
      <point x="1491" y="129" type="curve" smooth="yes"/>
      <point x="1375" y="129"/>
      <point x="1312" y="198.709"/>
      <point x="1312" y="333" type="curve" smooth="yes"/>
      <point x="1312" y="428" type="line" smooth="yes"/>
      <point x="1312" y="566.358"/>
      <point x="1371" y="634"/>
      <point x="1489" y="634" type="curve" smooth="yes"/>
      <point x="1567" y="634"/>
      <point x="1628" y="602.125"/>
      <point x="1671" y="549" type="curve"/>
      <point x="1674" y="609" type="line"/>
      <point x="1641" y="720.121"/>
      <point x="1556" y="787"/>
      <point x="1420" y="787" type="curve" smooth="yes"/>
      <point x="1233" y="787"/>
      <point x="1129" y="667.29"/>
      <point x="1129" y="437" type="curve" smooth="yes"/>
      <point x="1129" y="332" type="line" smooth="yes"/>
      <point x="1129" y="96.7232"/>
      <point x="1255" y="-27"/>
      <point x="1490" y="-27" type="curve" smooth="yes"/>
      <point x="1728" y="-27"/>
      <point x="1850" y="106.667"/>
      <point x="1850" y="374" type="curve" smooth="yes"/>
      <point x="1850" y="607" type="line" smooth="yes"/>
      <point x="1850" y="992.293"/>
      <point x="1658" y="1192"/>
      <point x="1276" y="1192" type="curve" smooth="yes"/>
      <point x="894" y="1192"/>
      <point x="703" y="1004.61"/>
      <point x="703" y="640" type="curve" smooth="yes"/>
      <point x="703" y="563.015"/>
      <point x="713" y="461.913"/>
      <point x="713" y="384" type="curve" smooth="yes"/>
      <point x="713" y="219.305"/>
      <point x="649" y="138"/>
      <point x="518" y="138" type="curve" smooth="yes"/>
      <point x="375" y="138"/>
      <point x="304" y="231.261"/>
      <point x="304" y="424" type="curve" smooth="yes"/>
      <point x="304" y="656" type="line" smooth="yes"/>
      <point x="304" y="861.127"/>
      <point x="366.185" y="1027.47"/>
      <point x="456" y="1153" type="curve"/>
      <point x="265" y="1153" type="line"/>
      <point x="168.301" y="1033.61"/>
      <point x="116" y="862.184"/>
      <point x="116" y="653" type="curve" smooth="yes"/>
      <point x="116" y="422" type="line" smooth="yes"/>
      <point x="116" y="122.356"/>
      <point x="251" y="-29"/>
      <point x="518" y="-29" type="curve" smooth="yes"/>
      <point x="772" y="-29"/>
      <point x="900" y="107.393"/>
      <point x="900" y="373" type="curve" smooth="yes"/>
      <point x="900" y="450.869"/>
      <point x="890" y="550.985"/>
      <point x="890" y="627" type="curve" smooth="yes"/>
      <point x="890" y="896.709"/>
      <point x="1020" y="1029"/>
    </contour>
  </outline>
</glyph>
<glyph name="Ssa.mlm" format="2">
  <advance width="2292"/>
  <unicode hex="0D37"/>
  <outline>
    <contour>
      <point x="499" y="781" type="curve" smooth="yes"/>
      <point x="236" y="781"/>
      <point x="103" y="643.948"/>
      <point x="103" y="371" type="curve" smooth="yes"/>
      <point x="103" y="304" type="line" smooth="yes"/>
      <point x="103" y="178.943"/>
      <point x="127" y="72.1873"/>
      <point x="176" y="0" type="curve"/>
      <point x="365" y="0" type="line"/>
      <point x="318" y="78.2876"/>
      <point x="289" y="178.943"/>
      <point x="289" y="304" type="curve" smooth="yes"/>
      <point x="289" y="368" type="line" smooth="yes"/>
      <point x="289" y="535.975"/>
      <point x="358" y="618"/>
      <point x="498" y="618" type="curve" smooth="yes"/>
      <point x="640" y="618"/>
      <point x="710" y="535.975"/>
      <point x="710" y="368" type="curve" smooth="yes"/>
      <point x="710" y="304" type="line" smooth="yes"/>
      <point x="710" y="184.969"/>
      <point x="680" y="87.3021"/>
      <point x="628" y="11" type="curve"/>
      <point x="628" y="0" type="line"/>
      <point x="771" y="0" type="line"/>
      <point x="852.693" y="77.2338"/>
      <point x="896" y="178.857"/>
      <point x="896" y="313" type="curve" smooth="yes"/>
      <point x="896" y="386" type="line" smooth="yes"/>
      <point x="896" y="648.946"/>
      <point x="764" y="781"/>
    </contour>
    <contour>
      <point x="691" y="0" type="line"/>
      <point x="2146" y="0" type="line"/>
      <point x="2146" y="1156" type="line"/>
      <point x="1959" y="1156" type="line"/>
      <point x="1959" y="143" type="line"/>
      <point x="806" y="143" type="line"/>
    </contour>
    <contour>
      <point x="1508" y="794" type="line" smooth="yes"/>
      <point x="1508" y="690.934"/>
      <point x="1489.85" y="612.118"/>
      <point x="1444" y="504" type="curve" smooth="yes"/>
      <point x="1439.63" y="493.707"/>
      <point x="1417.73" y="439.128"/>
      <point x="1413" y="429" type="curve" smooth="yes"/>
      <point x="1262" y="106" type="line"/>
      <point x="1454" y="106" type="line"/>
      <point x="1601" y="425" type="line"/>
      <point x="1606" y="435"/>
      <point x="1619" y="487"/>
      <point x="1624" y="496" type="curve"/>
      <point x="1672.88" y="606.065"/>
      <point x="1693" y="691.896"/>
      <point x="1693" y="806" type="curve" smooth="yes"/>
      <point x="1693" y="852" type="line" smooth="yes"/>
      <point x="1693" y="1073.98"/>
      <point x="1576" y="1189"/>
      <point x="1341" y="1189" type="curve" smooth="yes"/>
      <point x="1107.99" y="1189"/>
      <point x="989" y="1068.97"/>
      <point x="989" y="839" type="curve" smooth="yes"/>
      <point x="989" y="795" type="line" smooth="yes"/>
      <point x="989" y="539.026"/>
      <point x="1145.98" y="406"/>
      <point x="1450" y="406" type="curve" smooth="yes"/>
      <point x="1479" y="406" type="line" smooth="yes"/>
      <point x="1503" y="406"/>
      <point x="1532" y="405.995"/>
      <point x="1558" y="407" type="curve" smooth="yes"/>
      <point x="1713" y="412.994"/>
      <point x="1852" y="450"/>
      <point x="1980" y="517" type="curve"/>
      <point x="1975" y="666" type="line"/>
      <point x="1864" y="605"/>
      <point x="1734" y="568"/>
      <point x="1596" y="559" type="curve"/>
      <point x="1565" y="556"/>
      <point x="1532" y="556"/>
      <point x="1502" y="556" type="curve" smooth="yes"/>
      <point x="1454" y="556" type="line" smooth="yes"/>
      <point x="1267.99" y="556"/>
      <point x="1173" y="632.958"/>
      <point x="1173" y="797" type="curve" smooth="yes"/>
      <point x="1173" y="839" type="line" smooth="yes"/>
      <point x="1173" y="969"/>
      <point x="1229" y="1034"/>
      <point x="1341" y="1034" type="curve" smooth="yes"/>
      <point x="1452.01" y="1034"/>
      <point x="1508" y="968.995"/>
      <point x="1508" y="840" type="curve" smooth="yes"/>
    </contour>
  </outline>
</glyph>
<glyph name="Sa.mlm" format="2">
  <advance width="2318"/>
  <unicode hex="0D38"/>
  <outline>
    <contour>
      <point x="116" y="703" type="curve" smooth="yes"/>
      <point x="116" y="481" type="line" smooth="yes"/>
      <point x="116" y="281.86"/>
      <point x="161.244" y="113.357"/>
      <point x="242" y="0" type="curve"/>
      <point x="439" y="0" type="line"/>
      <point x="361.143" y="121.532"/>
      <point x="304" y="283.915"/>
      <point x="304" y="480" type="curve" smooth="yes"/>
      <point x="304" y="703" type="line" smooth="yes"/>
      <point x="304" y="914.699"/>
      <point x="385" y="1019"/>
      <point x="551" y="1019" type="curve" smooth="yes"/>
      <point x="706" y="1019"/>
      <point x="779" y="928"/>
      <point x="779" y="745" type="curve" smooth="yes"/>
      <point x="779" y="545" type="line"/>
      <point x="871" y="542" type="line"/>
      <point x="871" y="928" type="line"/>
      <point x="843" y="1092"/>
      <point x="733" y="1189"/>
      <point x="526" y="1189" type="curve" smooth="yes"/>
      <point x="252" y="1189"/>
      <point x="116" y="1026.66"/>
    </contour>
    <contour>
      <point x="779" y="670" type="line"/>
      <point x="779" y="5" type="line"/>
      <point x="966" y="5" type="line"/>
      <point x="966" y="670" type="line"/>
    </contour>
    <contour>
      <point x="1185" y="1019" type="curve" smooth="yes"/>
      <point x="1332" y="1019"/>
      <point x="1404" y="928.615"/>
      <point x="1404" y="752" type="curve" smooth="yes"/>
      <point x="1404" y="634.596"/>
      <point x="1393" y="514.351"/>
      <point x="1393" y="396" type="curve" smooth="yes"/>
      <point x="1393" y="117.446"/>
      <point x="1529" y="-29"/>
      <point x="1795" y="-29" type="curve" smooth="yes"/>
      <point x="2068" y="-29"/>
      <point x="2202" y="126.363"/>
      <point x="2202" y="433" type="curve" smooth="yes"/>
      <point x="2202" y="662" type="line" smooth="yes"/>
      <point x="2202" y="867.179"/>
      <point x="2149.68" y="1035.61"/>
      <point x="2053" y="1153" type="curve"/>
      <point x="1862" y="1153" type="line"/>
      <point x="1952.78" y="1029.47"/>
      <point x="2014" y="867.142"/>
      <point x="2014" y="665" type="curve" smooth="yes"/>
      <point x="2014" y="434" type="line" smooth="yes"/>
      <point x="2014" y="234.252"/>
      <point x="1943" y="138"/>
      <point x="1795" y="138" type="curve" smooth="yes"/>
      <point x="1651" y="138"/>
      <point x="1580" y="228.333"/>
      <point x="1580" y="409" type="curve" smooth="yes"/>
      <point x="1580" y="526.369"/>
      <point x="1591" y="645.631"/>
      <point x="1591" y="763" type="curve" smooth="yes"/>
      <point x="1591" y="1044.61"/>
      <point x="1465" y="1189"/>
      <point x="1211" y="1189" type="curve" smooth="yes"/>
      <point x="1010" y="1189"/>
      <point x="901" y="1092"/>
      <point x="876" y="928" type="curve"/>
      <point x="825" y="928" type="line"/>
      <point x="822" y="564" type="line"/>
      <point x="966" y="552" type="line"/>
      <point x="966" y="754" type="line" smooth="yes"/>
      <point x="966" y="931"/>
      <point x="1037" y="1019"/>
    </contour>
  </outline>
</glyph>
<glyph name="matraU.mlm" format="2">
  <advance width="842"/>
  <unicode hex="0D41"/>
  <outline>
    <contour>
      <point x="400" y="-208" type="curve" smooth="yes"/>
      <point x="285" y="-208"/>
      <point x="226" y="-142.616"/>
      <point x="226" y="-19" type="curve" smooth="yes"/>
      <point x="226" y="22" type="line" smooth="yes"/>
      <point x="226" y="145.63"/>
      <point x="285" y="210"/>
      <point x="400" y="210" type="curve" smooth="yes"/>
      <point x="516" y="210"/>
      <point x="574" y="145.63"/>
      <point x="574" y="22" type="curve" smooth="yes"/>
      <point x="574" y="-19" type="line" smooth="yes"/>
      <point x="574" y="-142.616"/>
      <point x="516" y="-208"/>
    </contour>
    <contour>
      <point x="399" y="366" type="curve" smooth="yes"/>
      <point x="170" y="366"/>
      <point x="49" y="248.639"/>
      <point x="49" y="21" type="curve" smooth="yes"/>
      <point x="49" y="-19" type="line" smooth="yes"/>
      <point x="49" y="-251.667"/>
      <point x="170" y="-368"/>
      <point x="400" y="-368" type="curve" smooth="yes"/>
      <point x="631" y="-368"/>
      <point x="751" y="-252.663"/>
      <point x="751" y="-23" type="curve" smooth="yes"/>
      <point x="751" y="17" type="line" smooth="yes"/>
      <point x="751" y="228.473"/>
      <point x="647" y="341.799"/>
      <point x="448" y="359" type="curve"/>
      <point x="432" y="362"/>
      <point x="417" y="366"/>
    </contour>
    <contour>
      <point x="723" y="802" type="curve" smooth="yes"/>
      <point x="723" y="822" type="line" smooth="yes"/>
      <point x="723" y="1067"/>
      <point x="604" y="1189"/>
      <point x="373" y="1189" type="curve" smooth="yes"/>
      <point x="270" y="1189"/>
      <point x="185" y="1162"/>
      <point x="121" y="1123" type="curve"/>
      <point x="102" y="951" type="line"/>
      <point x="165" y="995"/>
      <point x="241" y="1023"/>
      <point x="329" y="1023" type="curve" smooth="yes"/>
      <point x="469" y="1023"/>
      <point x="537" y="948"/>
      <point x="537" y="804" type="curve" smooth="yes"/>
      <point x="537" y="787" type="line" smooth="yes"/>
      <point x="537" y="602"/>
      <point x="449" y="443"/>
      <point x="322" y="346" type="curve"/>
      <point x="462" y="291" type="line"/>
      <point x="627" y="394"/>
      <point x="723" y="582"/>
    </contour>
  </outline>
</glyph>
<glyph name="matraUu.mlm" format="2">
  <advance width="846"/>
  <unicode hex="0D42"/>
  <outline>
    <contour>
      <point x="403" y="57" type="curve" smooth="yes"/>
      <point x="313" y="57"/>
      <point x="246" y="90"/>
      <point x="216" y="150" type="curve"/>
      <point x="178" y="98" type="line"/>
      <point x="189" y="34" type="line"/>
      <point x="224" y="-40"/>
      <point x="303" y="-79"/>
      <point x="403" y="-79" type="curve" smooth="yes"/>
      <point x="503" y="-79"/>
      <point x="580" y="-40"/>
      <point x="617" y="34" type="curve"/>
      <point x="627" y="98" type="line"/>
      <point x="587" y="150" type="line"/>
      <point x="557" y="90"/>
      <point x="493" y="57"/>
    </contour>
    <contour>
      <point x="403" y="-232" type="curve" smooth="yes"/>
      <point x="273" y="-232"/>
      <point x="206" y="-163"/>
      <point x="206" y="-37" type="curve" smooth="yes"/>
      <point x="206" y="45" type="line" smooth="yes"/>
      <point x="206" y="172"/>
      <point x="273" y="240"/>
      <point x="403" y="240" type="curve" smooth="yes"/>
      <point x="531" y="240"/>
      <point x="596" y="172"/>
      <point x="596" y="45" type="curve" smooth="yes"/>
      <point x="596" y="-37" type="line" smooth="yes"/>
      <point x="596" y="-163"/>
      <point x="531" y="-232"/>
    </contour>
    <contour>
      <point x="402" y="377" type="curve" smooth="yes"/>
      <point x="171" y="377"/>
      <point x="49" y="260"/>
      <point x="49" y="35" type="curve" smooth="yes"/>
      <point x="49" y="-27" type="line" smooth="yes"/>
      <point x="49" y="-259"/>
      <point x="171" y="-373"/>
      <point x="403" y="-373" type="curve" smooth="yes"/>
      <point x="635" y="-373"/>
      <point x="755" y="-260"/>
      <point x="755" y="-31" type="curve" smooth="yes"/>
      <point x="755" y="30" type="line" smooth="yes"/>
      <point x="755" y="239"/>
      <point x="651" y="353"/>
      <point x="451" y="370" type="curve"/>
      <point x="435" y="373"/>
      <point x="420" y="377"/>
    </contour>
    <contour>
      <point x="726" y="802" type="curve" smooth="yes"/>
      <point x="726" y="822" type="line" smooth="yes"/>
      <point x="726" y="1067"/>
      <point x="607" y="1189"/>
      <point x="376" y="1189" type="curve" smooth="yes"/>
      <point x="273" y="1189"/>
      <point x="188" y="1162"/>
      <point x="124" y="1123" type="curve"/>
      <point x="105" y="951" type="line"/>
      <point x="168" y="995"/>
      <point x="244" y="1023"/>
      <point x="332" y="1023" type="curve" smooth="yes"/>
      <point x="472" y="1023"/>
      <point x="540" y="948"/>
      <point x="540" y="804" type="curve" smooth="yes"/>
      <point x="540" y="787" type="line" smooth="yes"/>
      <point x="540" y="602"/>
      <point x="452" y="443"/>
      <point x="325" y="346" type="curve"/>
      <point x="465" y="291" type="line"/>
      <point x="630" y="394"/>
      <point x="726" y="582"/>
    </contour>
  </outline>
</glyph>
<glyph name="matraRu.mlm" format="2">
  <advance width="567"/>
  <unicode hex="0D43"/>
  <outline>
    <contour>
      <point x="177" y="-531" type="curve" smooth="yes"/>
      <point x="393" y="-531"/>
      <point x="512" y="-420"/>
      <point x="512" y="-206" type="curve" smooth="yes"/>
      <point x="512" y="-182" type="line" smooth="yes"/>
      <point x="512" y="100"/>
      <point x="351" y="363"/>
      <point x="351" y="729" type="curve" smooth="yes"/>
      <point x="351" y="890"/>
      <point x="365" y="1008"/>
      <point x="395" y="1156" type="curve"/>
      <point x="214" y="1156" type="line"/>
      <point x="180" y="1009"/>
      <point x="165" y="890"/>
      <point x="165" y="729" type="curve" smooth="yes"/>
      <point x="165" y="363"/>
      <point x="308" y="122"/>
      <point x="333" y="-119" type="curve"/>
      <point x="330" y="-143" type="line"/>
      <point x="332" y="-167"/>
      <point x="333" y="-187"/>
      <point x="333" y="-208" type="curve" smooth="yes"/>
      <point x="333" y="-230" type="line" smooth="yes"/>
      <point x="333" y="-331"/>
      <point x="278" y="-386"/>
      <point x="178" y="-386" type="curve" smooth="yes"/>
      <point x="83" y="-386"/>
      <point x="29" y="-337"/>
      <point x="29" y="-251" type="curve" smooth="yes"/>
      <point x="29" y="-236" type="line" smooth="yes"/>
      <point x="29" y="-156"/>
      <point x="82" y="-110"/>
      <point x="173" y="-110" type="curve" smooth="yes"/>
      <point x="246" y="-110"/>
      <point x="301" y="-139"/>
      <point x="336" y="-186" type="curve"/>
      <point x="347" y="-95" type="line"/>
      <point x="324" y="-95" type="line"/>
      <point x="288" y="-14"/>
      <point x="226" y="28"/>
      <point x="111" y="28" type="curve" smooth="yes"/>
      <point x="-52" y="28"/>
      <point x="-148" y="-64"/>
      <point x="-148" y="-229" type="curve" smooth="yes"/>
      <point x="-148" y="-249" type="line" smooth="yes"/>
      <point x="-148" y="-432"/>
      <point x="-34" y="-531"/>
    </contour>
  </outline>
</glyph>
<glyph name="matraRru.mlm" format="2">
  <advance width="572"/>
  <unicode hex="0D44"/>
  <outline>
    <contour>
      <point x="442" y="-119" type="line"/>
      <point x="429" y="-51"/>
      <point x="396" y="5"/>
      <point x="318" y="5" type="curve" smooth="yes"/>
      <point x="240" y="5"/>
      <point x="197" y="-38"/>
      <point x="184" y="-115" type="curve"/>
      <point x="179" y="-115" type="line"/>
      <point x="165" y="-38"/>
      <point x="101" y="6"/>
      <point x="-7" y="6" type="curve" smooth="yes"/>
      <point x="-156" y="6"/>
      <point x="-237" y="-75"/>
      <point x="-237" y="-217" type="curve" smooth="yes"/>
      <point x="-237" y="-229" type="line" smooth="yes"/>
      <point x="-237" y="-419"/>
      <point x="-96" y="-520"/>
      <point x="168" y="-520" type="curve" smooth="yes"/>
      <point x="446" y="-520"/>
      <point x="596" y="-402"/>
      <point x="596" y="-171" type="curve" smooth="yes"/>
      <point x="596" y="-153" type="line" smooth="yes"/>
      <point x="596" y="172"/>
      <point x="332" y="362"/>
      <point x="332" y="751" type="curve" smooth="yes"/>
      <point x="332" y="904"/>
      <point x="347" y="1017"/>
      <point x="378" y="1156" type="curve"/>
      <point x="197" y="1156" type="line"/>
      <point x="160" y="1018"/>
      <point x="146" y="904"/>
      <point x="146" y="751" type="curve" smooth="yes"/>
      <point x="146" y="366"/>
      <point x="345" y="171"/>
      <point x="413" y="-31" type="curve"/>
      <point x="405" y="-36" type="line"/>
      <point x="424" y="-106" type="line"/>
      <point x="427" y="-132"/>
      <point x="427" y="-152"/>
      <point x="427" y="-178" type="curve" smooth="yes"/>
      <point x="427" y="-189" type="line" smooth="yes"/>
      <point x="427" y="-317"/>
      <point x="337" y="-385"/>
      <point x="163" y="-385" type="curve" smooth="yes"/>
      <point x="4" y="-385"/>
      <point x="-76" y="-331"/>
      <point x="-76" y="-230" type="curve" smooth="yes"/>
      <point x="-76" y="-220" type="line" smooth="yes"/>
      <point x="-76" y="-160"/>
      <point x="-44" y="-127"/>
      <point x="16" y="-127" type="curve" smooth="yes"/>
      <point x="78" y="-127"/>
      <point x="103" y="-160"/>
      <point x="106" y="-215" type="curve" smooth="yes"/>
      <point x="109" y="-268" type="line"/>
      <point x="255" y="-268" type="line"/>
      <point x="257" y="-215" type="line" smooth="yes"/>
      <point x="259" y="-159"/>
      <point x="284" y="-123"/>
      <point x="344" y="-123" type="curve" smooth="yes"/>
      <point x="388" y="-123"/>
      <point x="414" y="-138"/>
      <point x="428" y="-164" type="curve"/>
    </contour>
  </outline>
</glyph>
<glyph name="matraE.mlm" format="2">
  <advance width="940"/>
  <unicode hex="0D47"/>
  <outline>
    <contour>
      <point x="298" y="759" type="line"/>
      <point x="314" y="759" type="line"/>
      <point x="304" y="826" type="line"/>
      <point x="304" y="855" type="line" smooth="yes"/>
      <point x="304" y="982"/>
      <point x="366" y="1044"/>
      <point x="492" y="1044" type="curve" smooth="yes"/>
      <point x="606" y="1044"/>
      <point x="666" y="995"/>
      <point x="666" y="902" type="curve" smooth="yes"/>
      <point x="666" y="895" type="line" smooth="yes"/>
      <point x="666" y="810"/>
      <point x="609" y="765"/>
      <point x="498" y="765" type="curve" smooth="yes"/>
      <point x="406" y="765"/>
      <point x="336" y="800"/>
      <point x="303" y="858" type="curve"/>
      <point x="293" y="789" type="line"/>
      <point x="320" y="688"/>
      <point x="415" y="625"/>
      <point x="560" y="625" type="curve" smooth="yes"/>
      <point x="745" y="625"/>
      <point x="848" y="718"/>
      <point x="848" y="888" type="curve" smooth="yes"/>
      <point x="848" y="899" type="line" smooth="yes"/>
      <point x="848" y="1091"/>
      <point x="726" y="1195"/>
      <point x="492" y="1195" type="curve" smooth="yes"/>
      <point x="244" y="1195"/>
      <point x="120" y="1072"/>
      <point x="120" y="828" type="curve" smooth="yes"/>
      <point x="120" y="332" type="line" smooth="yes"/>
      <point x="120" y="89"/>
      <point x="245" y="-36"/>
      <point x="492" y="-36" type="curve" smooth="yes"/>
      <point x="726" y="-36"/>
      <point x="848" y="68"/>
      <point x="848" y="259" type="curve" smooth="yes"/>
      <point x="848" y="273" type="line" smooth="yes"/>
      <point x="848" y="448"/>
      <point x="745" y="541"/>
      <point x="561" y="541" type="curve" smooth="yes"/>
      <point x="414" y="541"/>
      <point x="321" y="477"/>
      <point x="293" y="371" type="curve"/>
      <point x="303" y="303" type="line"/>
      <point x="336" y="362"/>
      <point x="406" y="396"/>
      <point x="498" y="396" type="curve" smooth="yes"/>
      <point x="609" y="396"/>
      <point x="666" y="351"/>
      <point x="666" y="265" type="curve" smooth="yes"/>
      <point x="666" y="258" type="line" smooth="yes"/>
      <point x="666" y="166"/>
      <point x="606" y="116"/>
      <point x="492" y="116" type="curve" smooth="yes"/>
      <point x="367" y="116"/>
      <point x="304" y="179"/>
      <point x="304" y="305" type="curve" smooth="yes"/>
      <point x="304" y="340" type="line"/>
      <point x="314" y="402" type="line"/>
      <point x="298" y="402" type="line"/>
    </contour>
  </outline>
</glyph>
<glyph name="dotreph.mlm" format="2">
  <unicode hex="0D4E"/>
  <outline>
    <contour>
      <point x="-1002" y="1455" type="line" smooth="yes"/>
      <point x="-1002" y="1377"/>
      <point x="-957.648" y="1335"/>
      <point x="-876" y="1335" type="curve" smooth="yes"/>
      <point x="-795.36" y="1335"/>
      <point x="-750" y="1377"/>
      <point x="-750" y="1455" type="curve" smooth="yes"/>
      <point x="-750" y="1463" type="line" smooth="yes"/>
      <point x="-750" y="1542"/>
      <point x="-795.36" y="1584"/>
      <point x="-876" y="1584" type="curve" smooth="yes"/>
      <point x="-957.648" y="1584"/>
      <point x="-1002" y="1542"/>
      <point x="-1002" y="1463" type="curve" smooth="yes"/>
    </contour>
  </outline>
</glyph>
<glyph name="chilluZh.mlm" format="2">
  <advance width="1539"/>
  <unicode hex="0D56"/>
  <outline>
    <contour>
      <point x="509" y="1124" type="curve" smooth="yes"/>
      <point x="509" y="914.075"/>
      <point x="462" y="668.996"/>
      <point x="424" y="443" type="curve"/>
      <point x="421" y="426"/>
      <point x="418" y="417"/>
      <point x="414" y="400" type="curve"/>
      <point x="400" y="343"/>
      <point x="391" y="292"/>
      <point x="391" y="239" type="curve" smooth="yes"/>
      <point x="391" y="47"/>
      <point x="506" y="-52"/>
      <point x="744" y="-52" type="curve" smooth="yes"/>
      <point x="987" y="-52"/>
      <point x="1105" y="41"/>
      <point x="1105" y="226" type="curve" smooth="yes"/>
      <point x="1105" y="282"/>
      <point x="1096" y="328"/>
      <point x="1075" y="379" type="curve"/>
      <point x="1062" y="444" type="line"/>
      <point x="1010" y="563.549"/>
      <point x="966" y="683.097"/>
      <point x="966" y="830" type="curve" smooth="yes"/>
      <point x="966" y="852" type="line" smooth="yes"/>
      <point x="966" y="972.324"/>
      <point x="1020" y="1033"/>
      <point x="1119" y="1033" type="curve" smooth="yes"/>
      <point x="1220" y="1033"/>
      <point x="1270" y="967.222"/>
      <point x="1270" y="848" type="curve" smooth="yes"/>
      <point x="1270" y="808" type="line" smooth="yes"/>
      <point x="1270" y="584.697"/>
      <point x="1118" y="470"/>
      <point x="787" y="470" type="curve" smooth="yes"/>
      <point x="436" y="470"/>
      <point x="277" y="589.639"/>
      <point x="277" y="835" type="curve" smooth="yes"/>
      <point x="277" y="856" type="line" smooth="yes"/>
      <point x="277" y="977.059"/>
      <point x="304" y="1076.75"/>
      <point x="343" y="1150" type="curve"/>
      <point x="164" y="1150" type="line"/>
      <point x="121" y="1078.81"/>
      <point x="95" y="974.048"/>
      <point x="95" y="852" type="curve" smooth="yes"/>
      <point x="95" y="830" type="line" smooth="yes"/>
      <point x="95" y="492.686"/>
      <point x="329" y="321"/>
      <point x="784" y="321" type="curve" smooth="yes"/>
      <point x="1224" y="321"/>
      <point x="1450" y="489.729"/>
      <point x="1450" y="809" type="curve" smooth="yes"/>
      <point x="1450" y="849" type="line" smooth="yes"/>
      <point x="1450" y="1071.26"/>
      <point x="1340" y="1190"/>
      <point x="1117" y="1190" type="curve" smooth="yes"/>
      <point x="901" y="1190"/>
      <point x="790" y="1076.27"/>
      <point x="790" y="861" type="curve" smooth="yes"/>
      <point x="790" y="838" type="line" smooth="yes"/>
      <point x="790" y="676.992"/>
      <point x="840" y="548.389"/>
      <point x="890" y="437" type="curve"/>
      <point x="900" y="367" type="line"/>
      <point x="915" y="326"/>
      <point x="923" y="289"/>
      <point x="923" y="244" type="curve" smooth="yes"/>
      <point x="923" y="150"/>
      <point x="867" y="99"/>
      <point x="746" y="99" type="curve" smooth="yes"/>
      <point x="627" y="99"/>
      <point x="572" y="155"/>
      <point x="572" y="259" type="curve" smooth="yes"/>
      <point x="572" y="299"/>
      <point x="579" y="337"/>
      <point x="587" y="381" type="curve"/>
      <point x="590" y="402"/>
      <point x="591" y="415"/>
      <point x="593" y="435" type="curve"/>
      <point x="630" y="634.873"/>
      <point x="684" y="880.947"/>
      <point x="684" y="1122" type="curve" smooth="yes"/>
      <point x="684" y="1277.91"/>
      <point x="658" y="1407.49"/>
      <point x="605" y="1531" type="curve"/>
      <point x="429" y="1531" type="line"/>
      <point x="485" y="1395.33"/>
      <point x="509" y="1266.75"/>
    </contour>
  </outline>
</glyph>
<glyph name="lengthAu.mlm" format="2">
  <advance width="1470"/>
  <unicode hex="0D57"/>
  <outline>
    <contour>
      <point x="718" y="139" type="curve" smooth="yes"/>
      <point x="604" y="139"/>
      <point x="504" y="152"/>
      <point x="399" y="182" type="curve"/>
      <point x="434" y="14" type="line"/>
      <point x="530" y="-12"/>
      <point x="633" y="-25"/>
      <point x="739" y="-25" type="curve" smooth="yes"/>
      <point x="1149" y="-25"/>
      <point x="1357" y="178.333"/>
      <point x="1357" y="585" type="curve" smooth="yes"/>
      <point x="1357" y="780" type="line" smooth="yes"/>
      <point x="1357" y="1051.64"/>
      <point x="1242" y="1189"/>
      <point x="1010" y="1189" type="curve" smooth="yes"/>
      <point x="839" y="1189"/>
      <point x="749" y="1109"/>
      <point x="725" y="972" type="curve"/>
      <point x="720" y="972" type="line"/>
      <point x="697" y="1109"/>
      <point x="607" y="1189"/>
      <point x="433" y="1189" type="curve" smooth="yes"/>
      <point x="207" y="1189"/>
      <point x="96" y="1056.46"/>
      <point x="96" y="815" type="curve" smooth="yes"/>
      <point x="96" y="736" type="line" smooth="yes"/>
      <point x="96" y="617.853"/>
      <point x="112.348" y="528.326"/>
      <point x="144" y="468" type="curve"/>
      <point x="329" y="468" type="line"/>
      <point x="304" y="532.49"/>
      <point x="282" y="620.904"/>
      <point x="282" y="727" type="curve" smooth="yes"/>
      <point x="282" y="806" type="line" smooth="yes"/>
      <point x="282" y="942.404"/>
      <point x="339" y="1019"/>
      <point x="456" y="1019" type="curve" smooth="yes"/>
      <point x="574" y="1019"/>
      <point x="629" y="948"/>
      <point x="631" y="806" type="curve" smooth="yes"/>
      <point x="635" y="477" type="line"/>
      <point x="812" y="477" type="line"/>
      <point x="816" y="806" type="line" smooth="yes"/>
      <point x="818" y="949"/>
      <point x="871" y="1019"/>
      <point x="984" y="1019" type="curve" smooth="yes"/>
      <point x="1109" y="1019"/>
      <point x="1169" y="940.725"/>
      <point x="1169" y="780" type="curve" smooth="yes"/>
      <point x="1169" y="585" type="line" smooth="yes"/>
      <point x="1169" y="284.257"/>
      <point x="1023" y="139"/>
    </contour>
  </outline>
</glyph>
<glyph name="threeeightieths.mlm" format="2">
  <advance width="2070"/>
  <unicode hex="0D5A"/>
  <outline>
    <contour>
      <point x="557" y="1019" type="curve" smooth="yes"/>
      <point x="716" y="1019"/>
      <point x="793" y="928"/>
      <point x="793" y="746" type="curve" smooth="yes"/>
      <point x="793" y="542" type="line"/>
      <point x="884" y="545" type="line"/>
      <point x="891" y="908" type="line"/>
      <point x="866.73" y="1097"/>
      <point x="740.321" y="1189"/>
      <point x="532" y="1189" type="curve" smooth="yes"/>
      <point x="254" y="1189"/>
      <point x="116" y="1026.66"/>
      <point x="116" y="703" type="curve" smooth="yes"/>
      <point x="116" y="481" type="line" smooth="yes"/>
      <point x="116" y="281.86"/>
      <point x="161.244" y="113.357"/>
      <point x="242" y="0" type="curve"/>
      <point x="439" y="0" type="line"/>
      <point x="360.179" y="121.532"/>
      <point x="304" y="283.915"/>
      <point x="304" y="480" type="curve" smooth="yes"/>
      <point x="304" y="703" type="line" smooth="yes"/>
      <point x="304" y="914.699"/>
      <point x="387" y="1019"/>
    </contour>
    <contour>
      <point x="876" y="908" type="line"/>
      <point x="793" y="610" type="line"/>
      <point x="793" y="0" type="line"/>
      <point x="974" y="0" type="line"/>
      <point x="974" y="618" type="line" smooth="yes"/>
      <point x="974" y="905.955"/>
      <point x="1095" y="1032"/>
      <point x="1364" y="1032" type="curve" smooth="yes"/>
      <point x="1623" y="1032"/>
      <point x="1752" y="902.881"/>
      <point x="1752" y="618" type="curve" smooth="yes"/>
      <point x="1752" y="0" type="line"/>
      <point x="1934" y="0" type="line"/>
      <point x="1934" y="617" type="line" smooth="yes"/>
      <point x="1934" y="995.619"/>
      <point x="1751" y="1189"/>
      <point x="1375" y="1189" type="curve" smooth="yes"/>
      <point x="1104.26" y="1189"/>
      <point x="947.569" y="1091"/>
      <point x="896" y="908" type="curve"/>
    </contour>
    <contour>
      <point x="884" y="145" type="line"/>
      <point x="812" y="0" type="line"/>
      <point x="1910" y="0" type="line"/>
      <point x="1876" y="145" type="line"/>
    </contour>
    <contour>
      <point x="1502.44" y="652" type="line" smooth="yes"/>
      <point x="1502.44" y="878"/>
      <point x="1389.04" y="1005"/>
      <point x="1181.44" y="1005" type="curve" smooth="yes"/>
      <point x="1142.62" y="1005"/>
      <point x="1095.72" y="1000"/>
      <point x="1050.44" y="980" type="curve"/>
      <point x="1001.44" y="868" type="line"/>
      <point x="1039.68" y="888.6"/>
      <point x="1079.67" y="895"/>
      <point x="1114.44" y="895" type="curve" smooth="yes"/>
      <point x="1250.57" y="895"/>
      <point x="1316.44" y="805.741"/>
      <point x="1316.44" y="654" type="curve" smooth="yes"/>
      <point x="1316.44" y="631" type="line" smooth="yes"/>
      <point x="1316.44" y="422"/>
      <point x="1217.44" y="253"/>
      <point x="1062.44" y="139" type="curve"/>
      <point x="1227.44" y="106" type="line"/>
      <point x="1398.44" y="215"/>
      <point x="1502.44" y="402"/>
      <point x="1502.44" y="628" type="curve" smooth="yes"/>
    </contour>
  </outline>
</glyph>
<glyph name="onetwentieth.mlm" format="2">
  <advance width="1735"/>
  <unicode hex="0D5B"/>
  <outline>
    <contour>
      <point x="324" y="0" type="line"/>
      <point x="324" y="1156" type="line"/>
      <point x="137" y="1156" type="line"/>
      <point x="137" y="0" type="line"/>
    </contour>
    <contour>
      <point x="816" y="1007" type="line"/>
      <point x="996" y="1156" type="line"/>
      <point x="166" y="1156" type="line"/>
      <point x="166" y="1007" type="line"/>
    </contour>
    <contour>
      <point x="1150" y="131" type="curve" smooth="yes"/>
      <point x="964" y="131"/>
      <point x="871" y="246.384"/>
      <point x="871" y="472" type="curve" smooth="yes"/>
      <point x="871" y="691" type="line" smooth="yes"/>
      <point x="871" y="876.077"/>
      <point x="925.13" y="1029.45"/>
      <point x="997" y="1145" type="curve"/>
      <point x="997" y="1156" type="line"/>
      <point x="835" y="1156" type="line"/>
      <point x="725.063" y="1037.43"/>
      <point x="683" y="887.181"/>
      <point x="683" y="694" type="curve" smooth="yes"/>
      <point x="683" y="461" type="line" smooth="yes"/>
      <point x="683" y="134.429"/>
      <point x="840" y="-36"/>
      <point x="1150" y="-36" type="curve" smooth="yes"/>
      <point x="1460" y="-36"/>
      <point x="1619" y="137.427"/>
      <point x="1619" y="470" type="curve" smooth="yes"/>
      <point x="1619" y="692" type="line" smooth="yes"/>
      <point x="1619" y="886.185"/>
      <point x="1575.76" y="1048.69"/>
      <point x="1499" y="1156" type="curve"/>
      <point x="1302" y="1156" type="line"/>
      <point x="1374.88" y="1040.52"/>
      <point x="1430" y="881.088"/>
      <point x="1430" y="691" type="curve" smooth="yes"/>
      <point x="1430" y="472" type="line" smooth="yes"/>
      <point x="1430" y="246.384"/>
      <point x="1336" y="131"/>
    </contour>
  </outline>
</glyph>
<glyph name="onetenth.mlm" format="2">
  <advance width="2853"/>
  <unicode hex="0D5C"/>
  <outline>
    <contour>
      <point x="1921" y="388" type="curve" smooth="yes"/>
      <point x="1921" y="113.415"/>
      <point x="2055" y="-29"/>
      <point x="2321" y="-29" type="curve" smooth="yes"/>
      <point x="2598" y="-29"/>
      <point x="2737" y="127.377"/>
      <point x="2737" y="434" type="curve" smooth="yes"/>
      <point x="2737" y="662" type="line" smooth="yes"/>
      <point x="2737" y="867.179"/>
      <point x="2684.7" y="1035.61"/>
      <point x="2588" y="1153" type="curve"/>
      <point x="2397" y="1153" type="line"/>
      <point x="2487.78" y="1029.47"/>
      <point x="2549" y="867.142"/>
      <point x="2549" y="665" type="curve" smooth="yes"/>
      <point x="2549" y="435" type="line" smooth="yes"/>
      <point x="2549" y="235.275"/>
      <point x="2476" y="138"/>
      <point x="2321" y="138" type="curve" smooth="yes"/>
      <point x="2179" y="138"/>
      <point x="2108" y="223.306"/>
      <point x="2108" y="396" type="curve" smooth="yes"/>
      <point x="2108" y="523.3"/>
      <point x="2120" y="648.7"/>
      <point x="2120" y="776" type="curve" smooth="yes"/>
      <point x="2120" y="1051.67"/>
      <point x="1987" y="1189"/>
      <point x="1723" y="1189" type="curve" smooth="yes"/>
      <point x="1460" y="1189"/>
      <point x="1326" y="1051.67"/>
      <point x="1326" y="776" type="curve" smooth="yes"/>
      <point x="1326" y="647.716"/>
      <point x="1338" y="522.284"/>
      <point x="1338" y="394" type="curve" smooth="yes"/>
      <point x="1338" y="223.333"/>
      <point x="1272" y="138"/>
      <point x="1132" y="138" type="curve" smooth="yes"/>
      <point x="994" y="138"/>
      <point x="926" y="223.333"/>
      <point x="926" y="394" type="curve" smooth="yes"/>
      <point x="926" y="521.3"/>
      <point x="937" y="646.7"/>
      <point x="937" y="774" type="curve" smooth="yes"/>
      <point x="937" y="1049.64"/>
      <point x="804" y="1189"/>
      <point x="538" y="1189" type="curve" smooth="yes"/>
      <point x="257" y="1189"/>
      <point x="116" y="1034.7"/>
      <point x="116" y="722" type="curve" smooth="yes"/>
      <point x="116" y="488" type="line" smooth="yes"/>
      <point x="116" y="286.879"/>
      <point x="165.262" y="113.322"/>
      <point x="253" y="0" type="curve"/>
      <point x="450" y="0" type="line"/>
      <point x="364.179" y="123.537"/>
      <point x="304" y="287.912"/>
      <point x="304" y="487" type="curve" smooth="yes"/>
      <point x="304" y="720" type="line" smooth="yes"/>
      <point x="304" y="924.758"/>
      <point x="382" y="1023"/>
      <point x="538" y="1023" type="curve" smooth="yes"/>
      <point x="681" y="1023"/>
      <point x="750" y="938.734"/>
      <point x="750" y="765" type="curve" smooth="yes"/>
      <point x="750" y="638.65"/>
      <point x="739" y="513.25"/>
      <point x="739" y="385" type="curve" smooth="yes"/>
      <point x="739" y="111.391"/>
      <point x="871" y="-29"/>
      <point x="1132" y="-29" type="curve" smooth="yes"/>
      <point x="1394" y="-29"/>
      <point x="1525" y="111.391"/>
      <point x="1525" y="385" type="curve" smooth="yes"/>
      <point x="1525" y="513.267"/>
      <point x="1513" y="639.633"/>
      <point x="1513" y="766" type="curve" smooth="yes"/>
      <point x="1513" y="939.761"/>
      <point x="1583" y="1023"/>
      <point x="1723" y="1023" type="curve" smooth="yes"/>
      <point x="1866" y="1023"/>
      <point x="1933" y="939.761"/>
      <point x="1933" y="766" type="curve" smooth="yes"/>
      <point x="1933" y="640.633"/>
      <point x="1921" y="515.266"/>
    </contour>
  </outline>
</glyph>
<glyph name="threetwentieths.mlm" format="2">
  <advance width="3707"/>
  <unicode hex="0D5D"/>
  <outline>
    <contour>
      <point x="410" y="459" type="line"/>
      <point x="597" y="462" type="line"/>
      <point x="597" y="1150" type="line"/>
      <point x="410" y="1150" type="line"/>
    </contour>
    <contour>
      <point x="209" y="-28" type="curve" smooth="yes"/>
      <point x="385" y="-28"/>
      <point x="480" y="64"/>
      <point x="501" y="216" type="curve"/>
      <point x="552" y="216" type="line"/>
      <point x="555" y="589" type="line"/>
      <point x="410" y="610" type="line"/>
      <point x="410" y="398" type="line" smooth="yes"/>
      <point x="410" y="223"/>
      <point x="338" y="136"/>
      <point x="189" y="136" type="curve" smooth="yes"/>
      <point x="122" y="136"/>
      <point x="66" y="146"/>
      <point x="19" y="162" type="curve"/>
      <point x="57" y="-5" type="line"/>
      <point x="102" y="-20"/>
      <point x="154" y="-28"/>
    </contour>
    <contour>
      <point x="1395" y="1189" type="curve" smooth="yes"/>
      <point x="1130" y="1189"/>
      <point x="996" y="1050.65"/>
      <point x="996" y="776" type="curve" smooth="yes"/>
      <point x="996" y="647.7"/>
      <point x="1007" y="521.3"/>
      <point x="1007" y="393" type="curve" smooth="yes"/>
      <point x="1007" y="223.292"/>
      <point x="941" y="140"/>
      <point x="805" y="140" type="curve" smooth="yes"/>
      <point x="666" y="140"/>
      <point x="597" y="221"/>
      <point x="597" y="385" type="curve" smooth="yes"/>
      <point x="597" y="590" type="line"/>
      <point x="505" y="542" type="line"/>
      <point x="506" y="216" type="line"/>
      <point x="530" y="62"/>
      <point x="639" y="-28"/>
      <point x="833" y="-28" type="curve" smooth="yes"/>
      <point x="1074" y="-28"/>
      <point x="1194" y="110.358"/>
      <point x="1194" y="384" type="curve" smooth="yes"/>
      <point x="1194" y="512.3"/>
      <point x="1183" y="639.65"/>
      <point x="1183" y="767" type="curve" smooth="yes"/>
      <point x="1183" y="939.748"/>
      <point x="1254" y="1023"/>
      <point x="1396" y="1023" type="curve" smooth="yes"/>
      <point x="1539" y="1023"/>
      <point x="1607" y="939.748"/>
      <point x="1607" y="767" type="curve" smooth="yes"/>
      <point x="1607" y="639.65"/>
      <point x="1595" y="512.3"/>
      <point x="1595" y="384" type="curve" smooth="yes"/>
      <point x="1595" y="111.4"/>
      <point x="1728" y="-29"/>
      <point x="1987" y="-29" type="curve" smooth="yes"/>
      <point x="2247" y="-29"/>
      <point x="2379" y="111.4"/>
      <point x="2379" y="384" type="curve" smooth="yes"/>
      <point x="2379" y="513.267"/>
      <point x="2367" y="640.634"/>
      <point x="2367" y="768" type="curve" smooth="yes"/>
      <point x="2367" y="940.776"/>
      <point x="2436" y="1023"/>
      <point x="2577" y="1023" type="curve" smooth="yes"/>
      <point x="2719" y="1023"/>
      <point x="2787" y="940.776"/>
      <point x="2787" y="768" type="curve" smooth="yes"/>
      <point x="2787" y="641.617"/>
      <point x="2775" y="514.284"/>
      <point x="2775" y="386" type="curve" smooth="yes"/>
      <point x="2775" y="112.407"/>
      <point x="2909" y="-29"/>
      <point x="3175" y="-29" type="curve" smooth="yes"/>
      <point x="3452" y="-29"/>
      <point x="3591" y="127.377"/>
      <point x="3591" y="434" type="curve" smooth="yes"/>
      <point x="3591" y="662" type="line" smooth="yes"/>
      <point x="3591" y="867.179"/>
      <point x="3538.7" y="1035.61"/>
      <point x="3442" y="1153" type="curve"/>
      <point x="3251" y="1153" type="line"/>
      <point x="3341.78" y="1029.47"/>
      <point x="3403" y="867.142"/>
      <point x="3403" y="665" type="curve" smooth="yes"/>
      <point x="3403" y="435" type="line" smooth="yes"/>
      <point x="3403" y="235.275"/>
      <point x="3330" y="138"/>
      <point x="3175" y="138" type="curve" smooth="yes"/>
      <point x="3033" y="138"/>
      <point x="2962" y="222.293"/>
      <point x="2962" y="394" type="curve" smooth="yes"/>
      <point x="2962" y="522.317"/>
      <point x="2974" y="649.683"/>
      <point x="2974" y="778" type="curve" smooth="yes"/>
      <point x="2974" y="1052.68"/>
      <point x="2842" y="1189"/>
      <point x="2577" y="1189" type="curve" smooth="yes"/>
      <point x="2313" y="1189"/>
      <point x="2180" y="1052.68"/>
      <point x="2180" y="778" type="curve" smooth="yes"/>
      <point x="2180" y="648.716"/>
      <point x="2192" y="522.284"/>
      <point x="2192" y="393" type="curve" smooth="yes"/>
      <point x="2192" y="222.306"/>
      <point x="2124" y="138"/>
      <point x="1987" y="138" type="curve" smooth="yes"/>
      <point x="1850" y="138"/>
      <point x="1782" y="222.306"/>
      <point x="1782" y="393" type="curve" smooth="yes"/>
      <point x="1782" y="521.3"/>
      <point x="1794" y="647.7"/>
      <point x="1794" y="776" type="curve" smooth="yes"/>
      <point x="1794" y="1050.65"/>
      <point x="1660" y="1189"/>
    </contour>
  </outline>
</glyph>
<glyph name="onefifth.mlm" format="2">
  <advance width="2585"/>
  <unicode hex="0D5E"/>
  <outline>
    <contour>
      <point x="1909" y="1012" type="line"/>
      <point x="2084" y="1155" type="line"/>
      <point x="1423" y="1155" type="line"/>
      <point x="1553" y="1012" type="line"/>
    </contour>
    <contour>
      <point x="2187" y="725" type="curve" smooth="yes"/>
      <point x="2073" y="725"/>
      <point x="2019" y="787"/>
      <point x="2019" y="906" type="curve" smooth="yes"/>
      <point x="2019" y="926" type="line" smooth="yes"/>
      <point x="2019" y="1012"/>
      <point x="2041" y="1087"/>
      <point x="2084" y="1145" type="curve"/>
      <point x="2084" y="1155" type="line"/>
      <point x="1946" y="1155" type="line"/>
      <point x="1880" y="1092"/>
      <point x="1846" y="1000"/>
      <point x="1846" y="900" type="curve" smooth="yes"/>
      <point x="1846" y="886" type="line" smooth="yes"/>
      <point x="1846" y="673"/>
      <point x="1962" y="567"/>
      <point x="2187" y="567" type="curve" smooth="yes"/>
      <point x="2418" y="567"/>
      <point x="2531" y="673"/>
      <point x="2531" y="893" type="curve" smooth="yes"/>
      <point x="2531" y="916" type="line" smooth="yes"/>
      <point x="2531" y="1012"/>
      <point x="2507" y="1098"/>
      <point x="2465" y="1156" type="curve"/>
      <point x="2292" y="1156" type="line"/>
      <point x="2332" y="1095"/>
      <point x="2354" y="1017"/>
      <point x="2354" y="926" type="curve" smooth="yes"/>
      <point x="2354" y="906" type="line" smooth="yes"/>
      <point x="2354" y="787"/>
      <point x="2303" y="725"/>
    </contour>
    <contour>
      <point x="1489" y="904" type="line" smooth="yes"/>
      <point x="1489" y="791"/>
      <point x="1439" y="735"/>
      <point x="1335" y="735" type="curve" smooth="yes"/>
      <point x="1229" y="735" type="line"/>
      <point x="1279" y="588" type="line"/>
      <point x="1357" y="588" type="line" smooth="yes"/>
      <point x="1559" y="588"/>
      <point x="1662" y="687"/>
      <point x="1662" y="887" type="curve" smooth="yes"/>
      <point x="1662" y="901" type="line" smooth="yes"/>
      <point x="1662" y="1001"/>
      <point x="1628" y="1092"/>
      <point x="1563" y="1155" type="curve"/>
      <point x="1423" y="1155" type="line"/>
      <point x="1423" y="1145" type="line"/>
      <point x="1466" y="1086"/>
      <point x="1489" y="1010"/>
      <point x="1489" y="923" type="curve" smooth="yes"/>
    </contour>
    <contour>
      <point x="729" y="1029" type="curve" smooth="yes"/>
      <point x="997" y="1029"/>
      <point x="1128" y="882.46"/>
      <point x="1128" y="615" type="curve" smooth="yes"/>
      <point x="1128" y="359" type="line" smooth="yes"/>
      <point x="1128" y="201.578"/>
      <point x="1070" y="129"/>
      <point x="956" y="129" type="curve" smooth="yes"/>
      <point x="843" y="129"/>
      <point x="783" y="196.719"/>
      <point x="783" y="326" type="curve" smooth="yes"/>
      <point x="783" y="391" type="line" smooth="yes"/>
      <point x="783" y="520.281"/>
      <point x="841" y="588"/>
      <point x="965" y="588" type="curve" smooth="yes"/>
      <point x="1238" y="588" type="line"/>
      <point x="1261" y="735" type="line"/>
      <point x="939" y="735" type="line" smooth="yes"/>
      <point x="715" y="735"/>
      <point x="600" y="620.298"/>
      <point x="600" y="398" type="curve" smooth="yes"/>
      <point x="600" y="325" type="line" smooth="yes"/>
      <point x="600" y="94.7291"/>
      <point x="723" y="-27"/>
      <point x="955" y="-27" type="curve" smooth="yes"/>
      <point x="1190" y="-27"/>
      <point x="1311" y="104.671"/>
      <point x="1311" y="367" type="curve" smooth="yes"/>
      <point x="1311" y="594" type="line" smooth="yes"/>
      <point x="1311" y="989.616"/>
      <point x="1115" y="1192"/>
      <point x="722" y="1192" type="curve" smooth="yes"/>
      <point x="317" y="1192"/>
      <point x="115" y="984.589"/>
      <point x="115" y="584" type="curve" smooth="yes"/>
      <point x="115" y="447" type="line" smooth="yes"/>
      <point x="115" y="266.973"/>
      <point x="154" y="106.38"/>
      <point x="227" y="0" type="curve"/>
      <point x="424" y="0" type="line"/>
      <point x="348" y="117.638"/>
      <point x="303" y="268.009"/>
      <point x="303" y="446" type="curve" smooth="yes"/>
      <point x="303" y="580" type="line" smooth="yes"/>
      <point x="303" y="880.697"/>
      <point x="443" y="1029"/>
    </contour>
  </outline>
</glyph>
<glyph name="archaicIi.mlm" format="2">
  <advance width="2930"/>
  <unicode hex="0D5F"/>
  <outline>
    <component base="Ra.mlm" xOffset="738" yOffset="1"/>
    <contour>
      <point x="519" y="559" type="curve" smooth="yes"/>
      <point x="519" y="513" type="line" smooth="yes"/>
      <point x="519" y="414"/>
      <point x="471" y="363"/>
      <point x="379" y="363" type="curve" smooth="yes"/>
      <point x="288" y="363"/>
      <point x="239" y="414"/>
      <point x="239" y="513" type="curve" smooth="yes"/>
      <point x="239" y="559" type="line" smooth="yes"/>
      <point x="239" y="659"/>
      <point x="288" y="710"/>
      <point x="379" y="710" type="curve" smooth="yes"/>
      <point x="471" y="710"/>
      <point x="519" y="659"/>
    </contour>
    <contour>
      <point x="379" y="853" type="curve" smooth="yes"/>
      <point x="176" y="853"/>
      <point x="70" y="752"/>
      <point x="70" y="559" type="curve" smooth="yes"/>
      <point x="70" y="514" type="line" smooth="yes"/>
      <point x="70" y="320"/>
      <point x="176" y="219"/>
      <point x="379" y="219" type="curve" smooth="yes"/>
      <point x="584" y="219"/>
      <point x="688" y="320"/>
      <point x="688" y="514" type="curve" smooth="yes"/>
      <point x="688" y="559" type="line" smooth="yes"/>
      <point x="688" y="752"/>
      <point x="584" y="853"/>
    </contour>
    <contour>
      <point x="2690" y="559" type="curve" smooth="yes"/>
      <point x="2690" y="513" type="line" smooth="yes"/>
      <point x="2690" y="414"/>
      <point x="2642" y="363"/>
      <point x="2550" y="363" type="curve" smooth="yes"/>
      <point x="2459" y="363"/>
      <point x="2410" y="414"/>
      <point x="2410" y="513" type="curve" smooth="yes"/>
      <point x="2410" y="559" type="line" smooth="yes"/>
      <point x="2410" y="659"/>
      <point x="2459" y="710"/>
      <point x="2550" y="710" type="curve" smooth="yes"/>
      <point x="2642" y="710"/>
      <point x="2690" y="659"/>
    </contour>
    <contour>
      <point x="2241" y="559" type="curve" smooth="yes"/>
      <point x="2241" y="514" type="line" smooth="yes"/>
      <point x="2241" y="320"/>
      <point x="2347" y="219"/>
      <point x="2550" y="219" type="curve" smooth="yes"/>
      <point x="2755" y="219"/>
      <point x="2859" y="320"/>
      <point x="2859" y="514" type="curve" smooth="yes"/>
      <point x="2859" y="559" type="line" smooth="yes"/>
      <point x="2859" y="752"/>
      <point x="2755" y="853"/>
      <point x="2550" y="853" type="curve" smooth="yes"/>
      <point x="2347" y="853"/>
      <point x="2241" y="752"/>
    </contour>
  </outline>
</glyph>
<glyph name="uni0D62" format="2">
  <unicode hex="0D62"/>
  <outline>
    <contour>
      <point x="-892.936" y="-515" type="line"/>
      <point x="-746.936" y="-515" type="line"/>
      <point x="-746.936" y="-202" type="line"/>
      <point x="-892.936" y="-214" type="line"/>
    </contour>
    <contour>
      <point x="-1162.94" y="81" type="curve" smooth="yes"/>
      <point x="-1428.94" y="81"/>
      <point x="-1566.94" y="-28.3234"/>
      <point x="-1566.94" y="-257" type="curve" smooth="yes"/>
      <point x="-1566.94" y="-279" type="line" smooth="yes"/>
      <point x="-1566.94" y="-448.333"/>
      <point x="-1478.94" y="-533"/>
      <point x="-1302.94" y="-533" type="curve" smooth="yes"/>
      <point x="-1137.25" y="-533"/>
      <point x="-1049.94" y="-465.665"/>
      <point x="-1049.94" y="-332" type="curve" smooth="yes"/>
      <point x="-1049.94" y="-322" type="line" smooth="yes"/>
      <point x="-1049.94" y="-198.349"/>
      <point x="-1123.2" y="-132"/>
      <point x="-1248.94" y="-132" type="curve" smooth="yes"/>
      <point x="-1342.4" y="-132"/>
      <point x="-1406.34" y="-178.089"/>
      <point x="-1430.94" y="-259" type="curve"/>
      <point x="-1424.94" y="-302" type="line"/>
      <point x="-1403.45" y="-264.138"/>
      <point x="-1358.52" y="-241"/>
      <point x="-1298.94" y="-241" type="curve" smooth="yes"/>
      <point x="-1229.26" y="-241"/>
      <point x="-1193.94" y="-270.659"/>
      <point x="-1193.94" y="-328" type="curve" smooth="yes"/>
      <point x="-1193.94" y="-335" type="line" smooth="yes"/>
      <point x="-1193.94" y="-393.33"/>
      <point x="-1233.22" y="-422"/>
      <point x="-1303.94" y="-422" type="curve" smooth="yes"/>
      <point x="-1384.9" y="-422"/>
      <point x="-1422.94" y="-384.243"/>
      <point x="-1422.94" y="-290" type="curve" smooth="yes"/>
      <point x="-1422.94" y="-271" type="line"/>
      <point x="-1410.94" y="-240" type="line"/>
      <point x="-1428.94" y="-240" type="line"/>
      <point x="-1428.94" y="-107.413"/>
      <point x="-1333.58" y="-35"/>
      <point x="-1160.94" y="-35" type="curve" smooth="yes"/>
      <point x="-982.937" y="-35"/>
      <point x="-892.937" y="-101"/>
      <point x="-892.937" y="-231" type="curve" smooth="yes"/>
      <point x="-892.937" y="-276" type="line"/>
      <point x="-807.937" y="-228" type="line"/>
      <point x="-821.937" y="-83" type="line"/>
      <point x="-862.423" y="27.5584"/>
      <point x="-979.788" y="81"/>
    </contour>
    <contour>
      <point x="-476.85" y="81" type="curve" smooth="yes"/>
      <point x="-659.998" y="81"/>
      <point x="-777.363" y="27.5584"/>
      <point x="-817.85" y="-83" type="curve"/>
      <point x="-861.659" y="-82.9041" type="line"/>
      <point x="-831.85" y="-228" type="line"/>
      <point x="-746.85" y="-276" type="line"/>
      <point x="-746.85" y="-231" type="line" smooth="yes"/>
      <point x="-746.85" y="-101"/>
      <point x="-656.85" y="-35"/>
      <point x="-478.85" y="-35" type="curve" smooth="yes"/>
      <point x="-306.206" y="-35"/>
      <point x="-210.85" y="-107.413"/>
      <point x="-210.85" y="-240" type="curve"/>
      <point x="-228.85" y="-240" type="line"/>
      <point x="-216.85" y="-271" type="line"/>
      <point x="-216.85" y="-290" type="line" smooth="yes"/>
      <point x="-216.85" y="-384.243"/>
      <point x="-254.891" y="-422"/>
      <point x="-335.85" y="-422" type="curve" smooth="yes"/>
      <point x="-406.564" y="-422"/>
      <point x="-445.85" y="-393.33"/>
      <point x="-445.85" y="-335" type="curve" smooth="yes"/>
      <point x="-445.85" y="-328" type="line" smooth="yes"/>
      <point x="-445.85" y="-270.659"/>
      <point x="-410.523" y="-241"/>
      <point x="-340.85" y="-241" type="curve" smooth="yes"/>
      <point x="-281.269" y="-241"/>
      <point x="-236.338" y="-264.138"/>
      <point x="-214.85" y="-302" type="curve"/>
      <point x="-208.85" y="-259" type="line"/>
      <point x="-233.445" y="-178.089"/>
      <point x="-297.391" y="-132"/>
      <point x="-390.85" y="-132" type="curve" smooth="yes"/>
      <point x="-516.586" y="-132"/>
      <point x="-589.85" y="-198.349"/>
      <point x="-589.85" y="-322" type="curve" smooth="yes"/>
      <point x="-589.85" y="-332" type="line" smooth="yes"/>
      <point x="-589.85" y="-465.665"/>
      <point x="-502.54" y="-533"/>
      <point x="-336.85" y="-533" type="curve" smooth="yes"/>
      <point x="-160.85" y="-533"/>
      <point x="-72.8501" y="-448.333"/>
      <point x="-72.8501" y="-279" type="curve" smooth="yes"/>
      <point x="-72.8501" y="-257" type="line" smooth="yes"/>
      <point x="-72.8501" y="-28.3234"/>
      <point x="-210.85" y="81"/>
    </contour>
  </outline>
</glyph>
<glyph name="zero.mlm" format="2">
  <advance width="1128"/>
  <unicode hex="0D66"/>
  <outline>
    <contour>
      <point x="564" y="181" type="curve" smooth="yes"/>
      <point x="385" y="181"/>
      <point x="293" y="287.411"/>
      <point x="293" y="493" type="curve" smooth="yes"/>
      <point x="293" y="670" type="line" smooth="yes"/>
      <point x="293" y="877.656"/>
      <point x="384" y="982"/>
      <point x="564" y="982" type="curve" smooth="yes"/>
      <point x="745" y="982"/>
      <point x="835" y="877.656"/>
      <point x="835" y="670" type="curve" smooth="yes"/>
      <point x="835" y="493" type="line" smooth="yes"/>
      <point x="835" y="287.411"/>
      <point x="745" y="181"/>
    </contour>
    <contour>
      <point x="564" y="15" type="curve" smooth="yes"/>
      <point x="867" y="15"/>
      <point x="1023" y="179.44"/>
      <point x="1023" y="493" type="curve" smooth="yes"/>
      <point x="1023" y="668" type="line" smooth="yes"/>
      <point x="1023" y="984.596"/>
      <point x="867" y="1148"/>
      <point x="564" y="1148" type="curve" smooth="yes"/>
      <point x="261" y="1148"/>
      <point x="105" y="984.596"/>
      <point x="105" y="668" type="curve" smooth="yes"/>
      <point x="105" y="493" type="line" smooth="yes"/>
      <point x="105" y="179.44"/>
      <point x="262" y="15"/>
    </contour>
  </outline>
</glyph>
<glyph name="two.mlm" format="2">
  <advance width="1488"/>
  <unicode hex="0D68"/>
  <outline>
    <contour>
      <point x="952" y="149" type="line"/>
      <point x="767" y="0" type="line"/>
      <point x="1442" y="0" type="line"/>
      <point x="1465" y="149" type="line"/>
    </contour>
    <contour>
      <point x="600" y="1025" type="curve" smooth="yes"/>
      <point x="797" y="1025"/>
      <point x="895" y="909.696"/>
      <point x="895" y="676" type="curve" smooth="yes"/>
      <point x="895" y="462" type="line" smooth="yes"/>
      <point x="895" y="278.941"/>
      <point x="840.842" y="125.54"/>
      <point x="767" y="11" type="curve"/>
      <point x="767" y="0" type="line"/>
      <point x="930" y="0" type="line"/>
      <point x="1040.93" y="117.533"/>
      <point x="1083" y="267.771"/>
      <point x="1083" y="464" type="curve" smooth="yes"/>
      <point x="1083" y="685" type="line" smooth="yes"/>
      <point x="1083" y="1018.58"/>
      <point x="920" y="1192"/>
      <point x="600" y="1192" type="curve" smooth="yes"/>
      <point x="280" y="1192"/>
      <point x="116" y="1018.63"/>
      <point x="116" y="677" type="curve" smooth="yes"/>
      <point x="116" y="464" type="line" smooth="yes"/>
      <point x="116" y="270.837"/>
      <point x="159.226" y="108.335"/>
      <point x="235" y="0" type="curve"/>
      <point x="432" y="0" type="line"/>
      <point x="360.083" y="116.522"/>
      <point x="304" y="273.929"/>
      <point x="304" y="462" type="curve" smooth="yes"/>
      <point x="304" y="676" type="line" smooth="yes"/>
      <point x="304" y="909.696"/>
      <point x="404" y="1025"/>
    </contour>
  </outline>
</glyph>
<glyph name="four.mlm" format="2">
  <advance width="1448"/>
  <unicode hex="0D6A"/>
  <outline>
    <contour>
      <point x="615" y="474" type="curve" smooth="yes"/>
      <point x="615" y="359" type="line" smooth="yes"/>
      <point x="615" y="107.745"/>
      <point x="738" y="-27"/>
      <point x="974" y="-27" type="curve" smooth="yes"/>
      <point x="1217" y="-27"/>
      <point x="1337" y="110.735"/>
      <point x="1337" y="370" type="curve" smooth="yes"/>
      <point x="1337" y="579" type="line" smooth="yes"/>
      <point x="1337" y="794.198"/>
      <point x="1270" y="947.476"/>
      <point x="1153" y="1050" type="curve"/>
      <point x="1093" y="1090" type="line"/>
      <point x="995" y="1155.96"/>
      <point x="875" y="1191"/>
      <point x="726" y="1191" type="curve" smooth="yes"/>
      <point x="318" y="1191"/>
      <point x="115" y="983.56"/>
      <point x="115" y="588" type="curve" smooth="yes"/>
      <point x="115" y="447" type="line" smooth="yes"/>
      <point x="115" y="266.973"/>
      <point x="154" y="106.38"/>
      <point x="227" y="0" type="curve"/>
      <point x="421" y="0" type="line"/>
      <point x="346" y="115.622"/>
      <point x="303" y="265.009"/>
      <point x="303" y="441" type="curve" smooth="yes"/>
      <point x="303" y="583" type="line" smooth="yes"/>
      <point x="303" y="884.735"/>
      <point x="443" y="1031"/>
      <point x="727" y="1031" type="curve" smooth="yes"/>
      <point x="826" y="1031"/>
      <point x="908" y="1009.97"/>
      <point x="972" y="970" type="curve"/>
      <point x="1027" y="931" type="line"/>
      <point x="1107" y="855.52"/>
      <point x="1150" y="738.22"/>
      <point x="1150" y="574" type="curve" smooth="yes"/>
      <point x="1150" y="368" type="line" smooth="yes"/>
      <point x="1150" y="210.681"/>
      <point x="1095" y="131"/>
      <point x="976" y="131" type="curve" smooth="yes"/>
      <point x="861" y="131"/>
      <point x="801" y="207.689"/>
      <point x="801" y="358" type="curve" smooth="yes"/>
      <point x="801" y="474" type="line" smooth="yes"/>
      <point x="801" y="696.93"/>
      <point x="898" y="810.917"/>
      <point x="1089" y="936" type="curve"/>
      <point x="1148" y="990" type="line"/>
      <point x="1253" y="1067.75"/>
      <point x="1317" y="1166.69"/>
      <point x="1317" y="1303" type="curve" smooth="yes"/>
      <point x="1317" y="1390.96"/>
      <point x="1296" y="1462.56"/>
      <point x="1256" y="1527" type="curve"/>
      <point x="1086" y="1527" type="line"/>
      <point x="1129" y="1454.36"/>
      <point x="1146" y="1385.81"/>
      <point x="1146" y="1306" type="curve" smooth="yes"/>
      <point x="1146" y="1211.79"/>
      <point x="1104" y="1135.82"/>
      <point x="1016" y="1072" type="curve"/>
      <point x="967" y="1024" type="line"/>
      <point x="753" y="897.077"/>
      <point x="615" y="763.103"/>
    </contour>
  </outline>
</glyph>
<glyph name="five.mlm" format="2">
  <advance width="2096"/>
  <unicode hex="0D6B"/>
  <outline>
    <contour>
      <point x="1796" y="608" type="curve" smooth="yes"/>
      <point x="1796" y="494" type="line" smooth="yes"/>
      <point x="1796" y="299.062"/>
      <point x="1762" y="133.722"/>
      <point x="1699" y="-1" type="curve"/>
      <point x="1889" y="-1" type="line"/>
      <point x="1953" y="116.366"/>
      <point x="1983" y="295.988"/>
      <point x="1983" y="495" type="curve" smooth="yes"/>
      <point x="1983" y="608" type="line" smooth="yes"/>
      <point x="1983" y="1176.58"/>
      <point x="1676" y="1472"/>
      <point x="1054" y="1472" type="curve" smooth="yes"/>
      <point x="427" y="1472"/>
      <point x="114" y="1165.57"/>
      <point x="114" y="578" type="curve" smooth="yes"/>
      <point x="114" y="421" type="line" smooth="yes"/>
      <point x="114" y="-82.5828"/>
      <point x="366" y="-344"/>
      <point x="875" y="-344" type="curve" smooth="yes"/>
      <point x="1289" y="-344"/>
      <point x="1507" y="-177.288"/>
      <point x="1507" y="143" type="curve" smooth="yes"/>
      <point x="1507" y="151" type="line" smooth="yes"/>
      <point x="1507" y="331.908"/>
      <point x="1426" y="437.608"/>
      <point x="1254" y="462" type="curve"/>
      <point x="1254" y="467" type="line"/>
      <point x="1408" y="488.326"/>
      <point x="1480" y="577.69"/>
      <point x="1480" y="729" type="curve" smooth="yes"/>
      <point x="1480" y="735" type="line" smooth="yes"/>
      <point x="1480" y="968.64"/>
      <point x="1338" y="1089"/>
      <point x="1053" y="1089" type="curve" smooth="yes"/>
      <point x="742" y="1089"/>
      <point x="588" y="928.674"/>
      <point x="588" y="607" type="curve" smooth="yes"/>
      <point x="588" y="442" type="line" smooth="yes"/>
      <point x="588" y="276.985"/>
      <point x="618" y="133.494"/>
      <point x="670" y="31" type="curve"/>
      <point x="858" y="31" type="line"/>
      <point x="806" y="141.693"/>
      <point x="775" y="278.01"/>
      <point x="775" y="442" type="curve" smooth="yes"/>
      <point x="775" y="608" type="line" smooth="yes"/>
      <point x="775" y="822.71"/>
      <point x="865" y="928"/>
      <point x="1056" y="928" type="curve" smooth="yes"/>
      <point x="1217" y="928"/>
      <point x="1292" y="858.647"/>
      <point x="1292" y="723" type="curve" smooth="yes"/>
      <point x="1292" y="715" type="line" smooth="yes"/>
      <point x="1292" y="601.373"/>
      <point x="1233.99" y="546.342"/>
      <point x="1107" y="542" type="curve" smooth="yes"/>
      <point x="990" y="538" type="line"/>
      <point x="990" y="385" type="line"/>
      <point x="1108" y="381" type="line" smooth="yes"/>
      <point x="1253.01" y="376.085"/>
      <point x="1319" y="304.28"/>
      <point x="1319" y="158" type="curve" smooth="yes"/>
      <point x="1319" y="152" type="line" smooth="yes"/>
      <point x="1319" y="-71.2836"/>
      <point x="1174" y="-188"/>
      <point x="874" y="-188" type="curve" smooth="yes"/>
      <point x="485" y="-188"/>
      <point x="302" y="19.3943"/>
      <point x="302" y="423" type="curve" smooth="yes"/>
      <point x="302" y="579" type="line" smooth="yes"/>
      <point x="302" y="1064.61"/>
      <point x="546" y="1314"/>
      <point x="1054" y="1314" type="curve" smooth="yes"/>
      <point x="1560" y="1314"/>
      <point x="1796" y="1074.61"/>
    </contour>
  </outline>
</glyph>
<glyph name="six.mlm" format="2">
  <advance width="2389"/>
  <unicode hex="0D6C"/>
  <outline>
    <contour>
      <point x="1829" y="1019" type="curve" smooth="yes"/>
      <point x="2003" y="1019"/>
      <point x="2085" y="901.676"/>
      <point x="2085" y="666" type="curve" smooth="yes"/>
      <point x="2085" y="345" type="line" smooth="yes"/>
      <point x="2085" y="-16.6355"/>
      <point x="1931" y="-200"/>
      <point x="1618" y="-200" type="curve" smooth="yes"/>
      <point x="1508" y="-200"/>
      <point x="1412" y="-188"/>
      <point x="1335" y="-166" type="curve"/>
      <point x="1373" y="-324" type="line"/>
      <point x="1453" y="-348"/>
      <point x="1541" y="-356"/>
      <point x="1636" y="-356" type="curve" smooth="yes"/>
      <point x="2060" y="-356"/>
      <point x="2273" y="-111.522"/>
      <point x="2273" y="347" type="curve" smooth="yes"/>
      <point x="2273" y="666" type="line" smooth="yes"/>
      <point x="2273" y="1014.67"/>
      <point x="2138" y="1189"/>
      <point x="1855" y="1189" type="curve" smooth="yes"/>
      <point x="1650" y="1189"/>
      <point x="1540" y="1093"/>
      <point x="1511" y="929" type="curve"/>
      <point x="1490" y="929" type="line"/>
      <point x="1497" y="554" type="line"/>
      <point x="1601" y="545" type="line"/>
      <point x="1601" y="745" type="line" smooth="yes"/>
      <point x="1601" y="928"/>
      <point x="1675" y="1019"/>
    </contour>
    <contour>
      <point x="116" y="703" type="curve" smooth="yes"/>
      <point x="116" y="481" type="line" smooth="yes"/>
      <point x="116" y="281.86"/>
      <point x="161.244" y="113.357"/>
      <point x="242" y="0" type="curve"/>
      <point x="439" y="0" type="line"/>
      <point x="361.143" y="121.532"/>
      <point x="304" y="283.915"/>
      <point x="304" y="480" type="curve" smooth="yes"/>
      <point x="304" y="703" type="line" smooth="yes"/>
      <point x="304" y="914.699"/>
      <point x="385" y="1019"/>
      <point x="551" y="1019" type="curve" smooth="yes"/>
      <point x="706" y="1019"/>
      <point x="779" y="928"/>
      <point x="779" y="745" type="curve" smooth="yes"/>
      <point x="779" y="545" type="line"/>
      <point x="871" y="542" type="line"/>
      <point x="871" y="928" type="line"/>
      <point x="843" y="1092"/>
      <point x="733" y="1189"/>
      <point x="526" y="1189" type="curve" smooth="yes"/>
      <point x="252" y="1189"/>
      <point x="116" y="1026.66"/>
    </contour>
    <contour>
      <point x="779" y="670" type="line"/>
      <point x="779" y="5" type="line"/>
      <point x="966" y="5" type="line"/>
      <point x="966" y="670" type="line"/>
    </contour>
    <contour>
      <point x="1190" y="1019" type="curve" smooth="yes"/>
      <point x="1343" y="1019"/>
      <point x="1414" y="928"/>
      <point x="1414" y="746" type="curve" smooth="yes"/>
      <point x="1414" y="547" type="line"/>
      <point x="1517" y="547" type="line"/>
      <point x="1506" y="929" type="line"/>
      <point x="1484" y="1094"/>
      <point x="1376" y="1189"/>
      <point x="1190" y="1189" type="curve" smooth="yes"/>
      <point x="1005" y="1189"/>
      <point x="898" y="1094"/>
      <point x="875" y="929" type="curve"/>
      <point x="843" y="929" type="line"/>
      <point x="855" y="547" type="line"/>
      <point x="966" y="547" type="line"/>
      <point x="966" y="746" type="line" smooth="yes"/>
      <point x="966" y="928"/>
      <point x="1038" y="1019"/>
    </contour>
    <contour>
      <point x="1414" y="674" type="line"/>
      <point x="1414" y="5" type="line"/>
      <point x="1601" y="5" type="line"/>
      <point x="1601" y="674" type="line"/>
    </contour>
  </outline>
</glyph>
<glyph name="eight.mlm" format="2">
  <advance width="1747"/>
  <unicode hex="0D6E"/>
  <outline>
    <contour>
      <point x="1568" y="149" type="line"/>
      <point x="947" y="149" type="line"/>
      <point x="766" y="0" type="line"/>
      <point x="1568" y="0" type="line"/>
    </contour>
    <contour>
      <point x="1414" y="102" type="line"/>
      <point x="1414" y="46" type="line"/>
      <point x="1414" y="-158"/>
      <point x="1299" y="-249"/>
      <point x="1059" y="-249" type="curve" smooth="yes"/>
      <point x="945" y="-249"/>
      <point x="846" y="-237"/>
      <point x="767" y="-213" type="curve"/>
      <point x="805" y="-371" type="line"/>
      <point x="888" y="-396"/>
      <point x="980" y="-404"/>
      <point x="1079" y="-404" type="curve" smooth="yes"/>
      <point x="1428" y="-404"/>
      <point x="1601" y="-258"/>
      <point x="1601" y="45" type="curve" smooth="yes"/>
      <point x="1601" y="1156" type="line"/>
      <point x="1414" y="1156" type="line"/>
    </contour>
    <contour>
      <point x="600" y="1025" type="curve" smooth="yes"/>
      <point x="797" y="1025"/>
      <point x="895" y="909.696"/>
      <point x="895" y="676" type="curve" smooth="yes"/>
      <point x="895" y="462" type="line" smooth="yes"/>
      <point x="895" y="278.941"/>
      <point x="840.842" y="125.54"/>
      <point x="767" y="11" type="curve"/>
      <point x="767" y="0" type="line"/>
      <point x="930" y="0" type="line"/>
      <point x="1040.93" y="117.533"/>
      <point x="1083" y="267.771"/>
      <point x="1083" y="464" type="curve" smooth="yes"/>
      <point x="1083" y="685" type="line" smooth="yes"/>
      <point x="1083" y="1018.58"/>
      <point x="920" y="1192"/>
      <point x="600" y="1192" type="curve" smooth="yes"/>
      <point x="280" y="1192"/>
      <point x="116" y="1018.63"/>
      <point x="116" y="677" type="curve" smooth="yes"/>
      <point x="116" y="464" type="line" smooth="yes"/>
      <point x="116" y="270.837"/>
      <point x="159.226" y="108.335"/>
      <point x="235" y="0" type="curve"/>
      <point x="432" y="0" type="line"/>
      <point x="360.083" y="116.522"/>
      <point x="304" y="273.929"/>
      <point x="304" y="462" type="curve" smooth="yes"/>
      <point x="304" y="676" type="line" smooth="yes"/>
      <point x="304" y="909.696"/>
      <point x="404" y="1025"/>
    </contour>
  </outline>
</glyph>
<glyph name="onequarter.mlm" format="2">
  <advance width="1209"/>
  <unicode hex="0D73"/>
  <outline>
    <contour>
      <point x="291" y="480" type="line"/>
      <point x="325.451" y="560.499"/>
      <point x="389.43" y="601"/>
      <point x="480" y="601" type="curve" smooth="yes"/>
      <point x="586" y="601"/>
      <point x="642" y="537.287"/>
      <point x="642" y="415" type="curve" smooth="yes"/>
      <point x="642" y="327" type="line" smooth="yes"/>
      <point x="642" y="193.632"/>
      <point x="584" y="129"/>
      <point x="474" y="129" type="curve" smooth="yes"/>
      <point x="355" y="129"/>
      <point x="295" y="198.504"/>
      <point x="295" y="360" type="curve" smooth="yes"/>
      <point x="295" y="513" type="line"/>
      <point x="309" y="589" type="line"/>
      <point x="289" y="589" type="line"/>
      <point x="289" y="591" type="line"/>
      <point x="289" y="845"/>
      <point x="435" y="986"/>
      <point x="730" y="986" type="curve" smooth="yes"/>
      <point x="1161" y="986" type="line"/>
      <point x="1137" y="1135" type="line"/>
      <point x="730" y="1135" type="line" smooth="yes"/>
      <point x="315" y="1135"/>
      <point x="112" y="939.56"/>
      <point x="112" y="561" type="curve" smooth="yes"/>
      <point x="112" y="373" type="line" smooth="yes"/>
      <point x="112" y="105.658"/>
      <point x="236" y="-27"/>
      <point x="474" y="-27" type="curve" smooth="yes"/>
      <point x="706" y="-27"/>
      <point x="825" y="93.7098"/>
      <point x="825" y="326" type="curve" smooth="yes"/>
      <point x="825" y="432" type="line" smooth="yes"/>
      <point x="825" y="650.359"/>
      <point x="729" y="757"/>
      <point x="556" y="757" type="curve" smooth="yes"/>
      <point x="404" y="757"/>
      <point x="310" y="681"/>
      <point x="283" y="542" type="curve"/>
    </contour>
  </outline>
</glyph>
<glyph name="onesixteenth.mlm" format="2">
  <advance width="2443"/>
  <unicode hex="0D76"/>
  <outline>
    <contour>
      <point x="717" y="146" type="line"/>
      <point x="679" y="0" type="line"/>
      <point x="1301" y="0" type="line"/>
      <point x="1301" y="146" type="line"/>
    </contour>
    <contour>
      <point x="499" y="781" type="curve" smooth="yes"/>
      <point x="236" y="781"/>
      <point x="103" y="643.948"/>
      <point x="103" y="371" type="curve" smooth="yes"/>
      <point x="103" y="304" type="line" smooth="yes"/>
      <point x="103" y="178.943"/>
      <point x="127" y="72.1873"/>
      <point x="176" y="0" type="curve"/>
      <point x="365" y="0" type="line"/>
      <point x="318" y="78.2876"/>
      <point x="289" y="178.943"/>
      <point x="289" y="304" type="curve" smooth="yes"/>
      <point x="289" y="368" type="line" smooth="yes"/>
      <point x="289" y="535.975"/>
      <point x="358" y="618"/>
      <point x="498" y="618" type="curve" smooth="yes"/>
      <point x="640" y="618"/>
      <point x="710" y="535.975"/>
      <point x="710" y="368" type="curve" smooth="yes"/>
      <point x="710" y="304" type="line" smooth="yes"/>
      <point x="710" y="184.969"/>
      <point x="680" y="87.3021"/>
      <point x="628" y="11" type="curve"/>
      <point x="628" y="0" type="line"/>
      <point x="771" y="0" type="line"/>
      <point x="852.693" y="77.2338"/>
      <point x="896" y="178.857"/>
      <point x="896" y="313" type="curve" smooth="yes"/>
      <point x="896" y="386" type="line" smooth="yes"/>
      <point x="896" y="648.946"/>
      <point x="764" y="781"/>
    </contour>
    <contour>
      <point x="1257" y="140" type="line"/>
      <point x="1185" y="0" type="line"/>
      <point x="2283" y="0" type="line"/>
      <point x="2249" y="140" type="line"/>
    </contour>
    <contour>
      <point x="1736" y="1039" type="curve" smooth="yes"/>
      <point x="1996" y="1039"/>
      <point x="2127" y="907.886"/>
      <point x="2127" y="618" type="curve" smooth="yes"/>
      <point x="2127" y="0" type="line"/>
      <point x="2307" y="0" type="line"/>
      <point x="2307" y="617" type="line" smooth="yes"/>
      <point x="2307" y="997.619"/>
      <point x="2119" y="1192"/>
      <point x="1736" y="1192" type="curve" smooth="yes"/>
      <point x="1354" y="1192"/>
      <point x="1165" y="997.613"/>
      <point x="1165" y="618" type="curve" smooth="yes"/>
      <point x="1165" y="0" type="line"/>
      <point x="1344" y="0" type="line"/>
      <point x="1344" y="618" type="line" smooth="yes"/>
      <point x="1344" y="908.91"/>
      <point x="1466" y="1039"/>
    </contour>
    <contour>
      <point x="1873.28" y="652" type="line" smooth="yes"/>
      <point x="1873.28" y="878"/>
      <point x="1759.88" y="1005"/>
      <point x="1552.28" y="1005" type="curve" smooth="yes"/>
      <point x="1513.47" y="1005"/>
      <point x="1466.56" y="1000"/>
      <point x="1421.28" y="980" type="curve"/>
      <point x="1372.28" y="868" type="line"/>
      <point x="1410.53" y="888.6"/>
      <point x="1450.51" y="895"/>
      <point x="1485.28" y="895" type="curve" smooth="yes"/>
      <point x="1621.41" y="895"/>
      <point x="1687.28" y="805.741"/>
      <point x="1687.28" y="654" type="curve" smooth="yes"/>
      <point x="1687.28" y="631" type="line" smooth="yes"/>
      <point x="1687.28" y="422"/>
      <point x="1588.28" y="253"/>
      <point x="1433.28" y="139" type="curve"/>
      <point x="1598.28" y="106" type="line"/>
      <point x="1769.28" y="215"/>
      <point x="1873.28" y="402"/>
      <point x="1873.28" y="628" type="curve" smooth="yes"/>
    </contour>
  </outline>
</glyph>
<glyph name="oneeighth.mlm" format="2">
  <advance width="3484"/>
  <unicode hex="0D77"/>
  <outline>
    <contour>
      <point x="499" y="781" type="curve" smooth="yes"/>
      <point x="236" y="781"/>
      <point x="103" y="643.948"/>
      <point x="103" y="371" type="curve" smooth="yes"/>
      <point x="103" y="304" type="line" smooth="yes"/>
      <point x="103" y="178.943"/>
      <point x="127" y="72.1873"/>
      <point x="176" y="0" type="curve"/>
      <point x="365" y="0" type="line"/>
      <point x="318" y="78.2876"/>
      <point x="289" y="178.943"/>
      <point x="289" y="304" type="curve" smooth="yes"/>
      <point x="289" y="368" type="line" smooth="yes"/>
      <point x="289" y="535.975"/>
      <point x="358" y="618"/>
      <point x="498" y="618" type="curve" smooth="yes"/>
      <point x="640" y="618"/>
      <point x="710" y="535.975"/>
      <point x="710" y="368" type="curve" smooth="yes"/>
      <point x="710" y="304" type="line" smooth="yes"/>
      <point x="710" y="184.969"/>
      <point x="680" y="87.3021"/>
      <point x="628" y="11" type="curve"/>
      <point x="628" y="0" type="line"/>
      <point x="771" y="0" type="line"/>
      <point x="852.693" y="77.2338"/>
      <point x="896" y="178.857"/>
      <point x="896" y="313" type="curve" smooth="yes"/>
      <point x="896" y="386" type="line" smooth="yes"/>
      <point x="896" y="648.946"/>
      <point x="764" y="781"/>
    </contour>
    <contour>
      <point x="1861" y="653" type="line"/>
      <point x="1861" y="274" type="line"/>
      <point x="2048" y="274" type="line"/>
      <point x="2048" y="670" type="line"/>
    </contour>
    <contour>
      <point x="2428" y="1189" type="curve" smooth="yes"/>
      <point x="2168" y="1189"/>
      <point x="2009" y="1091"/>
      <point x="1964" y="917" type="curve"/>
      <point x="1931" y="917" type="line"/>
      <point x="1936" y="576" type="line"/>
      <point x="2048" y="576" type="line"/>
      <point x="2048" y="696" type="line" smooth="yes"/>
      <point x="2048" y="914"/>
      <point x="2176" y="1026"/>
      <point x="2423" y="1026" type="curve" smooth="yes"/>
      <point x="2685" y="1026"/>
      <point x="2813" y="880.459"/>
      <point x="2813" y="615" type="curve" smooth="yes"/>
      <point x="2813" y="358" type="line" smooth="yes"/>
      <point x="2813" y="201.585"/>
      <point x="2756" y="129"/>
      <point x="2643" y="129" type="curve" smooth="yes"/>
      <point x="2532" y="129"/>
      <point x="2472" y="196.728"/>
      <point x="2472" y="325" type="curve" smooth="yes"/>
      <point x="2472" y="391" type="line" smooth="yes"/>
      <point x="2472" y="520.281"/>
      <point x="2530" y="588"/>
      <point x="2654" y="588" type="curve" smooth="yes"/>
      <point x="2919" y="588" type="line"/>
      <point x="2942" y="735" type="line"/>
      <point x="2628" y="735" type="line" smooth="yes"/>
      <point x="2404" y="735"/>
      <point x="2289" y="620.298"/>
      <point x="2289" y="398" type="curve" smooth="yes"/>
      <point x="2289" y="324" type="line" smooth="yes"/>
      <point x="2289" y="94.7341"/>
      <point x="2411" y="-27"/>
      <point x="2642" y="-27" type="curve" smooth="yes"/>
      <point x="2876" y="-27"/>
      <point x="2996" y="104.675"/>
      <point x="2996" y="366" type="curve" smooth="yes"/>
      <point x="2996" y="594" type="line" smooth="yes"/>
      <point x="2996" y="987.615"/>
      <point x="2807" y="1189"/>
    </contour>
    <contour>
      <point x="1196" y="713" type="curve" smooth="yes"/>
      <point x="1196" y="485" type="line" smooth="yes"/>
      <point x="1196" y="279.768"/>
      <point x="1241.94" y="122.526"/>
      <point x="1352" y="0" type="curve"/>
      <point x="1515" y="0" type="line"/>
      <point x="1515" y="11" type="line"/>
      <point x="1437.24" y="131.571"/>
      <point x="1384" y="290.969"/>
      <point x="1384" y="480" type="curve" smooth="yes"/>
      <point x="1384" y="703" type="line" smooth="yes"/>
      <point x="1384" y="914.699"/>
      <point x="1466" y="1019"/>
      <point x="1633" y="1019" type="curve" smooth="yes"/>
      <point x="1787" y="1019"/>
      <point x="1861" y="929"/>
      <point x="1861" y="746" type="curve" smooth="yes"/>
      <point x="1861" y="542" type="line"/>
      <point x="1977" y="545" type="line"/>
      <point x="1959" y="917" type="line"/>
      <point x="1934" y="1096"/>
      <point x="1815" y="1189"/>
      <point x="1608" y="1189" type="curve" smooth="yes"/>
      <point x="1333" y="1189"/>
      <point x="1196" y="1030.67"/>
    </contour>
    <contour>
      <point x="721" y="148" type="line"/>
      <point x="633" y="0" type="line"/>
      <point x="1496" y="0" type="line"/>
      <point x="1374" y="148" type="line"/>
    </contour>
    <contour>
      <point x="3392" y="1057" type="curve"/>
      <point x="3231" y="1057" type="line"/>
      <point x="3231" y="911" type="line" smooth="yes"/>
      <point x="3231" y="792"/>
      <point x="3181" y="735"/>
      <point x="3070" y="735" type="curve" smooth="yes"/>
      <point x="2908" y="735" type="line"/>
      <point x="2893" y="588" type="line"/>
      <point x="3105" y="588" type="line" smooth="yes"/>
      <point x="3302" y="588"/>
      <point x="3403" y="685"/>
      <point x="3403" y="887" type="curve" smooth="yes"/>
      <point x="3403" y="951"/>
      <point x="3400" y="992"/>
    </contour>
  </outline>
</glyph>
<glyph name="chilluRr.mlm" format="2">
  <advance width="1448"/>
  <unicode hex="0D7C"/>
  <outline>
    <contour>
      <point x="617" y="532" type="curve" smooth="yes"/>
      <point x="617" y="349" type="line" smooth="yes"/>
      <point x="617" y="102.734"/>
      <point x="738" y="-28"/>
      <point x="975" y="-28" type="curve" smooth="yes"/>
      <point x="1217" y="-28"/>
      <point x="1337" y="109.739"/>
      <point x="1337" y="368" type="curve" smooth="yes"/>
      <point x="1337" y="574" type="line" smooth="yes"/>
      <point x="1337" y="886.275"/>
      <point x="1209" y="1097.85"/>
      <point x="927" y="1166" type="curve"/>
      <point x="867" y="1179" type="line"/>
      <point x="823" y="1187"/>
      <point x="775" y="1191"/>
      <point x="722" y="1191" type="curve" smooth="yes"/>
      <point x="317" y="1191"/>
      <point x="115" y="983.56"/>
      <point x="115" y="588" type="curve" smooth="yes"/>
      <point x="115" y="447" type="line" smooth="yes"/>
      <point x="115" y="266.973"/>
      <point x="155" y="106.38"/>
      <point x="227" y="0" type="curve"/>
      <point x="421" y="0" type="line"/>
      <point x="346" y="117.638"/>
      <point x="303" y="268.009"/>
      <point x="303" y="446" type="curve" smooth="yes"/>
      <point x="303" y="583" type="line" smooth="yes"/>
      <point x="303" y="885.712"/>
      <point x="442" y="1034"/>
      <point x="726" y="1034" type="curve" smooth="yes"/>
      <point x="774" y="1034"/>
      <point x="815" y="1028"/>
      <point x="852" y="1019" type="curve"/>
      <point x="891" y="1006" type="line"/>
      <point x="1065" y="953.806"/>
      <point x="1149" y="803.363"/>
      <point x="1149" y="569" type="curve" smooth="yes"/>
      <point x="1149" y="365" type="line" smooth="yes"/>
      <point x="1149" y="208.674"/>
      <point x="1096" y="130"/>
      <point x="976" y="130" type="curve" smooth="yes"/>
      <point x="862" y="130"/>
      <point x="803" y="202.667"/>
      <point x="803" y="348" type="curve" smooth="yes"/>
      <point x="803" y="533" type="line" smooth="yes"/>
      <point x="803" y="733.033"/>
      <point x="854" y="875.48"/>
      <point x="930" y="1025" type="curve"/>
      <point x="935" y="1039"/>
      <point x="958" y="1101"/>
      <point x="963" y="1115" type="curve"/>
      <point x="987" y="1179.02"/>
      <point x="999" y="1239.98"/>
      <point x="999" y="1304" type="curve" smooth="yes"/>
      <point x="999" y="1395.98"/>
      <point x="979" y="1468.55"/>
      <point x="938" y="1536" type="curve"/>
      <point x="765" y="1536" type="line"/>
      <point x="809" y="1460.39"/>
      <point x="828" y="1386.83"/>
      <point x="828" y="1301" type="curve" smooth="yes"/>
      <point x="828" y="1243.94"/>
      <point x="818" y="1192.99"/>
      <point x="798" y="1140" type="curve"/>
      <point x="794" y="1127"/>
      <point x="777" y="1080"/>
      <point x="771" y="1065" type="curve"/>
      <point x="674" y="908.532"/>
      <point x="617" y="766.197"/>
    </contour>
  </outline>
</glyph>
<glyph name="BaBa.mlm" format="2">
  <advance width="2614"/>
  <outline>
    <component base="Ba.mlm"/>
    <contour>
      <point x="2296" y="133" type="line"/>
      <point x="2296" y="-471" type="line"/>
      <point x="2468" y="-471" type="line"/>
      <point x="2468" y="133" type="line"/>
    </contour>
    <contour>
      <point x="1722" y="-337" type="line"/>
      <point x="1894" y="-259"/>
      <point x="2022" y="-123"/>
      <point x="2053" y="34" type="curve"/>
      <point x="1875" y="36" type="line"/>
      <point x="1845" y="-125"/>
      <point x="1667" y="-256"/>
      <point x="1433" y="-340" type="curve"/>
      <point x="1452" y="-471" type="line"/>
      <point x="2433" y="-471" type="line"/>
      <point x="2438" y="-337" type="line"/>
    </contour>
  </outline>
</glyph>
<glyph name="BaDha.mlm" format="2">
  <advance width="2614"/>
  <outline>
    <contour>
      <point x="1800" y="-531" type="curve" smooth="yes"/>
      <point x="1921" y="-531"/>
      <point x="1997" y="-483"/>
      <point x="2018" y="-395" type="curve"/>
      <point x="2046" y="-226" type="line"/>
      <point x="1950" y="-222" type="line"/>
      <point x="1950" y="-265" type="line" smooth="yes"/>
      <point x="1950" y="-363"/>
      <point x="1906" y="-410"/>
      <point x="1817" y="-410" type="curve" smooth="yes"/>
      <point x="1726" y="-410"/>
      <point x="1681" y="-356.076"/>
      <point x="1681" y="-244" type="curve" smooth="yes"/>
      <point x="1681" y="-222" type="line" smooth="yes"/>
      <point x="1681" y="-126.996"/>
      <point x="1710" y="-48.3362"/>
      <point x="1772" y="15" type="curve"/>
      <point x="1847" y="73" type="line"/>
      <point x="1907.64" y="182.059"/>
      <point x="1944" y="290.833"/>
      <point x="1944" y="485" type="curve" smooth="yes"/>
      <point x="1944" y="718" type="line" smooth="yes"/>
      <point x="1944" y="1032.7"/>
      <point x="1807" y="1188"/>
      <point x="1524" y="1188" type="curve" smooth="yes"/>
      <point x="1317" y="1188"/>
      <point x="1197" y="1096.07"/>
      <point x="1171" y="916" type="curve"/>
      <point x="1121" y="916" type="line"/>
      <point x="1121" y="559" type="line"/>
      <point x="1265" y="556" type="line"/>
      <point x="1265" y="743" type="line" smooth="yes"/>
      <point x="1265" y="927"/>
      <point x="1341" y="1018"/>
      <point x="1500" y="1018" type="curve" smooth="yes"/>
      <point x="1673" y="1018"/>
      <point x="1756" y="915.733"/>
      <point x="1756" y="705" type="curve" smooth="yes"/>
      <point x="1756" y="481" type="line" smooth="yes"/>
      <point x="1756" y="302.972"/>
      <point x="1709" y="155.639"/>
      <point x="1635" y="39" type="curve"/>
      <point x="1567" y="-32.341"/>
      <point x="1536" y="-111.835"/>
      <point x="1536" y="-227" type="curve" smooth="yes"/>
      <point x="1536" y="-249" type="line" smooth="yes"/>
      <point x="1536" y="-436.651"/>
      <point x="1627" y="-531"/>
    </contour>
    <contour>
      <point x="2241" y="-531" type="curve" smooth="yes"/>
      <point x="2415" y="-531"/>
      <point x="2505" y="-436.651"/>
      <point x="2505" y="-249" type="curve" smooth="yes"/>
      <point x="2505" y="-227" type="line" smooth="yes"/>
      <point x="2505" y="-115.871"/>
      <point x="2475" y="-31.25"/>
      <point x="2413" y="34" type="curve"/>
      <point x="2272" y="15" type="line"/>
      <point x="2332" y="-48.3362"/>
      <point x="2361" y="-126.996"/>
      <point x="2361" y="-222" type="curve" smooth="yes"/>
      <point x="2361" y="-244" type="line" smooth="yes"/>
      <point x="2361" y="-356.076"/>
      <point x="2316" y="-410"/>
      <point x="2225" y="-410" type="curve" smooth="yes"/>
      <point x="2136" y="-410"/>
      <point x="2092" y="-363"/>
      <point x="2092" y="-265" type="curve" smooth="yes"/>
      <point x="2092" y="-222" type="line"/>
      <point x="1996" y="-226" type="line"/>
      <point x="2004" y="-395" type="line"/>
      <point x="2023" y="-395" type="line"/>
      <point x="2045" y="-483"/>
      <point x="2120" y="-531"/>
    </contour>
    <contour>
      <point x="1785" y="148" type="line"/>
      <point x="1620" y="0" type="line"/>
      <point x="2434" y="0" type="line"/>
      <point x="2434" y="148" type="line"/>
    </contour>
    <contour>
      <point x="2280" y="1156" type="line"/>
      <point x="2280" y="0" type="line"/>
      <point x="2467" y="0" type="line"/>
      <point x="2467" y="1156" type="line"/>
    </contour>
    <contour>
      <point x="2092" y="-258" type="line"/>
      <point x="2092" y="39" type="line"/>
      <point x="1950" y="39" type="line"/>
      <point x="1950" y="-261" type="line"/>
    </contour>
    <contour>
      <point x="1078" y="5" type="line"/>
      <point x="1265" y="5" type="line"/>
      <point x="1265" y="683" type="line"/>
      <point x="1078" y="648" type="line"/>
    </contour>
    <contour>
      <point x="686" y="1189" type="curve" smooth="yes"/>
      <point x="303" y="1189"/>
      <point x="112" y="979.487"/>
      <point x="112" y="581" type="curve" smooth="yes"/>
      <point x="112" y="381" type="line" smooth="yes"/>
      <point x="112" y="108.317"/>
      <point x="237" y="-27"/>
      <point x="478" y="-27" type="curve" smooth="yes"/>
      <point x="712" y="-27"/>
      <point x="833" y="96.4188"/>
      <point x="833" y="334" type="curve" smooth="yes"/>
      <point x="833" y="431" type="line" smooth="yes"/>
      <point x="833" y="653.708"/>
      <point x="736" y="763"/>
      <point x="562" y="763" type="curve" smooth="yes"/>
      <point x="406" y="763"/>
      <point x="311" y="685"/>
      <point x="283" y="542" type="curve"/>
      <point x="291" y="480" type="line"/>
      <point x="326.18" y="564.491"/>
      <point x="391.513" y="607"/>
      <point x="484" y="607" type="curve" smooth="yes"/>
      <point x="593" y="607"/>
      <point x="650" y="541.612"/>
      <point x="650" y="414" type="curve" smooth="yes"/>
      <point x="650" y="335" type="line" smooth="yes"/>
      <point x="650" y="196.265"/>
      <point x="591" y="129"/>
      <point x="478" y="129" type="curve" smooth="yes"/>
      <point x="356" y="129"/>
      <point x="295" y="201.013"/>
      <point x="295" y="368" type="curve" smooth="yes"/>
      <point x="295" y="513" type="line"/>
      <point x="309" y="589" type="line"/>
      <point x="289" y="589" type="line"/>
      <point x="289" y="591" type="line"/>
      <point x="289" y="882.014"/>
      <point x="426" y="1026"/>
      <point x="695" y="1026" type="curve" smooth="yes"/>
      <point x="950" y="1026"/>
      <point x="1078" y="913"/>
      <point x="1078" y="696" type="curve" smooth="yes"/>
      <point x="1078" y="581" type="line"/>
      <point x="1167" y="581" type="line"/>
      <point x="1166" y="916" type="line"/>
      <point x="1122" y="1092"/>
      <point x="960" y="1189"/>
    </contour>
  </outline>
</glyph>
<glyph name="BaLa.mlm" format="2">
  <advance width="2614"/>
  <outline>
    <component base="Ba.mlm"/>
    <contour>
      <point x="1610" y="90" type="curve" smooth="yes"/>
      <point x="1337.32" y="90"/>
      <point x="1199" y="-24.9174"/>
      <point x="1199" y="-256" type="curve" smooth="yes"/>
      <point x="1199" y="-278" type="line" smooth="yes"/>
      <point x="1199" y="-448"/>
      <point x="1287.67" y="-533"/>
      <point x="1465" y="-533" type="curve" smooth="yes"/>
      <point x="1631.35" y="-533"/>
      <point x="1719" y="-465.33"/>
      <point x="1719" y="-331" type="curve" smooth="yes"/>
      <point x="1719" y="-321" type="line" smooth="yes"/>
      <point x="1719" y="-196.698"/>
      <point x="1645.37" y="-130"/>
      <point x="1519" y="-130" type="curve" smooth="yes"/>
      <point x="1424.51" y="-130"/>
      <point x="1359.86" y="-176.452"/>
      <point x="1335" y="-258" type="curve"/>
      <point x="1341" y="-301" type="line"/>
      <point x="1362.83" y="-262.517"/>
      <point x="1408.47" y="-239"/>
      <point x="1469" y="-239" type="curve" smooth="yes"/>
      <point x="1539.34" y="-239"/>
      <point x="1575" y="-269"/>
      <point x="1575" y="-327" type="curve" smooth="yes"/>
      <point x="1575" y="-334" type="line" smooth="yes"/>
      <point x="1575" y="-393"/>
      <point x="1535.36" y="-422"/>
      <point x="1464" y="-422" type="curve" smooth="yes"/>
      <point x="1381.68" y="-422"/>
      <point x="1343" y="-383.957"/>
      <point x="1343" y="-289" type="curve" smooth="yes"/>
      <point x="1343" y="-270" type="line"/>
      <point x="1355" y="-239" type="line"/>
      <point x="1337" y="-239" type="line"/>
      <point x="1337" y="-110.745"/>
      <point x="1432.24" y="-28"/>
      <point x="1607" y="-28" type="curve" smooth="yes"/>
      <point x="1790.34" y="-28"/>
      <point x="1872.01" y="-105.182"/>
      <point x="1883" y="-248" type="curve" smooth="yes"/>
      <point x="1885" y="-274" type="line" smooth="yes"/>
      <point x="1898.11" y="-444.416"/>
      <point x="1980" y="-533"/>
      <point x="2177" y="-533" type="curve" smooth="yes"/>
      <point x="2368" y="-533"/>
      <point x="2465" y="-438"/>
      <point x="2465" y="-248" type="curve" smooth="yes"/>
      <point x="2465" y="-228" type="line" smooth="yes"/>
      <point x="2465" y="-120.127"/>
      <point x="2433.1" y="-40.4816"/>
      <point x="2374" y="19" type="curve"/>
      <point x="2226" y="15" type="line"/>
      <point x="2288.62" y="-48.4211"/>
      <point x="2317" y="-124.526"/>
      <point x="2317" y="-226" type="curve" smooth="yes"/>
      <point x="2317" y="-246" type="line" smooth="yes"/>
      <point x="2317" y="-354.974"/>
      <point x="2273" y="-410"/>
      <point x="2177" y="-410" type="curve" smooth="yes"/>
      <point x="2078" y="-410"/>
      <point x="2036.8" y="-357.361"/>
      <point x="2029" y="-256" type="curve" smooth="yes"/>
      <point x="2027" y="-230" type="line" smooth="yes"/>
      <point x="2017.98" y="-112.718"/>
      <point x="1968.3" y="-26.8137"/>
      <point x="1868.27" y="18.9556" type="curve"/>
      <point x="1866.79" y="20.7617"/>
      <point x="1859.14" y="30.0874"/>
      <point x="1857.58" y="31.9928" type="curve"/>
      <point x="1794.71" y="70.3677"/>
      <point x="1712.98" y="90"/>
    </contour>
  </outline>
</glyph>
<glyph name="DaDa.mlm" format="2">
  <advance width="1248"/>
  <outline>
    <contour>
      <point x="1141" y="361" type="curve" smooth="yes"/>
      <point x="1141" y="370" type="line" smooth="yes"/>
      <point x="1141" y="514"/>
      <point x="1067" y="587"/>
      <point x="912" y="605" type="curve"/>
      <point x="912" y="611" type="line"/>
      <point x="1060" y="631"/>
      <point x="1130" y="712"/>
      <point x="1130" y="850" type="curve" smooth="yes"/>
      <point x="1130" y="857" type="line" smooth="yes"/>
      <point x="1130" y="1076.62"/>
      <point x="970" y="1192"/>
      <point x="655" y="1192" type="curve" smooth="yes"/>
      <point x="292" y="1192"/>
      <point x="117" y="1013.32"/>
      <point x="117" y="657" type="curve" smooth="yes"/>
      <point x="117" y="441" type="line" smooth="yes"/>
      <point x="117" y="257.847"/>
      <point x="145" y="105.39"/>
      <point x="197" y="0" type="curve"/>
      <point x="387" y="0" type="line"/>
      <point x="336" y="118.698"/>
      <point x="305" y="259.907"/>
      <point x="305" y="440" type="curve" smooth="yes"/>
      <point x="305" y="656" type="line" smooth="yes"/>
      <point x="305" y="908.465"/>
      <point x="415" y="1031"/>
      <point x="656" y="1031" type="curve" smooth="yes"/>
      <point x="849" y="1031"/>
      <point x="940" y="965.646"/>
      <point x="940" y="838" type="curve" smooth="yes"/>
      <point x="940" y="831" type="line" smooth="yes"/>
      <point x="940" y="734"/>
      <point x="884" y="688"/>
      <point x="762" y="686" type="curve" smooth="yes"/>
      <point x="597" y="683" type="line"/>
      <point x="597" y="528" type="line"/>
      <point x="765" y="525" type="line" smooth="yes"/>
      <point x="893" y="523"/>
      <point x="950" y="472"/>
      <point x="950" y="371" type="curve" smooth="yes"/>
      <point x="950" y="359" type="line" smooth="yes"/>
      <point x="950" y="259"/>
      <point x="895" y="208"/>
      <point x="768" y="206" type="curve" smooth="yes"/>
      <point x="597" y="203" type="line"/>
      <point x="597" y="48" type="line"/>
      <point x="767" y="45" type="line" smooth="yes"/>
      <point x="895" y="43"/>
      <point x="953" y="-8"/>
      <point x="953" y="-106" type="curve" smooth="yes"/>
      <point x="953" y="-115" type="line" smooth="yes"/>
      <point x="953" y="-220.355"/>
      <point x="886" y="-272"/>
      <point x="742" y="-272" type="curve" smooth="yes"/>
      <point x="664" y="-272"/>
      <point x="588" y="-263"/>
      <point x="512" y="-241" type="curve"/>
      <point x="535" y="-395" type="line"/>
      <point x="612" y="-419"/>
      <point x="696" y="-428"/>
      <point x="776" y="-428" type="curve" smooth="yes"/>
      <point x="1022" y="-428"/>
      <point x="1141" y="-332.333"/>
      <point x="1141" y="-141" type="curve" smooth="yes"/>
      <point x="1141" y="-129" type="line" smooth="yes"/>
      <point x="1141" y="14"/>
      <point x="1069" y="98"/>
      <point x="918" y="120" type="curve"/>
      <point x="918" y="125" type="line"/>
      <point x="1069" y="144"/>
      <point x="1141" y="219"/>
    </contour>
  </outline>
</glyph>
<glyph name="GaDa.mlm" format="2">
  <advance width="1804"/>
  <outline>
    <contour>
      <point x="1222" y="1192" type="curve" smooth="yes"/>
      <point x="896" y="1192"/>
      <point x="732" y="1045.66"/>
      <point x="732" y="754" type="curve" smooth="yes"/>
      <point x="732" y="635.562"/>
      <point x="745" y="512.386"/>
      <point x="745" y="393" type="curve" smooth="yes"/>
      <point x="745" y="222.306"/>
      <point x="677" y="138"/>
      <point x="535" y="138" type="curve" smooth="yes"/>
      <point x="381" y="138"/>
      <point x="304" y="235.275"/>
      <point x="304" y="435" type="curve" smooth="yes"/>
      <point x="304" y="665" type="line" smooth="yes"/>
      <point x="304" y="867.142"/>
      <point x="365.217" y="1029.47"/>
      <point x="456" y="1153" type="curve"/>
      <point x="265" y="1153" type="line"/>
      <point x="169.268" y="1035.61"/>
      <point x="116" y="867.179"/>
      <point x="116" y="662" type="curve" smooth="yes"/>
      <point x="116" y="434" type="line" smooth="yes"/>
      <point x="116" y="127.378"/>
      <point x="256" y="-29"/>
      <point x="535" y="-29" type="curve" smooth="yes"/>
      <point x="798" y="-29"/>
      <point x="932" y="112.407"/>
      <point x="932" y="386" type="curve" smooth="yes"/>
      <point x="932" y="504.404"/>
      <point x="920" y="628.491"/>
      <point x="920" y="745" type="curve" smooth="yes"/>
      <point x="920" y="938.775"/>
      <point x="1018" y="1031"/>
      <point x="1222" y="1031" type="curve" smooth="yes"/>
      <point x="1405" y="1031"/>
      <point x="1493" y="963.687"/>
      <point x="1493" y="826" type="curve" smooth="yes"/>
      <point x="1493" y="820" type="line" smooth="yes"/>
      <point x="1493" y="714.289"/>
      <point x="1433.01" y="666.763"/>
      <point x="1305" y="664" type="curve" smooth="yes"/>
      <point x="1166" y="661" type="line"/>
      <point x="1166" y="507" type="line"/>
      <point x="1306" y="503" type="line" smooth="yes"/>
      <point x="1448" y="498.943"/>
      <point x="1511" y="446.363"/>
      <point x="1511" y="330" type="curve" smooth="yes"/>
      <point x="1511" y="319" type="line" smooth="yes"/>
      <point x="1511" y="194.274"/>
      <point x="1444" y="136"/>
      <point x="1303" y="136" type="curve" smooth="yes"/>
      <point x="1231" y="136"/>
      <point x="1164" y="143"/>
      <point x="1094" y="160" type="curve"/>
      <point x="1116" y="7" type="line"/>
      <point x="1186" y="-12"/>
      <point x="1260" y="-20"/>
      <point x="1337" y="-20" type="curve" smooth="yes"/>
      <point x="1581" y="-20"/>
      <point x="1700" y="81.3029"/>
      <point x="1700" y="291" type="curve" smooth="yes"/>
      <point x="1700" y="306" type="line" smooth="yes"/>
      <point x="1700" y="471.996"/>
      <point x="1620" y="561.614"/>
      <point x="1456" y="583" type="curve"/>
      <point x="1456" y="588" type="line"/>
      <point x="1610" y="608.323"/>
      <point x="1682" y="692.661"/>
      <point x="1682" y="840" type="curve" smooth="yes"/>
      <point x="1682" y="845" type="line" smooth="yes"/>
      <point x="1682" y="1076.67"/>
      <point x="1527" y="1192"/>
    </contour>
  </outline>
</glyph>
<glyph name="GaDaDha.mlm" format="2">
  <advance width="2952"/>
  <outline>
    <contour>
      <point x="2178" y="483" type="line"/>
      <point x="2178" y="1147" type="line"/>
      <point x="1991" y="1147" type="line"/>
      <point x="1991" y="483" type="line"/>
    </contour>
    <contour>
      <point x="1991" y="611" type="line"/>
      <point x="1991" y="412" type="line" smooth="yes"/>
      <point x="1991" y="233"/>
      <point x="1917" y="149"/>
      <point x="1763" y="149" type="curve" smooth="yes"/>
      <point x="1425" y="149" type="line"/>
      <point x="1343" y="0" type="line"/>
      <point x="1738" y="0" type="line" smooth="yes"/>
      <point x="1943" y="0"/>
      <point x="2056" y="84"/>
      <point x="2081" y="225" type="curve"/>
      <point x="2132" y="225" type="line"/>
      <point x="2136" y="589" type="line"/>
    </contour>
    <contour>
      <point x="1700" y="340" type="line" smooth="yes"/>
      <point x="1700" y="487.013"/>
      <point x="1629" y="567.665"/>
      <point x="1456" y="584" type="curve"/>
      <point x="1456" y="589" type="line"/>
      <point x="1609" y="609.323"/>
      <point x="1682" y="693.661"/>
      <point x="1682" y="841" type="curve" smooth="yes"/>
      <point x="1682" y="846" type="line" smooth="yes"/>
      <point x="1682" y="1076.67"/>
      <point x="1527" y="1192"/>
      <point x="1223" y="1192" type="curve" smooth="yes"/>
      <point x="895" y="1192"/>
      <point x="732" y="1045.66"/>
      <point x="732" y="754" type="curve" smooth="yes"/>
      <point x="732" y="635.562"/>
      <point x="745" y="512.386"/>
      <point x="745" y="393" type="curve" smooth="yes"/>
      <point x="745" y="222.306"/>
      <point x="676" y="138"/>
      <point x="535" y="138" type="curve" smooth="yes"/>
      <point x="380" y="138"/>
      <point x="304" y="235.275"/>
      <point x="304" y="435" type="curve" smooth="yes"/>
      <point x="304" y="665" type="line" smooth="yes"/>
      <point x="304" y="867.142"/>
      <point x="365.217" y="1029.47"/>
      <point x="456" y="1153" type="curve"/>
      <point x="265" y="1153" type="line"/>
      <point x="169.268" y="1035.61"/>
      <point x="116" y="867.179"/>
      <point x="116" y="662" type="curve" smooth="yes"/>
      <point x="116" y="434" type="line" smooth="yes"/>
      <point x="116" y="127.378"/>
      <point x="257" y="-29"/>
      <point x="536" y="-29" type="curve" smooth="yes"/>
      <point x="799" y="-29"/>
      <point x="932" y="112.407"/>
      <point x="932" y="386" type="curve" smooth="yes"/>
      <point x="932" y="504.404"/>
      <point x="920" y="628.491"/>
      <point x="920" y="745" type="curve" smooth="yes"/>
      <point x="920" y="938.775"/>
      <point x="1019" y="1031"/>
      <point x="1224" y="1031" type="curve" smooth="yes"/>
      <point x="1406" y="1031"/>
      <point x="1493" y="964.7"/>
      <point x="1493" y="827" type="curve" smooth="yes"/>
      <point x="1493" y="821" type="line" smooth="yes"/>
      <point x="1493" y="715.307"/>
      <point x="1433.01" y="666.722"/>
      <point x="1306" y="664" type="curve" smooth="yes"/>
      <point x="1166" y="661" type="line"/>
      <point x="1166" y="507" type="line"/>
      <point x="1307" y="503" type="line" smooth="yes"/>
      <point x="1448" y="499"/>
      <point x="1511" y="447.373"/>
      <point x="1511" y="332" type="curve" smooth="yes"/>
      <point x="1511" y="325" type="line" smooth="yes"/>
      <point x="1511" y="208.333"/>
      <point x="1451.99" y="152.36"/>
      <point x="1321" y="150" type="curve" smooth="yes"/>
      <point x="1099" y="146" type="line"/>
      <point x="1122" y="0" type="line"/>
      <point x="1414" y="0" type="line"/>
      <point x="1433" y="89" type="line"/>
      <point x="1622" y="100.182"/>
      <point x="1700" y="179.471"/>
      <point x="1700" y="335" type="curve" smooth="yes"/>
    </contour>
    <contour>
      <point x="2087" y="225" type="line"/>
      <point x="2113" y="66"/>
      <point x="2227" y="-28"/>
      <point x="2433" y="-28" type="curve" smooth="yes"/>
      <point x="2704" y="-28"/>
      <point x="2836" y="131.333"/>
      <point x="2836" y="450" type="curve" smooth="yes"/>
      <point x="2836" y="669" type="line" smooth="yes"/>
      <point x="2836" y="870.156"/>
      <point x="2786.75" y="1036.59"/>
      <point x="2698" y="1153" type="curve"/>
      <point x="2506" y="1153" type="line"/>
      <point x="2588.84" y="1031.47"/>
      <point x="2648" y="869.098"/>
      <point x="2648" y="672" type="curve" smooth="yes"/>
      <point x="2648" y="452" type="line" smooth="yes"/>
      <point x="2648" y="245.311"/>
      <point x="2570" y="143"/>
      <point x="2406" y="143" type="curve" smooth="yes"/>
      <point x="2253" y="143"/>
      <point x="2178" y="231"/>
      <point x="2178" y="412" type="curve" smooth="yes"/>
      <point x="2178" y="598" type="line"/>
      <point x="2083" y="598" type="line"/>
    </contour>
  </outline>
</glyph>
<glyph name="GaGa.mlm" format="2">
  <advance width="1670"/>
  <outline>
    <component base="Ga.mlm"/>
    <contour>
      <point x="1021" y="-225" type="line" smooth="yes"/>
      <point x="1021" y="-111.684"/>
      <point x="1074" y="-59"/>
      <point x="1174" y="-59" type="curve" smooth="yes"/>
      <point x="1280" y="-59"/>
      <point x="1328" y="-117.696"/>
      <point x="1328" y="-232" type="curve" smooth="yes"/>
      <point x="1328" y="-252" type="line" smooth="yes"/>
      <point x="1328" y="-355.843"/>
      <point x="1296" y="-441.137"/>
      <point x="1236" y="-517" type="curve"/>
      <point x="1395" y="-517" type="line"/>
      <point x="1450" y="-448.953"/>
      <point x="1478" y="-359.875"/>
      <point x="1478" y="-249" type="curve" smooth="yes"/>
      <point x="1478" y="-229" type="line" smooth="yes"/>
      <point x="1478" y="-34.3715"/>
      <point x="1372" y="65"/>
      <point x="1174" y="65" type="curve" smooth="yes"/>
      <point x="973" y="65"/>
      <point x="873" y="-26.6963"/>
      <point x="873" y="-213" type="curve" smooth="yes"/>
      <point x="873" y="-247" type="line" smooth="yes"/>
      <point x="873" y="-357.386"/>
      <point x="823" y="-408"/>
      <point x="725" y="-408" type="curve" smooth="yes"/>
      <point x="622" y="-408"/>
      <point x="573" y="-355"/>
      <point x="573" y="-248" type="curve" smooth="yes"/>
      <point x="573" y="-228" type="line" smooth="yes"/>
      <point x="573" y="-130.8"/>
      <point x="598" y="-57.2957"/>
      <point x="661" y="10" type="curve"/>
      <point x="516" y="19" type="line"/>
      <point x="454" y="-43.2602"/>
      <point x="423" y="-123.886"/>
      <point x="423" y="-232" type="curve" smooth="yes"/>
      <point x="423" y="-252" type="line" smooth="yes"/>
      <point x="423" y="-438.315"/>
      <point x="523" y="-533"/>
      <point x="725" y="-533" type="curve" smooth="yes"/>
      <point x="923" y="-533"/>
      <point x="1021" y="-443.323"/>
      <point x="1021" y="-259" type="curve" smooth="yes"/>
    </contour>
  </outline>
</glyph>
<glyph name="GaMa.mlm" format="2">
  <advance width="2627"/>
  <outline>
    <contour>
      <point x="1110" y="1189" type="curve" smooth="yes"/>
      <point x="858" y="1189"/>
      <point x="733" y="1047.67"/>
      <point x="733" y="764" type="curve" smooth="yes"/>
      <point x="733" y="642.547"/>
      <point x="745" y="515.402"/>
      <point x="745" y="393" type="curve" smooth="yes"/>
      <point x="745" y="222.306"/>
      <point x="675" y="138"/>
      <point x="534" y="138" type="curve" smooth="yes"/>
      <point x="380" y="138"/>
      <point x="304" y="235.275"/>
      <point x="304" y="435" type="curve" smooth="yes"/>
      <point x="304" y="665" type="line" smooth="yes"/>
      <point x="304" y="867.142"/>
      <point x="365.217" y="1029.47"/>
      <point x="456" y="1153" type="curve"/>
      <point x="265" y="1153" type="line"/>
      <point x="169.268" y="1035.61"/>
      <point x="116" y="867.179"/>
      <point x="116" y="662" type="curve" smooth="yes"/>
      <point x="116" y="434" type="line" smooth="yes"/>
      <point x="116" y="127.378"/>
      <point x="256" y="-29"/>
      <point x="535" y="-29" type="curve" smooth="yes"/>
      <point x="799" y="-29"/>
      <point x="932" y="112.407"/>
      <point x="932" y="386" type="curve" smooth="yes"/>
      <point x="932" y="507.402"/>
      <point x="920" y="633.546"/>
      <point x="920" y="754" type="curve" smooth="yes"/>
      <point x="920" y="932.745"/>
      <point x="991" y="1019"/>
      <point x="1136" y="1019" type="curve" smooth="yes"/>
      <point x="1281" y="1019"/>
      <point x="1350" y="931"/>
      <point x="1350" y="756" type="curve" smooth="yes"/>
      <point x="1350" y="545" type="line"/>
      <point x="1444" y="542" type="line"/>
      <point x="1447" y="908" type="line"/>
      <point x="1425.75" y="1097"/>
      <point x="1307.34" y="1189"/>
    </contour>
    <contour>
      <point x="1433" y="908" type="line"/>
      <point x="1350" y="610" type="line"/>
      <point x="1350" y="0" type="line"/>
      <point x="1531" y="0" type="line"/>
      <point x="1531" y="618" type="line" smooth="yes"/>
      <point x="1531" y="905.955"/>
      <point x="1652" y="1032"/>
      <point x="1921" y="1032" type="curve" smooth="yes"/>
      <point x="2180" y="1032"/>
      <point x="2309" y="902.881"/>
      <point x="2309" y="618" type="curve" smooth="yes"/>
      <point x="2309" y="0" type="line"/>
      <point x="2491" y="0" type="line"/>
      <point x="2491" y="617" type="line" smooth="yes"/>
      <point x="2491" y="995.619"/>
      <point x="2308" y="1189"/>
      <point x="1932" y="1189" type="curve" smooth="yes"/>
      <point x="1661.26" y="1189"/>
      <point x="1504.57" y="1091"/>
      <point x="1453" y="908" type="curve"/>
    </contour>
    <contour>
      <point x="1441" y="145" type="line"/>
      <point x="1369" y="0" type="line"/>
      <point x="2467" y="0" type="line"/>
      <point x="2433" y="145" type="line"/>
    </contour>
    <contour>
      <point x="2059.44" y="652" type="line" smooth="yes"/>
      <point x="2059.44" y="878"/>
      <point x="1946.04" y="1005"/>
      <point x="1738.44" y="1005" type="curve" smooth="yes"/>
      <point x="1699.62" y="1005"/>
      <point x="1652.72" y="1000"/>
      <point x="1607.44" y="980" type="curve"/>
      <point x="1558.44" y="868" type="line"/>
      <point x="1596.68" y="888.6"/>
      <point x="1636.67" y="895"/>
      <point x="1671.44" y="895" type="curve" smooth="yes"/>
      <point x="1807.57" y="895"/>
      <point x="1873.44" y="805.741"/>
      <point x="1873.44" y="654" type="curve" smooth="yes"/>
      <point x="1873.44" y="631" type="line" smooth="yes"/>
      <point x="1873.44" y="422"/>
      <point x="1774.44" y="253"/>
      <point x="1619.44" y="139" type="curve"/>
      <point x="1784.44" y="106" type="line"/>
      <point x="1955.44" y="215"/>
      <point x="2059.44" y="402"/>
      <point x="2059.44" y="628" type="curve" smooth="yes"/>
    </contour>
  </outline>
</glyph>
<glyph name="GaNa.mlm" format="2">
  <advance width="2320"/>
  <outline>
    <contour>
      <point x="1539" y="669" type="line"/>
      <point x="1352" y="669" type="line"/>
      <point x="1352" y="5" type="line"/>
      <point x="1539" y="5" type="line"/>
    </contour>
    <contour>
      <point x="1112" y="1189" type="curve" smooth="yes"/>
      <point x="860" y="1189"/>
      <point x="733" y="1047.67"/>
      <point x="733" y="764" type="curve" smooth="yes"/>
      <point x="733" y="642.547"/>
      <point x="745" y="515.402"/>
      <point x="745" y="393" type="curve" smooth="yes"/>
      <point x="745" y="222.306"/>
      <point x="676" y="138"/>
      <point x="535" y="138" type="curve" smooth="yes"/>
      <point x="380" y="138"/>
      <point x="304" y="235.275"/>
      <point x="304" y="435" type="curve" smooth="yes"/>
      <point x="304" y="665" type="line" smooth="yes"/>
      <point x="304" y="867.142"/>
      <point x="365.217" y="1029.47"/>
      <point x="456" y="1153" type="curve"/>
      <point x="265" y="1153" type="line"/>
      <point x="169.268" y="1035.61"/>
      <point x="116" y="867.179"/>
      <point x="116" y="662" type="curve" smooth="yes"/>
      <point x="116" y="434" type="line" smooth="yes"/>
      <point x="116" y="127.378"/>
      <point x="256" y="-29"/>
      <point x="535" y="-29" type="curve" smooth="yes"/>
      <point x="799" y="-29"/>
      <point x="933" y="112.407"/>
      <point x="933" y="386" type="curve" smooth="yes"/>
      <point x="933" y="507.419"/>
      <point x="921" y="634.53"/>
      <point x="921" y="755" type="curve" smooth="yes"/>
      <point x="921" y="932.732"/>
      <point x="993" y="1019"/>
      <point x="1138" y="1019" type="curve" smooth="yes"/>
      <point x="1283" y="1019"/>
      <point x="1352" y="933"/>
      <point x="1352" y="758" type="curve" smooth="yes"/>
      <point x="1352" y="545" type="line"/>
      <point x="1445" y="554" type="line"/>
      <point x="1444" y="931" type="line"/>
      <point x="1421" y="1093"/>
      <point x="1311" y="1189"/>
    </contour>
    <contour>
      <point x="1539" y="542" type="line"/>
      <point x="1539" y="745" type="line" smooth="yes"/>
      <point x="1539" y="928"/>
      <point x="1613" y="1019"/>
      <point x="1768" y="1019" type="curve" smooth="yes"/>
      <point x="1936" y="1019"/>
      <point x="2016" y="914.699"/>
      <point x="2016" y="703" type="curve" smooth="yes"/>
      <point x="2016" y="480" type="line" smooth="yes"/>
      <point x="2016" y="283.915"/>
      <point x="1959.83" y="121.532"/>
      <point x="1882" y="0" type="curve"/>
      <point x="2079" y="0" type="line"/>
      <point x="2159.46" y="113.357"/>
      <point x="2204" y="281.86"/>
      <point x="2204" y="481" type="curve" smooth="yes"/>
      <point x="2204" y="703" type="line" smooth="yes"/>
      <point x="2204" y="1026.66"/>
      <point x="2069" y="1189"/>
      <point x="1793" y="1189" type="curve" smooth="yes"/>
      <point x="1588" y="1189"/>
      <point x="1477" y="1093"/>
      <point x="1448" y="931" type="curve"/>
      <point x="1397" y="931" type="line"/>
      <point x="1393" y="564" type="line"/>
    </contour>
  </outline>
</glyph>
<glyph name="JaNya_Alt.mlm" format="2">
  <advance width="4703"/>
  <outline>
    <component base="Nya.mlm" xOffset="1814"/>
    <contour>
      <point x="602" y="1189" type="curve" smooth="yes"/>
      <point x="276" y="1189"/>
      <point x="114" y="1035"/>
      <point x="114" y="743" type="curve" smooth="yes"/>
      <point x="114" y="652" type="line" smooth="yes"/>
      <point x="114" y="507"/>
      <point x="168" y="412"/>
      <point x="284" y="381" type="curve" smooth="yes"/>
      <point x="321" y="371"/>
      <point x="363" y="362"/>
      <point x="411" y="362" type="curve" smooth="yes"/>
      <point x="620" y="362"/>
      <point x="734" y="455"/>
      <point x="734" y="623" type="curve" smooth="yes"/>
      <point x="734" y="653" type="line" smooth="yes"/>
      <point x="734" y="816"/>
      <point x="654" y="903"/>
      <point x="502" y="903" type="curve" smooth="yes"/>
      <point x="380" y="903"/>
      <point x="302" y="836"/>
      <point x="279" y="727" type="curve"/>
      <point x="289" y="677" type="line"/>
      <point x="313" y="733"/>
      <point x="365" y="765"/>
      <point x="437" y="765" type="curve" smooth="yes"/>
      <point x="518" y="765"/>
      <point x="561" y="717"/>
      <point x="561" y="633" type="curve" smooth="yes"/>
      <point x="561" y="605" type="line" smooth="yes"/>
      <point x="561" y="516"/>
      <point x="513" y="472"/>
      <point x="430" y="472" type="curve" smooth="yes"/>
      <point x="336" y="472"/>
      <point x="291" y="528"/>
      <point x="291" y="637" type="curve" smooth="yes"/>
      <point x="291" y="711" type="line"/>
      <point x="297" y="749" type="line"/>
      <point x="280" y="749" type="line"/>
      <point x="280" y="751" type="line"/>
      <point x="280" y="941"/>
      <point x="390" y="1037"/>
      <point x="610" y="1037" type="curve" smooth="yes"/>
      <point x="824" y="1037"/>
      <point x="930" y="943"/>
      <point x="933" y="760" type="curve" smooth="yes"/>
      <point x="937" y="532" type="line"/>
      <point x="1114" y="532" type="line"/>
      <point x="1119" y="807" type="line" smooth="yes"/>
      <point x="1121" y="950"/>
      <point x="1178" y="1025"/>
      <point x="1315" y="1025" type="curve" smooth="yes"/>
      <point x="1453" y="1025"/>
      <point x="1518" y="949.727"/>
      <point x="1518" y="795" type="curve" smooth="yes"/>
      <point x="1518" y="705" type="line" smooth="yes"/>
      <point x="1518" y="525.32"/>
      <point x="1441" y="436"/>
      <point x="1287" y="436" type="curve" smooth="yes"/>
      <point x="605" y="436" type="line"/>
      <point x="289" y="389" type="line"/>
      <point x="289" y="377" type="line"/>
      <point x="169" y="356"/>
      <point x="115" y="276"/>
      <point x="115" y="167" type="curve" smooth="yes"/>
      <point x="115" y="162" type="line" smooth="yes"/>
      <point x="115" y="21"/>
      <point x="209" y="-60"/>
      <point x="404" y="-60" type="curve" smooth="yes"/>
      <point x="1272" y="-60" type="line" smooth="yes"/>
      <point x="1569" y="-60"/>
      <point x="1715" y="33"/>
      <point x="1864" y="213" type="curve" smooth="yes"/>
      <point x="2041" y="426" type="line"/>
      <point x="1954" y="548" type="line"/>
      <point x="1748" y="315" type="line" smooth="yes"/>
      <point x="1607" y="156"/>
      <point x="1511" y="85"/>
      <point x="1257" y="85" type="curve" smooth="yes"/>
      <point x="419" y="85" type="line" smooth="yes"/>
      <point x="338" y="85"/>
      <point x="295" y="120"/>
      <point x="295" y="183" type="curve" smooth="yes"/>
      <point x="295" y="188" type="line" smooth="yes"/>
      <point x="295" y="255"/>
      <point x="340" y="292"/>
      <point x="425" y="292" type="curve" smooth="yes"/>
      <point x="1307" y="292" type="line" smooth="yes"/>
      <point x="1559" y="292"/>
      <point x="1705" y="421.081"/>
      <point x="1705" y="711" type="curve" smooth="yes"/>
      <point x="1705" y="809" type="line" smooth="yes"/>
      <point x="1705" y="1059.59"/>
      <point x="1585" y="1189"/>
      <point x="1343" y="1189" type="curve" smooth="yes"/>
      <point x="1158" y="1189"/>
      <point x="1048" y="1109"/>
      <point x="1024" y="954" type="curve"/>
      <point x="1019" y="954" type="line"/>
      <point x="983" y="1106"/>
      <point x="838" y="1189"/>
    </contour>
  </outline>
</glyph>
<glyph name="KaKa.mlm" format="2">
  <advance width="2916"/>
  <outline>
    <contour>
      <point x="1011" y="133" type="curve" smooth="yes"/>
      <point x="852" y="133"/>
      <point x="773" y="230.322"/>
      <point x="773" y="426" type="curve" smooth="yes"/>
      <point x="773" y="745" type="line" smooth="yes"/>
      <point x="773" y="941.762"/>
      <point x="851" y="1036"/>
      <point x="1011" y="1036" type="curve" smooth="yes"/>
      <point x="1171" y="1036"/>
      <point x="1249" y="941.762"/>
      <point x="1249" y="745" type="curve" smooth="yes"/>
      <point x="1249" y="426" type="line" smooth="yes"/>
      <point x="1249" y="230.322"/>
      <point x="1170" y="133"/>
    </contour>
    <contour>
      <point x="1011" y="-26" type="curve" smooth="yes"/>
      <point x="1288" y="-26"/>
      <point x="1430" y="127.386"/>
      <point x="1430" y="427" type="curve" smooth="yes"/>
      <point x="1430" y="742" type="line" smooth="yes"/>
      <point x="1430" y="1042.65"/>
      <point x="1288" y="1194"/>
      <point x="1011" y="1194" type="curve" smooth="yes"/>
      <point x="733" y="1194"/>
      <point x="592" y="1042.65"/>
      <point x="592" y="742" type="curve" smooth="yes"/>
      <point x="592" y="427" type="line" smooth="yes"/>
      <point x="592" y="339.028"/>
      <point x="605" y="265.376"/>
      <point x="629" y="204" type="curve"/>
      <point x="656" y="157" type="line"/>
      <point x="715" y="38.7697"/>
      <point x="838" y="-26"/>
    </contour>
    <contour>
      <point x="395" y="-26" type="curve" smooth="yes"/>
      <point x="544" y="-26"/>
      <point x="623" y="43.9209"/>
      <point x="653" y="156" type="curve"/>
      <point x="666" y="158" type="line"/>
      <point x="617" y="258" type="line"/>
      <point x="597" y="182.056"/>
      <point x="544" y="129"/>
      <point x="447" y="129" type="curve" smooth="yes"/>
      <point x="339" y="129"/>
      <point x="282" y="195.351"/>
      <point x="282" y="327" type="curve" smooth="yes"/>
      <point x="282" y="368" type="line" smooth="yes"/>
      <point x="282" y="524.977"/>
      <point x="350" y="593"/>
      <point x="486" y="593" type="curve" smooth="yes"/>
      <point x="654" y="593" type="line"/>
      <point x="654.768" y="593"/>
      <point x="692.977" y="593"/>
      <point x="694" y="593" type="curve"/>
      <point x="1314" y="593" type="line"/>
      <point x="1361" y="592" type="line"/>
      <point x="1944" y="592" type="line" smooth="yes"/>
      <point x="2073" y="592"/>
      <point x="2128" y="527.333"/>
      <point x="2128" y="398" type="curve" smooth="yes"/>
      <point x="2128" y="325" type="line" smooth="yes"/>
      <point x="2128" y="197.396"/>
      <point x="2070" y="129"/>
      <point x="1958" y="129" type="curve" smooth="yes"/>
      <point x="1838" y="129"/>
      <point x="1782" y="203.309"/>
      <point x="1782" y="356" type="curve" smooth="yes"/>
      <point x="1782" y="587" type="line" smooth="yes"/>
      <point x="1782" y="647.444"/>
      <point x="1784.88" y="687.405"/>
      <point x="1791" y="723" type="curve" smooth="yes"/>
      <point x="1826.28" y="928.162"/>
      <point x="1963" y="1029"/>
      <point x="2192" y="1029" type="curve" smooth="yes"/>
      <point x="2475" y="1029"/>
      <point x="2614" y="882.713"/>
      <point x="2614" y="584" type="curve" smooth="yes"/>
      <point x="2614" y="449" type="line" smooth="yes"/>
      <point x="2614" y="270.014"/>
      <point x="2572" y="118.642"/>
      <point x="2494" y="0" type="curve"/>
      <point x="2690" y="0" type="line"/>
      <point x="2764" y="108.377"/>
      <point x="2802" y="271.964"/>
      <point x="2802" y="456" type="curve" smooth="yes"/>
      <point x="2802" y="590" type="line" smooth="yes"/>
      <point x="2802" y="987.605"/>
      <point x="2600" y="1192"/>
      <point x="2196" y="1192" type="curve" smooth="yes"/>
      <point x="1798" y="1192"/>
      <point x="1601" y="981.233"/>
      <point x="1601" y="573" type="curve" smooth="yes"/>
      <point x="1601" y="364" type="line" smooth="yes"/>
      <point x="1601" y="108.385"/>
      <point x="1717" y="-27"/>
      <point x="1955" y="-27" type="curve" smooth="yes"/>
      <point x="2189" y="-27"/>
      <point x="2310" y="96.4063"/>
      <point x="2310" y="324" type="curve" smooth="yes"/>
      <point x="2310" y="399" type="line" smooth="yes"/>
      <point x="2310" y="626.343"/>
      <point x="2201" y="739"/>
      <point x="1977" y="739" type="curve" smooth="yes"/>
      <point x="1736" y="739" type="line"/>
      <point x="1665" y="743" type="line"/>
      <point x="1382" y="743" type="line"/>
      <point x="1307" y="744" type="line"/>
      <point x="702" y="744" type="line"/>
      <point x="646" y="744" type="line"/>
      <point x="474" y="744" type="line" smooth="yes"/>
      <point x="225" y="744"/>
      <point x="98" y="619.685"/>
      <point x="98" y="369" type="curve" smooth="yes"/>
      <point x="98" y="320" type="line" smooth="yes"/>
      <point x="98" y="94.4821"/>
      <point x="201" y="-26"/>
    </contour>
  </outline>
</glyph>
